<svg
 xmlns="http://www.w3.org/2000/svg"
 viewBox="0 0 1024 1024"
fill="currentColor"><path
    d="M981.57,829,819,991.49c-1.77,2.89-13.75,13.75-16.25,16.25-8.8,8.79-21,16.51-32.51,16.25-11.52.26-23.73-16.86-32.53-25.65a44.25,44.25,0,0,1-6.27-8.11l-91.23-80c-17.1-17.1-17.1-47.92,0-65s54.35-14.92,71.45,2.17l58.58,62.85L916.56,747.68c17.09-17.09,47.77-17,65,0C1013.4,779,1004.77,805.75,981.57,829ZM802.78,715.17c0,24.18-20.15,31.92-44.33,31.92a43.5,43.5,0,0,1-33.85-16.32c-61.85-69.56-147.14-110-246.9-113.12-3.76.13-12.47-.31-16.26,0a137.87,137.87,0,0,1-16.25,0c-174,5.53-304.36,138.88-325.08,308.82h0c0,24.23-21.81,48.78-47.33,48.78s-50.19-24-50.19-48.78l-.16-16.73c0-5.86-1.81-10.65.16-15.78,21.64-156.89,129.33-274.48,267-333.74-80.85-55.29-137-146.07-137-251.4C152.62,139.27,291.84,0,461.44,0S770.27,139.27,770.27,308.82c0,105.29-53.51,196-134.3,251.34a438.24,438.24,0,0,1,145.82,102.4c6.22,4,17.48,13.55,21,20.1,6.26,7.36,10.47,8.5,16.25,16.26l-32.51,32.5Zm-130-406.35c0-121.11-90.16-211.3-211.31-211.3s-211.29,90.19-211.29,211.3S340.3,520.13,461.44,520.13,672.75,429.93,672.75,308.82Z"
    fill-rule="evenodd"
  /></svg>
