<svg xmlns="http://www.w3.org/2000/svg" viewBox="0 0 1024 1024"><path d="M604,270a34,34,0,0,1,34-34H870a34,34,0,0,1,0,68H638A34,34,0,0,1,604,270ZM394,236H302V144a34,34,0,0,0-68,0v92H142a34,34,0,0,0,0,68h92v92a34,34,0,0,0,68,0V304h92a34,34,0,0,0,0-68ZM373.07,650.93a34,34,0,0,0-48.09,0l-58,58-58-58A34,34,0,1,0,160.93,699l58,58-58,58A34,34,0,0,0,209,863.07l58-58,58,58A34,34,0,1,0,373.07,815l-58-58,58-58A34,34,0,0,0,373.07,650.93ZM870,720.5H638a34,34,0,0,0,0,68H870a34,34,0,0,0,0-68Zm-150-82v1a34,34,0,0,0,68,0v-1a34,34,0,0,0-68,0Zm34,200a34,34,0,0,0-34,34v1a34,34,0,0,0,68,0v-1A34,34,0,0,0,754,838.5Z" style="fill:#00cfcd;"/></svg>
