<svg
xmlns="http://www.w3.org/2000/svg"
 viewBox="0 0 1024 1024"
 fill="currentColor"><path
    d="M935.92,957c-45.12,40.89-104.48,62.26-165.37,61.46-414.35-5.48-766.2-371.62-752-791A230.66,230.66,0,0,1,26,177h0c152.41-434.71,705.46,29,302.52,252.68a534.63,534.63,0,0,0,251,270.9C788.5,374.81,1151,762.1,935.92,957ZM778.45,668.81c-60.38,0-110.91,40.58-127.05,95.88a44,44,0,0,1-67.13,36.66S556,789,556,788.68A623.63,623.63,0,0,1,240.35,445.31c-.44,0-12.08-26.48-12.08-39.9l-.4-4.12a44.19,44.19,0,0,1,40.6-44l0-.34A133.29,133.29,0,0,0,380.57,225.29c0-73.72-59.63-133.49-133.18-133.49S114.21,151.57,114.21,225.29a134.33,134.33,0,0,0,1,15.49c2,131.14,36.92,219.56,49.63,247.41A711.91,711.91,0,0,0,560.45,884.73l2,.83c3.86,1.53,7.63,3.23,11.52,4.69,0-.06,0-.13-.08-.2,39.5,15.11,114.08,49,204.53,45,6.45,0,29.55-1.08,43.28-7.37A133.05,133.05,0,0,0,911.29,802C911.29,728.42,851.81,668.81,778.45,668.81Z"
    fill-rule="evenodd"
  /></svg>
