<svg xmlns="http://www.w3.org/2000/svg" viewBox="0 0 1024 1024"><path
    d="M.13,606c0,112.92,85.15,198.08,198.08,198.08h41.21V407.92H198.21C85.28,407.92.13,493.08.13,606ZM157,496.91V715.07C111.36,699.39,82.52,657.82,82.52,606S111.36,512.55,157,496.91ZM512,82.39c-150.3,0-272.58,122.37-272.58,272.78V365H157v-9.81C157,159.33,316.27,0,512,0S867,159.33,867,355.17V365H784.58v-9.81C784.58,204.76,662.3,82.39,512,82.39ZM825.79,407.92H784.58V804.08h41.21c112.93,0,198.08-85.16,198.08-198.08S938.72,407.92,825.79,407.92ZM867,715V496.92c45.67,15.65,74.51,57.21,74.51,109.05S912.64,699.39,867,715Zm11.74,142c0,20.52-18,21.55-21.55,21.55H749.31a103.95,103.95,0,1,0,.24,82.39H857.16C916.42,961,961.1,916.29,961.1,857v-9.81H878.71ZM654,898.5a21.56,21.56,0,1,1-21.58,21.56A21.58,21.58,0,0,1,654,898.5Z"
    style="fill:#3264c8"
  /></svg>
