<svg xmlns="http://www.w3.org/2000/svg" viewBox="0 0 1024 1024"><path
    d="M261.88,62H136.82C101.16,62,62,101.16,62,136.82V261.88c0,35.66,39.16,74.82,74.82,74.82H261.88c35.66,0,74.81-39.16,74.81-74.82V136.82C336.69,101.16,297.54,62,261.88,62Zm7.24,197.6a26.8,26.8,0,0,1-9.52,9.52H139.09a26.77,26.77,0,0,1-9.51-9.52V139.09a26.75,26.75,0,0,1,9.51-9.51H259.6a26.77,26.77,0,0,1,9.52,9.51Zm-7.24,427.71H136.82c-17.18,0-35.74,8.71-50.93,23.89S62,745,62,762.12V887.18c0,17.18,8.71,35.74,23.89,50.92S119.64,962,136.82,962H261.88c17.18,0,35.74-8.71,50.92-23.9s23.89-33.74,23.89-50.92V762.12c0-17.17-8.7-35.73-23.89-50.92S279.06,687.31,261.88,687.31ZM269.12,885a26.25,26.25,0,0,1-9.44,9.43H139a26.31,26.31,0,0,1-9.43-9.43V764.32a26.25,26.25,0,0,1,9.43-9.44H259.68a26.2,26.2,0,0,1,9.44,9.44Zm-7.24-510.34H136.82c-17.18,0-35.74,8.71-50.93,23.9S62,432.29,62,449.47V574.53c0,17.18,8.71,35.74,23.89,50.92s33.75,23.9,50.93,23.9H261.88c17.18,0,35.74-8.71,50.92-23.9s23.89-33.74,23.89-50.92V449.47c0-17.18-8.7-35.74-23.89-50.92S279.06,374.65,261.88,374.65Zm7.24,197.69a26.31,26.31,0,0,1-9.43,9.43H139a26.31,26.31,0,0,1-9.43-9.43V451.66a26.31,26.31,0,0,1,9.43-9.43H259.68a26.25,26.25,0,0,1,9.44,9.43ZM574.53,374.65H449.47c-35.66,0-74.82,39.16-74.82,74.82V574.53c0,35.66,39.16,74.82,74.82,74.82H574.53c35.66,0,74.82-39.16,74.82-74.82V449.47C649.35,413.81,610.19,374.65,574.53,374.65Zm7.24,197.61a26.83,26.83,0,0,1-9.51,9.51H451.74a26.75,26.75,0,0,1-9.51-9.51V451.74a26.75,26.75,0,0,1,9.51-9.51H572.26a26.91,26.91,0,0,1,9.51,9.51ZM938.11,85.9C922.92,70.71,904.36,62,887.18,62H762.12C745,62,726.39,70.71,711.2,85.89s-23.89,33.75-23.89,50.93V261.88c0,17.17,8.7,35.74,23.89,50.92s33.75,23.9,50.92,23.9H887.18c17.18,0,35.74-8.71,50.93-23.9S962,279.05,962,261.88V136.82C962,119.64,953.29,101.08,938.11,85.9ZM894.42,259.69a26.31,26.31,0,0,1-9.43,9.43H764.32a26.2,26.2,0,0,1-9.44-9.44V139a26.25,26.25,0,0,1,9.44-9.43H885a26.31,26.31,0,0,1,9.43,9.43Zm-7.24,115H762.12c-35.66,0-74.81,39.16-74.81,74.82V574.53c0,35.66,39.15,74.82,74.81,74.82H887.18c35.66,0,74.82-39.16,74.82-74.82V449.47C962,413.81,922.84,374.65,887.18,374.65Zm7.24,197.61a26.75,26.75,0,0,1-9.51,9.51H764.4a26.77,26.77,0,0,1-9.52-9.51V451.74a26.85,26.85,0,0,1,9.52-9.51H884.91a26.75,26.75,0,0,1,9.51,9.51Zm-7.24,115H762.12c-17.17,0-35.73,8.71-50.92,23.89S687.31,745,687.31,762.12V887.18c0,17.18,8.7,35.74,23.89,50.93S745,962,762.12,962H887.18c17.18,0,35.74-8.71,50.93-23.9S962,904.36,962,887.18V762.12c0-17.17-8.71-35.73-23.89-50.92S904.36,687.31,887.18,687.31ZM894.42,885a26.31,26.31,0,0,1-9.43,9.43H764.32a26.25,26.25,0,0,1-9.44-9.43V764.32a26.2,26.2,0,0,1,9.44-9.44H885a26.25,26.25,0,0,1,9.43,9.44ZM574.53,62H449.47c-17.18,0-35.74,8.71-50.92,23.89s-23.9,33.75-23.9,50.93V261.88c0,17.17,8.71,35.74,23.9,50.92s33.74,23.9,50.92,23.9H574.53c17.18,0,35.74-8.71,50.92-23.9s23.9-33.75,23.9-50.92V136.82c0-17.18-8.71-35.74-23.9-50.93S591.71,62,574.53,62Zm7.24,197.68a26.25,26.25,0,0,1-9.43,9.44H451.66a26.25,26.25,0,0,1-9.43-9.44V139a26.31,26.31,0,0,1,9.43-9.43H572.34a26.31,26.31,0,0,1,9.43,9.43Zm-7.24,427.63H449.47c-17.18,0-35.74,8.71-50.92,23.89s-23.9,33.75-23.9,50.92V887.18c0,17.18,8.71,35.74,23.9,50.92S432.29,962,449.47,962H574.53c17.18,0,35.74-8.71,50.92-23.9s23.9-33.74,23.9-50.92V762.12c0-17.17-8.71-35.73-23.9-50.92S591.71,687.31,574.53,687.31ZM581.77,885a26.31,26.31,0,0,1-9.43,9.43H451.66a26.31,26.31,0,0,1-9.43-9.43V764.32a26.25,26.25,0,0,1,9.43-9.44H572.34a26.25,26.25,0,0,1,9.43,9.44Z"
    style="fill:#3264c8"
  /></svg>
