<svg xmlns="http://www.w3.org/2000/svg"
xmlns:xlink="http://www.w3.org/1999/xlink"  viewBox="0 0 1024 1024"
    fill="currentColor"><defs>
    <linearGradient id="a" x1="66.63" y1="61.58" x2="1013.41" y2="1022.55"
    gradientUnits="userSpaceOnUse">
    <stop offset="0" stop-color="#70d48c"/>
    <stop offset="1" stop-color="#3cc"/>
    </linearGradient>
    <linearGradient id="b" x1="66.63" y1="61.58" x2="1013.41" y2="1022.55" xlink:href="#a"/>
    </defs><ellipse cx="480" cy="481.14" rx="340.27" ry="341.14" style="fill:url(#a)"/>
    <path d="M1014,966,843.49,795.41A481.73,481.73,0,0,0,666.88,37.84,480.33,480.33,0,0,0,0,481.14,479.57,479.57,0,0,0,795.6,843.68L966,1014A34,34,0,0,0,1014,966ZM640.33,861.84A412.34,412.34,0,0,1,68,481.14a411.6,411.6,0,1,1,572.33,380.7Z" style="fill:url(#b)"/>
    </svg>
