<svg xmlns="http://www.w3.org/2000/svg" viewBox="0 0 1024 1024"><path
    d="M268.59,537.18H495.21v42H268.59Zm512,423.87a21,21,0,0,1-21,21H63a21,21,0,0,1-21-21V600.13a21,21,0,0,1,21-21H134.3v-42H63A63,63,0,0,0,0,600.13V961.05a63,63,0,0,0,63,63H759.61a63,63,0,0,0,62.95-63V872.92h-42Zm42-222.43V600.13a63,63,0,0,0-62.95-63H629.51v42h130.1a21,21,0,0,1,21,21V738.62ZM961.05,0H600.13a63,63,0,0,0-63,63V77.64h42V63a21,21,0,0,1,21-21H961.05a21,21,0,0,1,21,21V759.61a21,21,0,0,1-21,21H600.13a21,21,0,0,1-21-21V346.23h-42V759.61a63,63,0,0,0,63,62.95H961.05a63,63,0,0,0,63-62.95V63A63,63,0,0,0,961.05,0ZM193,775.32c-.06-1.19-5.54-120.4,35-246.48C279.83,368.12,379.44,270.34,524,237.6v56.57c0,7.83,8.21,12.67,14.67,8.64l131.71-82.23a10.3,10.3,0,0,0,0-17.29L538.67,121.06c-6.46-4-14.67.81-14.67,8.64v64.88C360.81,228.29,244.56,339.64,187.75,517.15c-42.64,133.26-36.91,255.2-36.64,260.33Z"
    style="fill:#00cfcd"
  /></svg>
