<svg xmlns="http://www.w3.org/2000/svg" viewBox="0 0 1024 1024"><path
    d="M507.6,708.16h-7.3a43.89,43.89,0,0,0-43.89,43.75h0a43.89,43.89,0,0,0,43.88,44h7.3a43.89,43.89,0,0,0,43.9-43.89h0A43.89,43.89,0,0,0,507.6,708.16ZM639.46,281.52q-47.3-43.21-126.73-43.23-75,0-120.64,40.28t-54.86,116l68.36,8.13c5.9-37.71,18.34-49.41,37.31-67.15S485.5,309,513.84,309c29.31,0,55.08,8.81,74.28,29.39,10.61,11.37,20.66,43.28,19.87,47.41-4.92,25.82-13.13,39.05-15.92,44.29-6.54,12.27-5.87,12.26-28.89,32.57s-55,51.79-63.86,62.4q-18.12,21.78-26.24,43.22Q462,596.71,462,635.84q0,6.67.36,20h79.91q.76-39.9,5.56-57.65a94.13,94.13,0,0,1,14.79-31.39q9.95-13.69,42.46-42.49,48.43-42.87,65-72.81a132.37,132.37,0,0,0,16.63-65.39Q686.77,324.76,639.46,281.52ZM512,0C229.24,0,0,229.24,0,512s229.24,512,512,512,512-229.21,512-512S794.76,0,512,0Zm-.69,930.86C279.57,930.89,91.7,743.05,91.7,511.31S279.57,91.73,511.31,91.73,930.92,279.57,930.92,511.31,743.05,930.89,511.31,930.89Z"
    style="fill:#3264c8"
  /></svg>
