<svg xmlns="http://www.w3.org/2000/svg"  viewBox="0 0 1024 1024"
    fill="currentColor"><path d="M897.44,130.88H126.56A126.7,126.7,0,0,0,0,257.44V766.56A126.7,126.7,0,0,0,126.56,893.12H897.44A126.7,126.7,0,0,0,1024,766.56V257.44A126.7,126.7,0,0,0,897.44,130.88Zm46,635.68a46.07,46.07,0,0,1-46,46H126.56a46.07,46.07,0,0,1-46-46V257.44a46.07,46.07,0,0,1,46-46H897.44a46.07,46.07,0,0,1,46,46ZM175.54,320.83h33.92V610.08H175.54ZM429.91,325q24.32,5.73,41.5,20.72Q493.79,365,504.9,395.12T516,463.88q0,33-7.52,58.4T489.16,564.4q-11.76,16.68-25.76,26.25t-33.78,14.5q-19.78,4.94-45.46,4.93l-106.73-2.63V321.36l102.1-.53Q412.55,320.83,429.91,325ZM310.77,355V573.84l69.15,2.1q28,0,43.91-5.32t25.38-15Q462.53,542,470,519t7.43-55.73q0-45.39-14.57-69.75T427.4,360.88Q412.34,355,379,355Z" /></svg>
