<svg xmlns="http://www.w3.org/2000/svg"  viewBox="0 0 1024 1024"
    fill="currentColor">
    <path d="M953.88,371.93c0-1.52,0-1.52,0-3.07-.06-3.88-.12-6.8-.24-9.7A292.28,292.28,0,0,0,950,316.85a163.07,163.07,0,0,0-14.62-44.6A151.28,151.28,0,0,0,907.56,234a148.73,148.73,0,0,0-38.11-27.77,161.19,161.19,0,0,0-44.16-14.65,297.24,297.24,0,0,0-43.51-3.74c-4.77-.2-9-.24-18.35-.24-3.06-.06-6.64-.09-10.67-.11H500.06c-10.84,0-15.75,0-21.94.12-8.95,0-13.18,0-18.62.26a288.49,288.49,0,0,0-42.33,3.65,162.88,162.88,0,0,0-44.59,14.62,153.42,153.42,0,0,0-38.21,27.89c-.52.52-1.32,1.35-2.64,2.74-.21.23-.79.81-1.74,1.77-5.34,5.15-7.71,7.46-10.65,10.4l-12.28,12.28L225.4,343a27.7,27.7,0,0,0-2.24,2c-.57.52-1.69,1.6-2.93,2.82l-3.09,3.08-82,82c-2.15,2.25-3.64,3.76-7.1,7.22-1.93,1.94-3.35,3.42-6.41,6.66a217.88,217.88,0,0,0-17.27,19A63.32,63.32,0,0,0,91.92,485c-6.08,18.52-6.08,36.51-.67,53.23l.73,1.95a64.69,64.69,0,0,0,12.41,19.08,243.48,243.48,0,0,0,17.93,19.66c2.4,2.57,3.82,4.06,5.75,6l7.1,7.1,74.74,74.86c3.49,3.49,5.21,5.19,7.2,7.09,2.11,2.23,4.34,4.45,6.57,6.55q.4.36,95.66,95.55c2.94,2.94,5.31,5.25,10.65,10.4.57.56,1.43,1.43,1.69,1.71,1.37,1.45,2.17,2.28,2.7,2.81a153.08,153.08,0,0,0,37.85,27.71,163.18,163.18,0,0,0,44.58,14.73,294.38,294.38,0,0,0,43.3,3.85c2.48.05,4.54.08,9.14.12,4.43.05,6.39.07,8.79.13H761.87c2.93-.06,4.9-.08,9.39-.13s6.72-.07,9.38-.12a299.59,299.59,0,0,0,43.28-3.93,156.4,156.4,0,0,0,44.91-14.81,149.81,149.81,0,0,0,38.42-27.95,153.91,153.91,0,0,0,27.82-38.24,160.84,160.84,0,0,0,14.72-44.87,286.09,286.09,0,0,0,3.83-43.64c.13-3,.18-5.86.26-12.21,0-3,.06-4.35.1-6V378.3C953.94,376.22,953.92,374.9,953.88,371.93Zm-209.8,260.9a21.58,21.58,0,0,1-35.18,7l-.23.24-97.32-97.23-97.2,97.35-.3-.29a21.67,21.67,0,0,1-30.52-30.77,21.45,21.45,0,0,1,3.79-3l93.71-93.74L483.33,415l.29-.3a21.67,21.67,0,0,1,30.77-30.52,21.12,21.12,0,0,1,3,3.72l94,93.92L706.09,387a22.67,22.67,0,0,1,2.33-2.79A21.58,21.58,0,0,1,739,414.65l.22.25-97.37,97.42,95.42,95.17a21.86,21.86,0,0,1,2.07,1.8A21.59,21.59,0,0,1,744.08,632.83Z" style="fill:#00cfcd;"/></svg>
