<svg xmlns="http://www.w3.org/2000/svg"  viewBox="0 0 1024 1024"
    fill="currentColor"><path d="M512,1024a333,333,0,0,1-137.53-29.72l-88.17-40A488.18,488.18,0,0,1,77.79,775.29,480.87,480.87,0,0,1,0,513V236.23C0,172.31,49.67,119.92,113.08,117c120.09-5.59,231.58-38.78,340.84-101.48a117.09,117.09,0,0,1,116.16,0C679.34,78.19,790.83,111.38,910.92,117c63.41,3,113.08,55.34,113.08,119.26V513a480.87,480.87,0,0,1-77.79,262.32A488.18,488.18,0,0,1,737.7,954.34l-88.17,40A333.16,333.16,0,0,1,512,1024Zm0-956a48.65,48.65,0,0,0-24.23,6.43C430,107.62,370.24,133.64,310.18,151.8a799,799,0,0,1-193.94,33.1C89.19,186.15,68,208.7,68,236.23V513a413,413,0,0,0,66.83,225.3A420.37,420.37,0,0,0,314.37,892.41l88.17,40a265.16,265.16,0,0,0,218.92,0l88.17-40A420.37,420.37,0,0,0,889.17,738.27,413,413,0,0,0,956,513V236.23c0-27.53-21.19-50.08-48.24-51.33h0a799,799,0,0,1-193.94-33.1C653.76,133.64,594,107.62,536.23,74.47A48.65,48.65,0,0,0,512,68ZM467.54,684.29,764,387.79A34,34,0,0,0,716,339.71L443.5,612.17,308,476.71A34,34,0,0,0,260,524.79l159.5,159.5a34,34,0,0,0,48.08,0Z" /></svg>
