<svg xmlns="http://www.w3.org/2000/svg" viewBox="0 0 1024 1024"><path
    d="M1008.6,250.75,773.38,11.88a39.22,39.22,0,0,0-46-7.57L42.1,352a40.44,40.44,0,0,0-21.5,29.77,40.93,40.93,0,0,0,11.13,35L267,655.63v0a39.45,39.45,0,0,0,45.94,7.57L998.25,315.53a40.43,40.43,0,0,0,21.51-29.76A40.94,40.94,0,0,0,1008.6,250.75ZM303,577.84,127.11,399.27,328.39,297.19A128.35,128.35,0,0,0,323,333.77c0,74.41,63.9,137.19,152.36,156.61Zm293.24-169L560,447.53,538.42,412,484,446.55l-16.58-27.38,54.44-34.59-6.82-11.22L460.66,408l-16.61-27.48,48.23-30.71L375.52,323.62l48.1-30.57,85.14,16.31,17.26-82,48.4-30.77L548,314.36,601,280.68l-.23,38.21L558.2,345.94,565,357.17l56.46-35.9,2.64,36.23-42.52,27.05Zm145.48-53.52a125.74,125.74,0,0,0,1.86-21.51c0-79.62-74-146.06-171.48-160.23L737.39,89.71,913.21,268.25ZM999.43,476.55,289.64,846.89a39.38,39.38,0,0,1-47.17-8.27L17.18,606.68a41,41,0,0,1,1.46-56.92,39.42,39.42,0,0,1,56.53,1.48L280,761,963.07,404.57A39,39,0,0,1,993.38,402a39.74,39.74,0,0,1,23.42,20.32v0C1026.6,442.13,1018.81,466.44,999.43,476.55Zm17.2,108.68c9.8,19.77,2,44.08-17.38,54.19L269.89,1019.55a39.38,39.38,0,0,1-47.16-8.26l-209-212.36A41,41,0,0,1,15.18,742a39.4,39.4,0,0,1,56.53,1.47L260.2,933.68,962.9,567.44a39,39,0,0,1,30.3-2.54A39.75,39.75,0,0,1,1016.63,585.23Z"
    style="fill:#00cfcd"
  /></svg>
