<svg xmlns="http://www.w3.org/2000/svg" viewBox="0 0 1024 1024"><path d="M1014.05,983.28c-22.88-113.45-85.24-216.81-175.6-291a511.16,511.16,0,0,0-150-85.57q-8.52-3.09-17.12-5.89a321.19,321.19,0,1,0-318.74,0q-8.6,2.81-17.12,5.89a511.16,511.16,0,0,0-150,85.57C95.19,766.47,32.83,869.83,10,983.28a34,34,0,0,0,66.66,13.44c19.79-98.15,73.81-187.61,152.1-251.92a446.68,446.68,0,0,1,566.58,0c78.29,64.31,132.31,153.77,152.1,251.92a34,34,0,0,0,66.66-13.44ZM258.5,321.5a253.51,253.51,0,1,1,74.25,179.25A251.84,251.84,0,0,1,258.5,321.5Z" style="fill:#575757"/></svg>