<svg xmlns="http://www.w3.org/2000/svg"  viewBox="0 0 1024 1024"
    fill="currentColor"><path d="M629.34,89.27,266.18,350.55H98.08A98.12,98.12,0,0,0,0,448.7V614a98.13,98.13,0,0,0,98.13,98.17H282.41l308.73,215.5c.68.42,139.16,73.73,149.63-69.75V146.43C724.07,40.12,630.13,87.48,629.34,89.27Zm326.28,87.88L877.5,208.42A49.06,49.06,0,0,0,846.59,254c0,34.77,35.13,58.54,67.38,45.63l78.11-31.26A49.11,49.11,0,0,0,1023,222.77h0C1023,188,987.87,164.23,955.62,177.15Zm18.23,290.54H895.73a49.15,49.15,0,0,0-49.14,49.14v7.55a49.16,49.16,0,0,0,49.14,49.16h78.12A49.16,49.16,0,0,0,1023,524.38v-7.55A49.15,49.15,0,0,0,973.85,467.69Zm18.23,305.16L914,741.6c-32.25-12.92-67.38,10.85-67.38,45.6a49.13,49.13,0,0,0,30.91,45.63l78.12,31.26C987.87,877,1023,853.22,1023,818.46A49.09,49.09,0,0,0,992.08,772.85Z" style="fill:#f60;fill-rule:evenodd"/></svg>
