<svg xmlns="http://www.w3.org/2000/svg"  viewBox="0 0 1024 1024"
    fill="currentColor"><path
    d="M911.1,297.11l-61.65-61.55L630.59,17C594.19-19.33,532,6.41,532,57.81v155.9a114.88,114.88,0,0,0,115,114.8H776.67a72.73,72.73,0,0,1,72.78,72.68V890a41.1,41.1,0,0,1-41.12,41.07H215.68A41.1,41.1,0,0,1,174.55,890V135.53a41.09,41.09,0,0,1,41.13-41.06H418.91a46.53,46.53,0,0,0,46.43-49.81c-1.72-24.54-23-43.15-47.69-43.15H174.55a93,93,0,0,0-93.1,93V931.05a93,93,0,0,0,93.1,93h674.9a93,93,0,0,0,93.1-93V372.92A107.14,107.14,0,0,0,911.1,297.11Zm-264.18-62A21.9,21.9,0,0,1,625,213.27V142.39l92.76,92.76ZM774.65,535.27a46.55,46.55,0,0,1-46.55,46.55H309.19a46.55,46.55,0,0,1,0-93.09H728.1A46.55,46.55,0,0,1,774.65,535.27Zm-332.47-236a46.55,46.55,0,0,1-46.54,46.55H309.19a46.55,46.55,0,0,1,0-93.09h86.45A46.54,46.54,0,0,1,442.18,299.22ZM774.65,758a46.55,46.55,0,0,1-46.55,46.54H309.19a46.55,46.55,0,0,1,0-93.09H728.1A46.55,46.55,0,0,1,774.65,758Z"

  /></svg>
