<svg xmlns="http://www.w3.org/2000/svg"  viewBox="0 0 1024 1024"
    fill="currentColor"><path
    d="M892.85,171.17c-64.68-5.56-126.25-20.24-183-43.63-59.68-24.6-116.38-59.81-168.53-104.66a45,45,0,0,0-58.68,0c-52.15,44.85-108.85,80.06-168.53,104.66-56.73,23.39-118.3,38.07-183,43.63A45,45,0,0,0,90,216V423.11A499.58,499.58,0,0,0,252.69,791.54l229,208.72a45,45,0,0,0,60.62,0l229-208.72A499.58,499.58,0,0,0,934,423.11V216A45,45,0,0,0,892.85,171.17ZM844,423.11A409.37,409.37,0,0,1,710.68,725L512,906.11,313.32,725A409.37,409.37,0,0,1,180,423.11V256.17a698.57,698.57,0,0,0,168.44-45.42C405.88,187.06,460.76,155,512,115.12c51.24,39.85,106.12,71.94,163.56,95.63A698.57,698.57,0,0,0,844,256.17Z"
    style="fill:#3264c8"
  /><path
    d="M557,296.5a45,45,0,0,0-90,0V432H331.5a45,45,0,0,0,0,90H467V657.5a45,45,0,0,0,90,0V522H692.5a45,45,0,0,0,0-90H557Z"
    style="fill:#3264c8"
  /></svg>
