<svg xmlns="http://www.w3.org/2000/svg" viewBox="0 0 1024 1024"><path d="M323.54,434.6H654.47a241.25,241.25,0,1,0-330.93,0ZM395,236.36a25,25,0,0,1,0-50h44.8L400.65,130.8A25,25,0,1,1,444,105.89l43.72,63.51,43.72-63.51A25,25,0,0,1,574.8,130.8l-39.15,55.56h44.07a25,25,0,0,1,0,50H512.37v38.39h67.35a25,25,0,0,1,0,50H512.37v37.87a25,25,0,0,1-50,0V324.75H395a25,25,0,0,1,0-50h67.36V236.36Zm527.76,266H900.3C877.08,437,834.63,382.5,778.81,341.26a301.17,301.17,0,0,1-93.23,146.06l-8.45,7.28H300.88l-8.45-7.28a301.16,301.16,0,0,1-93.56-147.2C111.11,404.28,55.94,501,55.94,620.84c0,125.54,60.58,225.76,155.74,289.7v50.34A45.29,45.29,0,0,0,257,1006.17H373.41a45.29,45.29,0,0,0,45.13-41.61L419.2,940l137.19.93,1.18,23.66a45.29,45.29,0,0,0,45.13,41.63H719.14a45.29,45.29,0,0,0,45.29-45.29V910.53c62.9-42.26,110.69-100.38,135.86-171.18h22.48a45.29,45.29,0,0,0,45.29-45.29V547.62A45.29,45.29,0,0,0,922.77,502.33ZM710.83,636.39a59.92,59.92,0,1,1,59.92-59.92A59.92,59.92,0,0,1,710.83,636.39Z" style="fill:#00cfcd"/></svg>