<svg xmlns="http://www.w3.org/2000/svg" viewBox="0 0 1024 1024"><path d="M949.07,351.16c0,320.68-335.92,558.7-438.82,558.7-90.91,0-435.32-241-435.32-566.44,0-126.38,95.4-229.28,212.79-229.28,81.42,0,156.85,51.2,191.81,130.63A37.4,37.4,0,0,0,513.25,267c15.23.75,28-8,34.22-21,37-76.68,109.14-124.14,188.81-124.14C853.67,121.88,949.07,224.78,949.07,351.16Z" style="fill:#fff"/><path d="M736.28,47c-87.16,0-167.58,41-221.53,110.15-53.7-73.18-137.37-117.89-227-117.89C129.12,39.21,0,175.58,0,343.42c0,356.9,366.39,641.37,510.25,641.37,148.86,0,513.75-274.23,513.75-633.63C1024,183.58,894.88,47,736.28,47Zm-226,862.91c-90.91,0-435.32-241-435.32-566.44,0-126.38,95.4-229.28,212.79-229.28,81.42,0,156.85,51.2,191.81,130.63A37.4,37.4,0,0,0,513.25,267c15.23.75,28-8,34.22-21,37-76.68,109.14-124.14,188.81-124.14,117.39,0,212.79,102.9,212.79,229.28C949.07,671.84,613.15,909.86,510.25,909.86Z" style="fill:#224d9e"/></svg>