<svg xmlns="http://www.w3.org/2000/svg" viewBox="0 0 1024 1024"><path d="M512,0C229.24,0,0,229.24,0,512s229.24,512,512,512,512-229.21,512-512S794.76,0,512,0Zm-.69,930.86C279.57,930.89,91.7,743.05,91.7,511.31S279.57,91.73,511.31,91.73,930.92,279.57,930.92,511.31,743.05,930.89,511.31,930.89ZM461,461V750.38c0,27.35,23.72,51.07,51.07,51.07s51.07-23.72,51.07-51.07V461c0-27.34-23.72-51.06-51.07-51.06S461,433.66,461,461Zm.22-205.15.19,1.51c0,27.79,22.76,50.32,50.83,50.32s50.83-22.53,50.83-50.32l-.19-1.51c0-27.8-22.76-50.33-50.83-50.33S461.24,228.05,461.24,255.85Z" style="fill:#09f"/></svg>