<svg xmlns="http://www.w3.org/2000/svg" viewBox="0 0 1024 1024"><path
    d="M1024,345V251.71A41.23,41.23,0,0,0,999.36,214L522.74,4.08a41.38,41.38,0,0,0-33.66.17L24.29,214.13A41.22,41.22,0,0,0,0,251.71V345a41.27,41.27,0,0,0,41.29,41.24H57L54.75,825.07H49.41A41.27,41.27,0,0,0,8.12,866.32V982.17a41.27,41.27,0,0,0,41.29,41.24H974.6a41.26,41.26,0,0,0,41.29-41.24V866.32a41.27,41.27,0,0,0-41.29-41.25h-5.35L967,386.24h15.68A41.27,41.27,0,0,0,1024,345ZM933.31,940.92H90.7V907.56H933.31Zm-796-115.85,2.22-438.83H165l-2.22,438.83Zm75,0,2.22-438.83h47.84l-2.22,438.83ZM358.94,546.86l-1.41,278.21H309.7l1.72-339.6A232.18,232.18,0,0,0,358.94,546.86ZM712.6,485.47l1.71,339.6H666.48l-1.41-278.21A232.22,232.22,0,0,0,712.6,485.47Zm-95.67,339.6H407.09l1.22-243.28a222.51,222.51,0,0,0,207.39,0ZM512,541.44c-89.19,0-161.74-74.29-161.74-165.6S422.81,210.23,512,210.23s161.75,74.29,161.75,165.61S601.19,541.44,512,541.44Zm249.65-155.2h47.83l2.22,438.83H763.86Zm97.38,0h25.42l2.22,438.83H861.25Zm82.39-82.49h-213C698.47,211.27,612.85,144.24,512,144.24s-186.46,67-216.36,159.51H82.58V278.32L506.3,87l435.12,191.6Zm-396.92-.27q-23.07,42.81-26.35,51.57c-1.37,3.64-2.52,6.67-3.5,9.09h-1.27Q502.21,339,459.91,260H397.65l71.6,113.74H415.59V408h66.65v26H415.59v34.53h66.65v47.45h58.24V468.44h64.46V433.91H540.48V408h64.46V373.72h-52.2L626.36,260h-59Z"
    style="fill:#3264c8;fill-rule:evenodd"
  /></svg>
