<svg xmlns="http://www.w3.org/2000/svg" viewBox="0 0 1024 1024"><path
    d="M707.05,195.05a73.15,73.15,0,0,0,73.14-73.14V73.14a73.15,73.15,0,0,0-146.29,0v48.77A73.15,73.15,0,0,0,707.05,195.05Zm-390.1,0a73.15,73.15,0,0,0,73.14-73.14V73.14a73.14,73.14,0,0,0-146.28,0v48.77A73.15,73.15,0,0,0,317,195.05ZM829,585.14H195.05v48.77H829Zm0-146.28H292.57v48.76H829ZM682.66,731.43H195.05v48.76H682.66ZM829,48.77v73.14a121.91,121.91,0,0,1-243.81,0V48.77H438.85v73.14a121.9,121.9,0,0,1-243.8,0V48.77c-107.73,0-195,87.32-195,195V829c0,107.71,87.32,195,195.05,195H829c107.72,0,195-87.33,195-195V243.81C1024,136.09,936.67,48.77,829,48.77ZM926.48,829A97.53,97.53,0,0,1,829,926.48H195.05A97.52,97.52,0,0,1,97.52,829V341.33h829Z"
    style="fill:#3264c8"
  /></svg>
