<svg xmlns="http://www.w3.org/2000/svg" viewBox="0 0 1024 1024"><path
    d="M926.41,928H97.63C43.83,928,0,884.91,0,832L0,304a95.56,95.56,0,0,1,96-96H272c15.88-55.77,36.12-112,112-112H624c75.85,0,109,60.48,124.88,116.25L928,208a95.56,95.56,0,0,1,96,96V832C1024,884.91,980.2,928,926.41,928ZM128,304c-11.28,0-32,20.92-32,32V800c0,11.08,20.72,32,32,32H896c11.26,0,32-20.92,32-32V336c0-11.08-20.74-32-32-32l-192.79-.24A38.28,38.28,0,0,1,666,275.19C649.19,209.31,633,192,608,192H400c-25,0-25.2,17.27-42,83.15a38.25,38.25,0,0,1-37.25,28.6ZM512,768c-123.39,0-223.78-104-223.78-231.89S388.61,304.23,512,304.23s223.81,104,223.81,231.9S635.42,768,512,768Zm0-386.62c-82.34,0-149.31,69.41-149.31,154.73s67,154.72,149.31,154.72,149.34-69.41,149.34-154.72S594.34,381.4,512,381.4Z"
    style="fill:#3264c8"
  /></svg>
