<svg xmlns="http://www.w3.org/2000/svg" viewBox="0 0 1024 1024"><path d="M896.5,61.82C771.7-8.19,216.69,272.36,99.86,226.05c.29,1.49,94.77,520,95.62,528.17C370.73,820.74,871.25,482.35,1024,548.92,1024,546,925.72,163.13,896.5,61.82ZM200,293.21S305.59,275.39,377.65,258c68.82-16.63,104.24-32.89,104.24-32.89l5.91,40.35s-34.08,15.93-102.13,32.38c-72.76,17.56-179.78,35.73-179.78,35.73Zm43.46,197.84-5.92-40.36L392,423.64,397.87,464ZM396.66,375.29c-69.9,16.89-171.08,33.65-171.08,33.65l-5.87-40.35S320.78,351.85,390.62,335c71.09-17.18,110.93-34.51,110.93-34.51l5.9,40.35S467.65,358.13,396.66,375.29Zm391,93.3-28.68,7.11-17.27-75.38L664,419.58l-5.19-22.78,77.66-19.26-8.21-36L650.5,360.77,645.29,338l63.33-15.7-103-109.7,31.87-7.9,99.66,107.91,41.32-142.87,31.08-7.7L766,308.07l63.73-15.8L834.91,315l-78,19.36,8.23,36,78.1-19.36,5.18,22.79-78,19.34ZM195.48,754.22h0a.19.19,0,0,0,0,.1A.34.34,0,0,0,195.48,754.22ZM930.05,588C711.63,627,318.9,865.93,165,807.43c-.19-3.6-42.36-235.67-72-398.54-40.69,7.29-73,8.49-93,.55C.28,411.1,100.12,958.76,100.4,964.3c184.09,69.94,710-285.6,870.43-215.65C970.83,747.45,953,677.23,930.05,588Z" style="fill:#09f"/></svg>