<svg xmlns="http://www.w3.org/2000/svg" viewBox="0 0 1024 1024"><path
    d="M988.16,0H227.84A35.78,35.78,0,0,0,192,35.84V384H35.84A35.78,35.78,0,0,0,0,419.84v423a35.78,35.78,0,0,0,35.84,35.84H128v112c0,20.16,16.32,33.28,33.28,33.28a31.51,31.51,0,0,0,23.36-9.92L320,878.72H604.16A35.78,35.78,0,0,0,640,842.88V686.72h64L839.36,822.08A31.51,31.51,0,0,0,862.72,832c17,0,33.28-13.12,33.28-33.28v-112h92.16A35.78,35.78,0,0,0,1024,650.88v-615A35.78,35.78,0,0,0,988.16,0ZM576,814.72H293.44L274.88,833.6,192,916.16V814.72H64V448H192V650.88a35.78,35.78,0,0,0,35.84,35.84H576Zm384-192H832V724.16L749.12,641.6l-18.56-18.88H256V64H960ZM456,352a48,48,0,1,1-48-48A48,48,0,0,1,456,352Zm200,0a48,48,0,1,1-48-48A48,48,0,0,1,656,352Zm200,0a48,48,0,1,1-48-48A48,48,0,0,1,856,352Z"
    style="fill:#3264c8"
  /></svg>
