<svg xmlns="http://www.w3.org/2000/svg" viewBox="0 0 1024 1024"><path d="M905.93,361.13h0a51.32,51.32,0,0,1-48.62,35.28,50.29,50.29,0,0,1-16.58-2.8L731.31,356,882.75,689h-2.09a199.34,199.34,0,0,1,8.9,58.51c0,75.4-41.77,145.72-117.61,198C698.57,996.13,601.42,1024,498.4,1024s-200.18-27.87-273.56-78.47c-75.84-52.3-117.61-122.62-117.61-198a199.34,199.34,0,0,1,8.9-58.51H114.9l8.74-20.66c.66-1.59,1.4-3.28,2.16-5L262,350.09a52.19,52.19,0,0,1-3.36-74.36A50.8,50.8,0,0,1,283.71,261L236.34,152.68c-23.25-53.2.48-115.76,52.91-139.45A101.69,101.69,0,0,1,331.4,4.11a103.25,103.25,0,0,1,64.24,22.45C420.24,10,451.53.63,484.7.05c1,0,2.23,0,3.43,0,42,0,80.93,14.28,106.54,38.66A103,103,0,0,1,712.16,16c52.3,23.87,75.81,86.5,52.41,139.6L731.78,229.9,841.72,172a50.92,50.92,0,0,1,69.39,22.16c12.86,25.27,3,56.48-21.87,69.59l-42.68,22.49,27.31,9.4C900.52,304.79,914.9,334.18,905.93,361.13ZM865.71,187.79h-.21c-.25,0-.5,0-.75,0ZM776.46,632.17,644,340.86,341.14,351.68,219.29,632l-24.93,57.63-.09.22-.11.22c-9.17,19.07-13.82,38.41-13.82,57.48,0,52.1,32.85,102.16,92.49,141,61.23,39.84,141.34,61.78,225.57,61.78S662.74,928.31,724,888.47c59.63-38.8,92.48-88.86,92.48-141,0-19.11-4.65-38.44-13.82-57.48l-.06-.13-.06-.13ZM303.24,122.91,363,259.39l3.22,7.36L639.79,257l58-131.37c7.11-16.14,0-35.16-15.81-42.4a29.69,29.69,0,0,0-12.52-2.77,31.12,31.12,0,0,0-28,17.75l-33.93,69-10.35,21.05-11-20.73-36-67.94c-5.51-10.39-26.62-25.85-62.15-25.85H486c-22.94.43-44.13,7.79-56.73,19.69l-30,28.3-9.2,8.67-8.15-9.66L355.23,89.17a31.27,31.27,0,0,0-23.85-11.31,29.32,29.32,0,0,0-12.24,2.69C303.3,87.72,296.17,106.72,303.24,122.91ZM582.68,687.18A33.34,33.34,0,0,0,616,653.72h0a33.33,33.33,0,0,0-33.28-33.23l-50.09-.1L614,504.17c15-21.38-.33-50.75-26.43-50.75h0a32.27,32.27,0,0,0-27.67,15.67L499.26,570.3,438.6,469.09a32.25,32.25,0,0,0-27.66-15.67h0c-26.1,0-41.39,29.37-26.43,50.75l81.35,116.22-50.17.1a33.34,33.34,0,0,0-33.28,33.31h0a33.35,33.35,0,0,0,33.35,33.38h50.1V715l-50.17.1a33.34,33.34,0,0,0-33.28,33.31h0a33.35,33.35,0,0,0,33.35,33.38h50.1v39a33.35,33.35,0,0,0,33.35,33.35h.1a33.35,33.35,0,0,0,33.34-33.35v-39h50A33.34,33.34,0,0,0,616,748.29h0a33.35,33.35,0,0,0-33.28-33.23l-50.09-.1V687.18Z" style="fill:#09f"/></svg>