<svg xmlns="http://www.w3.org/2000/svg" viewBox="0 0 1024 1024"><path d="M897.72,962H769.14c-30.07,0-64.28-34.21-64.28-64.29V769.14c0-30.07,34.21-64.28,64.28-64.28H897.72c30.07,0,64.28,34.21,64.28,64.28V897.71C962,927.79,927.79,962,897.72,962Zm0-321.43H769.14c-29.95,0-64.28-34.32-64.28-64.28V447.72c0-30,34.33-64.29,64.28-64.29H897.72c29.95,0,64.28,34.33,64.28,64.29V576.29C962,606.25,927.67,640.57,897.72,640.57Zm0-321.43H769.14c-30.07,0-64.28-34.21-64.28-64.28V126.29c0-30.08,34.21-64.29,64.28-64.29H897.72C927.79,62,962,96.21,962,126.29V254.86C962,284.93,927.79,319.14,897.72,319.14ZM576.29,962H447.71c-30.07,0-64.28-34.21-64.28-64.29V769.14c0-30.07,34.21-64.28,64.28-64.28H576.29c30.07,0,64.28,34.21,64.28,64.28V897.71C640.57,927.79,606.36,962,576.29,962Zm0-321.43H447.71c-29.95,0-64.28-34.32-64.28-64.28V447.72c0-30,34.33-64.29,64.28-64.29H576.29c30,0,64.28,34.33,64.28,64.29V576.29C640.57,606.25,606.24,640.57,576.29,640.57Zm0-321.43H447.71c-30.07,0-64.28-34.21-64.28-64.28V126.29c0-30.08,34.21-64.29,64.28-64.29H576.29c30.07,0,64.28,34.21,64.28,64.29V254.86C640.57,284.93,606.36,319.14,576.29,319.14ZM254.86,962H126.28C96.21,962,62,927.79,62,897.71V769.14c0-30.07,34.21-64.28,64.28-64.28H254.86c30.07,0,64.28,34.21,64.28,64.28V897.71C319.14,927.79,284.93,962,254.86,962Zm0-321.43H126.28C96.21,640.57,62,606.36,62,576.29V447.72c0-30.08,34.21-64.29,64.28-64.29H254.86c30.07,0,64.28,34.21,64.28,64.29V576.29C319.14,606.36,284.93,640.57,254.86,640.57Zm0-321.43H126.28C96.33,319.14,62,284.81,62,254.86V126.29C62,96.33,96.33,62,126.28,62H254.86c30,0,64.28,34.33,64.28,64.29V254.86C319.14,284.81,284.82,319.14,254.86,319.14Z" style="fill:#09f;fill-rule:evenodd"/></svg>