<svg xmlns="http://www.w3.org/2000/svg" viewBox="0 0 1024 1024"><path d="M727,47.6c-171.48,0-296.09,64.49-296.94,153.47C389,191,343.55,185.72,297,185.72,124.9,185.72,0,250.65,0,340.11v436c0,89.46,124.9,154.39,297,154.39,64,0,123.8-9.47,173.94-27.45C522.26,948.54,618.61,976.4,727,976.4c172.07,0,297-64.93,297-154.39V202C1024,112.53,899.1,47.6,727,47.6Zm0,223.55c-137.45,0-211.61-49.09-211.61-69.16S589.58,132.82,727,132.82,938.65,181.91,938.65,202,864.49,271.15,727,271.15Zm211.62,520.2V822c0,20.08-74.16,69.17-211.62,69.17-116.58,0-192.15-36.13-208.58-61.78l-.32-.48c-1.75-2.83-2.71-5.27-2.71-6.91V791q8.08,4.15,16.69,7.87l2.9,1.25c52.75,22.15,120.92,34.34,192,34.34C809.83,834.45,884.68,819,938.65,791.35Zm0-111.29c0,20.07-74.16,69.17-211.62,69.17-60.15,0-116.68-9.87-159.18-27.78l-.57-.23c-22.95-9.73-40.33-21.54-48-32.6L518,685.75l-1-.79a11.68,11.68,0,0,1-1.57-4.9V644.77q8.13,4.18,16.78,7.92l.82.63,2.5.79c52.67,22,120.64,34.13,191.51,34.13,82.8,0,157.65-15.46,211.62-43.1Zm0-146.21C938.65,553.92,864.49,603,727,603c-60.15,0-116.68-9.87-159.18-27.78l-.62-.25c-22.64-9.61-39.85-21.23-47.71-32.17l-.65-1.79-1.39-1.38a13.28,13.28,0,0,1-2.06-5.8V480.36q9.29,4.77,19.26,9l3.18,1.34H538c52.29,21.3,119.14,33,188.77,33,83,0,157.95-15.53,211.93-43.28Zm0-168.18a21.12,21.12,0,0,0-.31,3.61c0,20.07-74.16,69.16-211.62,69.16-59.34,0-115.24-9.62-157.61-27.11l-1.3-.55c-19.91-8.36-35.89-18.31-45-28-4.35-4.61-6.95-9-7.38-12.54V313c54,27.82,128.87,43.39,211.61,43.39s157.65-15.47,211.62-43.1ZM430.08,538.2c-39,12.22-85.71,18.88-133.11,18.88C159.5,557.08,85.34,508,85.34,487.92V451.4c54,27.64,128.83,43.11,211.63,43.11,46.76,0,92.25-5.23,133.11-15.22Zm0,146.21c-39,12.22-85.71,18.88-133.11,18.88-137.47,0-211.63-49.09-211.63-69.16V599.2c54,27.64,128.83,43.11,211.63,43.11,46.76,0,92.24-5.23,133.11-15.21Zm0-318.9a21.69,21.69,0,0,0-.34,3.77,42.27,42.27,0,0,0,.34,5.5v15.6c-39,12.23-85.7,18.9-133.11,18.9-137.47,0-211.63-49.09-211.63-69.17S159.5,271,297,271c48,0,94.69,6.47,133.11,18.33Zm.13,461.33C391.65,838.77,345,845.26,297,845.26c-137.47,0-211.63-49.09-211.63-69.17V745.42c54,27.63,128.83,43.1,211.63,43.1,46.76,0,92.24-5.23,133.11-15.21V822C430.08,823.62,430.12,825.23,430.21,826.84Z" style="fill:#09f"/></svg>