<svg xmlns="http://www.w3.org/2000/svg" viewBox="0 0 1024 1024"><path
    d="M917.23,32.21c-131.59,46.86-264.88,23.12-406-2-147-26.16-298.94-53.22-454,2L26,43.33V781.11l1-.36V1024h94V748.67c121.15-32.88,244.16-11,373.76,12.09,84,15,169.68,30.21,256.62,30.21,65.12,0,131-8.56,197.39-32.21L980,747.64V9.86ZM886,680c-121.48,33.28-244.8,11.32-374.76-11.82-84-15-169.68-30.21-256.62-30.21-44.23,0-88.78,4-133.62,13.89V110.67c121.15-32.88,244.16-11,373.76,12.09,84,15,169.68,30.21,256.62,30.21,44.55,0,89.45-4,134.62-14.11Z"
    style="fill:#3264c8"
  /></svg>
