<svg xmlns="http://www.w3.org/2000/svg" viewBox="0 0 1024 1024"><path
    d="M1019.59,497.77l-64.26-94.59,64.26-94.68a25.72,25.72,0,0,0,0-28.8l-74-109.1A24.18,24.18,0,0,0,918.69,161a22,22,0,0,0-5.73-1.19h-850A62.93,62.93,0,0,0,0,222.7V801.3a62.93,62.93,0,0,0,62.94,62.92l850-.07a23.42,23.42,0,0,0,5.26-1.09,24.15,24.15,0,0,0,27.33-9.76l74-108.91a25.76,25.76,0,0,0,0-28.83l-64.26-94.49,64.26-94.5A25.72,25.72,0,0,0,1019.59,497.77ZM857,417.57l64.23,94.59L857,606.68a25.72,25.72,0,0,0,0,28.8L921.22,730l-40.87,35.64-599.78,2a43.75,43.75,0,0,0-87.49.28l-61.66.2a35.26,35.26,0,0,1-35.36-35.24V291.08a35.26,35.26,0,0,1,35.24-35.24h61.77a43.77,43.77,0,0,0,87.53,0H880.54l40.68,38.25L857,388.77A25.72,25.72,0,0,0,857,417.57Zm-170.61-49L608.37,480l48,.09a32,32,0,0,1-.06,63.95h-48v26.64l48,.09a32,32,0,0,1-.06,64h-48v37.44a32,32,0,0,1-32,32h-.1a32,32,0,0,1-32-32V634.7h-48a32,32,0,0,1-32-32h0a32,32,0,0,1,31.91-32l48.11-.09V544h-48a32,32,0,0,1-32-32h0a32,32,0,0,1,31.91-31.95l48.11-.09-78-111.43c-14.35-20.5.31-48.67,25.33-48.67h0a30.92,30.92,0,0,1,26.52,15l58.16,97,58.16-97a30.94,30.94,0,0,1,26.53-15C686.06,319.88,700.72,348.05,686.38,368.55Zm-405.77,58a43.78,43.78,0,1,1-43.78-43.78A43.78,43.78,0,0,1,280.61,426.53Zm0,170.94a43.78,43.78,0,1,1-43.78-43.78A43.78,43.78,0,0,1,280.61,597.47Z"
    style="fill:#3264c8;fill-rule:evenodd"
  /></svg>
