<svg xmlns="http://www.w3.org/2000/svg" viewBox="0 0 1024 1024"><path d="M950,512c0-40.31,33.11-73,74-73V242.52c0-37.21-33.41-50.52-71.11-50.52H65.42C27.72,192,0,205.31,0,242.52V439c40.85,0,74,32.67,74,73S40.85,585,0,585V747.79C0,785,27.72,832,65.42,832H952.89c37.7,0,71.11-47,71.11-84.21V585C983.15,585,950,552.31,950,512ZM236.09,747.79H167.82V680.42h68.27Zm0-134.74H167.82V545.69h68.27Zm0-134.73H167.82V411h68.27Zm0-134.74H167.82V276.21h68.27ZM750.93,495.16v67.37H667.19l-18.66-4.41v38.09h102.4v67.37H648.53V731H580.27V663.58H477.87V596.21h102.4V558.12l-16.95,4.41H480.66l-2.12-67.37h67.83L478.54,360.42h86.92l55.1,161.09,57.23-161.09h84.8L694.75,495.16Z" style="fill:#f06432"/></svg>