<svg xmlns="http://www.w3.org/2000/svg" viewBox="0 0 1024 1024"><path d="M904.69,310h-38.8c-8.7-80.53-44.31-154.11-102.48-210.28C696.82,35.41,607.18,0,511,0S325.18,35.41,258.59,99.72C200.42,155.89,164.81,229.47,156.11,310h-36.8A119.31,119.31,0,0,0,0,429.31V532.69A119.31,119.31,0,0,0,119.31,652h25.06A82.62,82.62,0,0,0,227,569.37V310h-.37c8.31-61.29,36.18-117,80.58-159.92C360.69,98.44,433.06,70,511,70s150.31,28.44,203.79,80.08c45.59,44,73.76,101.63,81.21,164.86V614c0,80.65-26.07,148.86-75.4,197.26-46.18,45.29-109.85,70.54-184.83,73.45a116.49,116.49,0,1,0-1,50c42-1.35,81.39-8.87,117.4-22.45,39.67-15,74.46-36.95,103.42-65.36s51.61-62.88,67-102.1A343.12,343.12,0,0,0,844.21,652h60.48A119.31,119.31,0,0,0,1024,532.69V429.31A119.31,119.31,0,0,0,904.69,310ZM157,569.37A12.64,12.64,0,0,1,144.37,582H119.31A49.37,49.37,0,0,1,70,532.69V429.31A49.37,49.37,0,0,1,119.31,380H157ZM421.5,974A66.5,66.5,0,1,1,488,907.5,66.57,66.57,0,0,1,421.5,974ZM954,532.69A49.37,49.37,0,0,1,904.69,582H866V380h38.69A49.37,49.37,0,0,1,954,429.31ZM512,670.5A168.5,168.5,0,0,1,343.5,502c0,.32,84.25.47,168.5.47s168.5-.15,168.5-.47A168.5,168.5,0,0,1,512,670.5Z" style="fill:#00cfcd"/></svg>
