<svg xmlns="http://www.w3.org/2000/svg" viewBox="0 0 1024 1024"><path d="M567.2,92.91H443.38V186H567.2Zm456,93.09V930.91a93,93,0,0,1-93,93.09H93.71q-3.61,0-7.15-.27c-1.58-.12-3.14-.28-4.69-.48a92.08,92.08,0,0,1-9.15-1.63A93.1,93.1,0,0,1,.79,933.31q0-1.2,0-2.4V186q0-1.2,0-2.4A93.1,93.1,0,0,1,72.72,95.29a92.08,92.08,0,0,1,9.15-1.63c1.55-.2,3.11-.36,4.69-.48q3.54-.27,7.15-.27H177.1V186H134.78a41.09,41.09,0,0,0-41.07,41.13V304H930.29V227.13A41.1,41.1,0,0,0,889.22,186H833.48V92.91h96.81A93,93,0,0,1,1023.24,186Zm-93,211.05H93.71V889.78a41.09,41.09,0,0,0,41.07,41.13H889.22a41.11,41.11,0,0,0,41.07-41.13Zm-229.95-142a73.15,73.15,0,0,0,73.14-73.14V73.14a73.14,73.14,0,0,0-146.28,0V181.91A73.14,73.14,0,0,0,700.34,255.05Zm-390.1,0a73.14,73.14,0,0,0,73.14-73.14V73.14a73.14,73.14,0,1,0-146.28,0V181.91A73.15,73.15,0,0,0,310.24,255.05ZM436.37,739.39,262.84,590,220.76,632.1,451.31,868.55,803.24,516.62,758,471.38Z" style="fill:#09f"/></svg>