<svg xmlns="http://www.w3.org/2000/svg" viewBox="0 0 1024 1024"><path
    d="M664.94,235.56,446.07,17c-36.4-36.34-98.64-10.6-98.64,40.8v155.9a114.88,114.88,0,0,0,115,114.8H592.15a72.74,72.74,0,0,1,72.79,72.68V890a41.11,41.11,0,0,1-41.13,41.07H167.47A41.1,41.1,0,0,1,126.34,890V135.53a41.09,41.09,0,0,1,41.13-41.06h66.92a46.53,46.53,0,0,0,46.43-49.81C279.1,20.12,257.77,1.51,233.13,1.51H126.34a93,93,0,0,0-93.09,93V931.05a93,93,0,0,0,93.09,93h538.6a93,93,0,0,0,93.09-93V372.92a107.14,107.14,0,0,0-31.45-75.81Zm-202.54-.41a21.9,21.9,0,0,1-21.88-21.88V142.39l92.76,92.76ZM897.66.76a93.09,93.09,0,0,0-93.09,93.09V870.31l93.09,152.93,93.09-152.93V93.85A93.09,93.09,0,0,0,897.66.76Zm26.6,850.9-26.6,43.7-26.6-43.7V221.93h53.2Zm0-696.23h-53.2V93.85a26.6,26.6,0,0,1,53.2,0ZM591.79,558.55a46.54,46.54,0,0,1-46.54,46.54H246A46.55,46.55,0,1,1,246,512H545.25A46.55,46.55,0,0,1,591.79,558.55Zm0,166.23a46.54,46.54,0,0,1-46.54,46.54H246a46.55,46.55,0,1,1,0-93.09H545.25A46.55,46.55,0,0,1,591.79,724.78Z"
    style="fill:#3264c8"
  /></svg>
