<svg xmlns="http://www.w3.org/2000/svg" viewBox="0 0 1024 1024"><path
    d="M1023.5,766.75l.5,26c0,47.84-47.5,118.76-95.62,118.76h-46.3v0l-723.68.34v-.39H112.1c-46.81,0-109.86-37.32-111.77-84L0,214.31c.19-46.59,45.83-99.65,91.8-101.8l833.71-.38c39.09.16,82.17,36.89,93.64,72.11a41.7,41.7,0,0,1-3.25,6.08,40.37,40.37,0,0,1,7.6,23.34v38.11h0l.34,515ZM159.76,209.83l360.3,286.66,338.44-287ZM863.9,799.72h0c61.29-1.1,63.84-11,63.84-85.77l0,2.41L928,263.6,558.65,578a42.8,42.8,0,0,1-6.16,7.86,43.31,43.31,0,0,1-24.14,12c-14.22,3.35-45.78-.34-56.87-11.35a42.47,42.47,0,0,1-7.32-10.06l-368-307.38L96.41,740c2.18,36.1,5.87,58.74,47.67,59.71H863.9Zm0,0c-7.78.14,9.87,0,0,0Zm-713.78-.78-6,.78C130.77,799.72,159.73,799.16,150.12,798.94Z"
    style="fill:#00cfcd;fill-rule:evenodd"
  /></svg>
