<svg xmlns="http://www.w3.org/2000/svg" viewBox="0 0 1024 1024"><path
    d="M512,1024c282.76,0,512-229.21,512-512S794.76,0,512,0,0,229.24,0,512,229.24,1024,512,1024Zm.69-930.86C744.43,93.11,932.3,281,932.3,512.69S744.43,932.27,512.69,932.27,93.08,744.43,93.08,512.69,281,93.11,512.69,93.11ZM563,563V273.62c0-27.35-23.72-51.07-51.07-51.07s-51.07,23.72-51.07,51.07V563c0,27.34,23.72,51.06,51.07,51.06S563,590.34,563,563Zm-.22,205.15-.19-1.51c0-27.79-22.76-50.32-50.83-50.32s-50.83,22.53-50.83,50.32l.19,1.51c0,27.8,22.76,50.33,50.83,50.33S562.76,796,562.76,768.15Z"
    style="fill:#00cfcd"
  /></svg>
