<svg xmlns="http://www.w3.org/2000/svg" viewBox="0 0 1024 1024"><path
    d="M1016.93,534.91c12-17.15,8.34-41.36-8.23-54l-.12-.09A37,37,0,0,0,980.67,474a37.72,37.72,0,0,0-24.92,15.42l-.07.08A485,485,0,0,1,838.62,606.38l-.09.06a403.52,403.52,0,0,1-47.92,30l-.27.14a532.39,532.39,0,0,1-103.79,44.62c-10.09,3.11-20.59,6-31.2,8.51l-.14,0a589.86,589.86,0,0,1-286.43,0l-.14,0c-10.63-2.54-21.13-5.4-31.24-8.52a512.91,512.91,0,0,1-103.48-44.32l-.26-.14A438,438,0,0,1,185.93,607C139.41,574,99.85,534.5,68.34,489.49l-.09-.12A37.85,37.85,0,0,0,43.3,474a37.12,37.12,0,0,0-27.88,6.9l-.12.09c-16.57,12.61-20.26,36.82-8.22,54A561.19,561.19,0,0,0,125.33,657.83L66.61,718.76a39.82,39.82,0,0,0,0,54.71l.19.19a37.38,37.38,0,0,0,53.39,0l70.14-72.77a604,604,0,0,0,98.25,45.38L227.23,873.58c-9.23,19.12-1.82,42.28,16.51,51.72a35.35,35.35,0,0,0,17.16,4.32,37,37,0,0,0,33.68-21.5l67.7-140.2a626.69,626.69,0,0,0,112,15.69V906.5c0,21.37,16.92,38.76,37.72,38.76s37.7-17.39,37.7-38.76V783.61A627.24,627.24,0,0,0,661.6,768c7.06,15.15,15.43,32.62,26,54.21,9.22,19.51,18.41,38.7,27.29,57.26,5,10.41,9.78,20.42,14.23,29.78a37.61,37.61,0,0,0,34,22.16,40.13,40.13,0,0,0,16.26-3.74l.6-.29a39.53,39.53,0,0,0,17.1-51.65c-13.29-28.22-28.26-59.48-42.13-88-5.57-11.95-11.28-23.94-16.81-35.53l-2.78-5.82a592.43,592.43,0,0,0,104.14-49l95.28,78.87a36.18,36.18,0,0,0,23.62,8.68,37.18,37.18,0,0,0,29.49-14.76,38.93,38.93,0,0,0-6-54.18l-76.43-63.34A553,553,0,0,0,1016.93,534.91Z"
    style="fill:#3264c8"
  /></svg>
