<svg xmlns="http://www.w3.org/2000/svg" viewBox="0 0 1024 1024"><path d="M333.78,468.3A180.55,180.55,0,0,1,483.36,318.72l89-89A487.09,487.09,0,0,0,512,225.88C208.56,225.88,0,512,0,512s53.22,72.93,144.92,145.16Z" style="fill:#09f"/><path d="M862,353.78,690.22,525.6A180.54,180.54,0,0,1,540.66,675.16L425.51,790.31A491.54,491.54,0,0,0,512,798.12c303.44,0,512-286.12,512-286.12S964.16,430,862,353.78Z" style="fill:#09f"/><rect x="27.37" y="438.86" width="969.27" height="146.27" transform="translate(-212.08 512) rotate(-45)" style="fill:#09f"/></svg>