<svg xmlns="http://www.w3.org/2000/svg" viewBox="0 0 1024 1024"><path
    d="M512,279.9a232.1,232.1,0,1,0,164.1,68A230.59,230.59,0,0,0,512,279.9Zm-9.77,148.72A93,93,0,0,0,667.1,487.81,157.48,157.48,0,0,1,669,512c0,86.55-70.42,157-157,157S355,598.55,355,512s70.42-157,157-157a157.57,157.57,0,0,1,24.19,1.87A93.12,93.12,0,0,0,502.23,428.62Zm518.11,77.93c-.56-.84-57.68-85.29-148-168.48-53.19-49-107.4-88-161.1-116.11-67.6-35.31-134.63-53.22-199.24-53.22S380.36,186.65,312.76,222C259.05,250,204.85,289.08,151.66,338.07,61.34,421.26,4.22,505.71,3.66,506.55L0,512l3.66,5.44c.56.85,57.68,85.3,148,168.49,53.19,49,107.39,88.05,161.1,116.11,67.6,35.31,134.63,53.22,199.24,53.22S643.64,837.35,711.24,802c53.7-28.06,107.91-67.12,161.1-116.11,90.32-83.19,147.44-167.64,148-168.49L1024,512ZM930.79,512c-29.89,37.88-86.57,104-158.45,160.66C681.93,744,594.34,780.13,512,780.13S342.05,744,251.63,672.65C179.76,616,123.07,549.88,93.19,512c29.88-37.88,86.56-104,158.45-160.67C342.06,280,429.66,243.86,512,243.86S681.94,280,772.35,351.34C844.22,408,900.91,474.12,930.79,512Z"
    style="fill:#3264c8"
  /></svg>
