<svg xmlns="http://www.w3.org/2000/svg" viewBox="0 0 1024 1024"><path d="M302.25,298.36a70.07,70.07,0,1,0,70.07,70.06A70.06,70.06,0,0,0,302.25,298.36ZM722.66,438.49a70.07,70.07,0,1,0-70.07-70.07A70.07,70.07,0,0,0,722.66,438.49Zm-44,265.14A35,35,0,0,0,629.18,701a173.74,173.74,0,0,1-232.94,0,35,35,0,0,0-47.05,51.83l-.28.31a244.22,244.22,0,0,0,163.55,62.8h.5a244.22,244.22,0,0,0,163.55-62.8l-.28-.31A35,35,0,0,0,678.66,703.63ZM477.42,602.92h4.18a34.76,34.76,0,0,0,61.71,0h4.18a35,35,0,0,0,0-70.07V493.22a35,35,0,1,0-70.07,0v39.63a35,35,0,0,0,0,70.07Z" style="fill:#09f"/><path d="M71,337.66c2.77-27.74,6.17-55.43,10.36-83.05A206.26,206.26,0,0,1,254.44,81.36Q295.79,75.1,337.64,71a35.57,35.57,0,0,0,32.25-35.31v0c0-20.92-18-37.58-38.82-35.49Q287.42,4.54,244,11.08A277.12,277.12,0,0,0,11.08,244Q4.51,287.4.18,331.07c-2.09,20.82,14.56,38.82,35.49,38.82h0A35.56,35.56,0,0,0,71,337.66ZM686.36,71c27.86,2.78,55.62,6.18,83.2,10.36a206.26,206.26,0,0,1,173.1,173.25c4.19,27.62,7.59,55.31,10.36,83.05a35.56,35.56,0,0,0,35.31,32.23h0c20.93,0,37.58-18,35.49-38.82q-4.37-43.65-10.9-87.1A277.11,277.11,0,0,0,780,11.08Q736.62,4.51,692.93.18c-20.82-2.09-38.82,14.57-38.82,35.49v0A35.57,35.57,0,0,0,686.36,71ZM337.64,953q-41.79-4.17-83.21-10.36A206.26,206.26,0,0,1,81.34,769.4c-4.19-27.63-7.59-55.32-10.36-83a35.56,35.56,0,0,0-35.31-32.24h0c-20.93,0-37.58,18-35.49,38.82q4.36,43.65,10.9,87.1A277.11,277.11,0,0,0,244,1012.92q43.44,6.57,87.11,10.9c20.82,2.09,38.82-14.56,38.82-35.49v0A35.57,35.57,0,0,0,337.64,953ZM953,686.35c-2.77,27.73-6.17,55.42-10.36,83A206.26,206.26,0,0,1,769.57,942.64c-27.58,4.18-55.35,7.58-83.21,10.36a35.57,35.57,0,0,0-32.25,35.31v0c0,20.93,18,37.58,38.82,35.49q43.65-4.37,87.1-10.9A277.11,277.11,0,0,0,1012.92,780q6.57-43.42,10.9-87.1c2.09-20.82-14.57-38.82-35.49-38.82h0A35.56,35.56,0,0,0,953,686.35Z" style="fill:#8fcdff"/></svg>