<svg xmlns="http://www.w3.org/2000/svg" viewBox="0 0 1024 1024"><path
    d="M1023.69,53.88c0-.92.13-1.83.13-2.77A51.09,51.09,0,0,0,972.74,0L51.15.46A51.11,51.11,0,0,0,.06,51.58a52.23,52.23,0,0,0,1.11,10.7A50.84,50.84,0,0,0,10.86,89L319.68,507.41a54,54,0,0,1,10.55,32.05V969.14c0,29.45,24.08,54.85,53.53,54.86,28.22,0,45.53-21.45,45.53-49.68,0,0-.15-403.28,0-494.12a54,54,0,0,0-10.51-32.06L161.85,99.25H862.93L605.11,448a54,54,0,0,0-10.57,32.25c.32,90.94-.14,494.07-.14,494.07,0,28.42,21.62,49.82,50.12,49.53,27.29-.29,49-23.22,49-50.5V530.16a54,54,0,0,1,11-32.61L1014.13,89A50.85,50.85,0,0,0,1023.69,53.88Z"
    style="fill:#3264c8;fill-rule:evenodd"
  /></svg>
