<svg xmlns="http://www.w3.org/2000/svg" viewBox="0 0 1024 1024"><path d="M1024,942.53A21.43,21.43,0,0,1,1002.57,964H0V942.53H85.71V835.39H0V814H85.71V664H0V642.53H85.71V535.39H0V514H85.71V385.39H0V364H85.71V235.39H0V214H85.71V81.47a21.43,21.43,0,1,1,42.86,0V921.1h874A21.43,21.43,0,0,1,1024,942.53ZM398.07,674a53,53,0,0,0-52.94-53H295.44a53,53,0,0,0-52.93,53V901H398.07ZM658.41,440.42a54,54,0,0,0-53.92-53.92H556.76a54,54,0,0,0-53.92,53.92V900H658.41ZM918.74,219.77a54,54,0,0,0-53.94-53.94H817.11a54,54,0,0,0-53.94,53.94V899.94H918.74Z" style="fill:#00cfcd"/></svg>
