<svg xmlns="http://www.w3.org/2000/svg" viewBox="0 0 1024 1024"><path d="M506.21,1023.89a34.83,34.83,0,0,1-7.2-.76,35.31,35.31,0,0,1-27-41.81c.5-2.4,49.31-242.78.72-406.31a35.37,35.37,0,0,1,23.4-44,34.86,34.86,0,0,1,43.49,23.65c53.74,180.92,2.93,430.61.73,441.15A35,35,0,0,1,506.21,1023.89Zm162.91-23.54a35.87,35.87,0,0,1-4.37-.28,35.22,35.22,0,0,1-30.3-39.41c.09-.88,10.86-88.65,16.79-186.33a34.91,34.91,0,1,1,69.68,4.3c-6.07,100-17.09,189.89-17.2,190.78A35.06,35.06,0,0,1,669.12,1000.35Zm-325.82,0a34.74,34.74,0,0,1-8.68-1.11,35.35,35.35,0,0,1-25.17-42.94C310,954.23,361.07,748,321.2,597.54c-27.06-102-.85-166.6,25.9-202.83,34.4-46.6,92-75.39,154-77,103.84-3.16,181.69,76,213.68,215.65,5.79,25.48,9.16,59.84,10,102.15a35.13,35.13,0,0,1-34.23,36c-19.13.85-35.21-15.11-35.59-34.62-.68-36.91-3.51-67.2-8.17-87.6-17.09-74.65-56-163-143.86-161-40.77,1.07-78.09,19.27-99.8,48.67C378,471,373,520.16,388.62,579.24c44.68,168.48-9.2,385.4-11.53,394.55A35,35,0,0,1,343.3,1000.35Zm488.75-94.17a32.82,32.82,0,0,1-3.43-.17,35.18,35.18,0,0,1-31.37-38.55c.18-1.85,17.56-187.18,0-345.77C781.72,380,672.41,229.85,516.45,223.72a35.31,35.31,0,0,1,2.72-70.57C669,159,841.8,287.46,866.69,513.86c18.34,166.06.79,352.58,0,360.43A35,35,0,0,1,832.05,906.18Zm-651.66,0a35,35,0,0,1-34.22-42.42c.31-1.53,30.66-154.29,11.16-318.23-29.24-163,54.1-308.24,212.64-367.83a34.78,34.78,0,0,1,44.88,20.81,35.43,35.43,0,0,1-20.56,45.4C294.62,281.36,198.16,377.52,226.35,535c21.22,177.84-10.46,336.32-11.8,343A35,35,0,0,1,180.39,906.18Zm13.49-709.73a34.67,34.67,0,0,1-26-11.72,35.62,35.62,0,0,1,2.66-49.87C266.26,48,389.59.11,517.81.11c118,0,228.13,39.55,318.61,114.38a35.61,35.61,0,0,1,4.92,49.69,34.66,34.66,0,0,1-49.14,5c-77.85-64.39-172.73-98.43-274.39-98.43-111,0-217.74,41.44-300.64,116.68A34.5,34.5,0,0,1,193.88,196.45ZM52.35,670.79a35,35,0,0,1-33.48-25.36C6.35,602.32,0,559.38,0,517.77A514.41,514.41,0,0,1,75,250.69a34.67,34.67,0,0,1,48-11.59,35.53,35.53,0,0,1,11.47,48.58A443,443,0,0,0,69.81,517.77c0,34.86,5.4,71.12,16,107.75a35.35,35.35,0,0,1-23.66,43.83A34.68,34.68,0,0,1,52.35,670.79ZM989.09,553.31A35.11,35.11,0,0,1,954.17,518c0-91.24-26.1-178.59-75.48-252.61a35.56,35.56,0,0,1,9.42-49,34.62,34.62,0,0,1,48.44,9.52C993.77,311.62,1024,412.63,1024,518A35.1,35.1,0,0,1,989.09,553.31Z" style="fill:#09f"/></svg>