<svg xmlns="http://www.w3.org/2000/svg" viewBox="0 0 1024 1024"><path d="M109.71,0H914.28C964.78,0,1024,59.22,1024,109.72V914.29c0,50.49-59.22,109.71-109.72,109.71H109.71C59.22,1024,0,964.78,0,914.29V109.72C0,59.22,59.22,0,109.71,0ZM779.38,909.31,820,855.15q-40.61-30.45-94.77-60.92l155.7-176V560.69H583.08Q600,509.92,613.53,452.38H918.15V398.23H630.46q3.33-27.06,16.92-77.85,6.75-20.29,10.15-33.84H887.69V232.39H671.07q10.17-60.93,20.31-101.55c2.22-11.26,4.5-19.14,6.77-23.69H637.23q-13.56,57.6-30.46,125.24H495.07v54.15h98.16a1143.71,1143.71,0,0,1-27.08,111.69H454.46v54.15h98.15q-6.81,17-16.92,50.77-10.16,37.29-16.92,54.16v57.53H799.69L674.46,760.38Q603.39,713,539.08,675.77l-37.24,50.77Q684.62,834.9,779.38,909.31ZM109.23,760.38q44-6.74,179.38-27.07V905.92h60.93V726.54q67.66-13.49,121.84-20.31a98.36,98.36,0,0,1,3.39-23.69c2.22-15.76,3.38-27.08,3.38-33.85Q417.24,655.52,349.54,669V557.31H461.23V499.77H349.54V337.31H288.61V499.77H190.46q27-64.26,81.23-213.23H461.23V232.39H292q20.31-60.93,37.23-118.47l-60.92-13.54q-6.82,20.31-16.93,64.31-13.56,44-20.31,67.7H112.61v54.15h98.16q-54.18,159.12-88,213.23v57.54H288.61V675.77q-37.28,6.83-104.92,13.54-60.93,6.81-81.23,10.15Z" style="fill:#09f;fill-rule:evenodd"/></svg>