<svg xmlns="http://www.w3.org/2000/svg" viewBox="0 0 1024 1024"><path
    d="M963.05,937.19c-23.22,0-42.47-33.43-42.47-56.63h0c-6.85,2.25-.09,1.16,0,0C918,765.81,855.85,665.18,758.05,618.76c-3.74-5.33-7.8-10.41-11.77-15.56a57.85,57.85,0,0,1-72.06-56.6l-.54-5.42A58.59,58.59,0,0,1,675,529.1c-.91-.75-1.75-1.58-2.66-2.33l4.91-4.9a58.21,58.21,0,0,1,35.56-35.53l2.12-2.11c50.42-29.08,92.45-79.23,92.45-141.59,0-78.45-61.76-148.28-134.43-167-1.5-2.69-5.56-.21-7.13-2.85-5.28,2.57-9-.73-15.25-.73a39.93,39.93,0,0,1-39.95-39.91l-.37-3.71a39.85,39.85,0,0,1,38.11-39.73l1.88-1.88C781.41,96.44,892.27,209.1,892.27,342.64c0,79.77-44.55,147.05-102.25,193.47.14,1.69.51,3.32.51,5.06C917.65,600.31,1016.46,732,1019.68,880.56c.25,1.89,9.59,4.21,0,0v14.16C1015.56,915.86,986.27,937.19,963.05,937.19Zm-428.83-398c129.31,58.29,227.4,191.24,230.65,341.39.26,1.89,6.86.09,0,0h0c0,23.2-19.25,56.63-42.47,56.63s-56.62-19.27-56.62-42.47V880.56c0-1,8.38-.75,1-1-3.55-151.94-106.13-270-255.81-282.1-8,.75-20.16,0-28.31,0s-20.36.75-28.31,0c-151.79,12.29-269,142.45-269,297.27,0,0-1.54-9.62-1.54-9.57l1.54,9.57V880.56c0,23.2-19.25,56.63-42.47,56.63A42.79,42.79,0,0,1,.45,894.72h0c0-3.53,3.53-15.07-.45-23.14C4.94,723.09,95.33,596.42,223.72,538.85c-59.57-46.34-95.86-114.94-95.86-196.21,0-139.87,114.8-254.8,254.8-254.8s254.81,114.93,254.81,254.8C637.47,424.1,594,492.85,534.22,539.17ZM382.66,172.77c-93.13,0-169.87,76.83-169.87,169.87s76.74,155.72,169.87,155.72,169.87-62.68,169.87-155.72S475.79,172.77,382.66,172.77Z"
    style="fill:#3264c8;fill-rule:evenodd"
  /></svg>
