<svg xmlns="http://www.w3.org/2000/svg" viewBox="0 0 1024 1024"><path d="M512,0A128,128,0,1,1,384,128,128,128,0,0,1,512,0Zm0,384A128,128,0,1,1,384,512,128,128,0,0,1,512,384Zm0,384A128,128,0,1,1,384,896,128,128,0,0,1,512,768Zm384,0A128,128,0,1,1,768,896,128,128,0,0,1,896,768Zm-768,0A128,128,0,1,1,0,896,128,128,0,0,1,128,768Z" style="fill:#09f;fill-rule:evenodd"/><path d="M896,0A128,128,0,1,1,768,128,128,128,0,0,1,896,0ZM128,0A128,128,0,1,1,0,128,128,128,0,0,1,128,0Zm0,384A128,128,0,1,1,0,512,128,128,0,0,1,128,384Zm768,0A128,128,0,1,1,768,512,128,128,0,0,1,896,384Z" style="fill:#8fcdff;fill-rule:evenodd"/></svg>