<svg xmlns="http://www.w3.org/2000/svg" viewBox="0 0 1024 1024"><path d="M636.32,126.55c-21.79-17.7-23.78-50.51-4.69-71.09a173.12,173.12,0,0,1,259.43,6.17c13.21,15.69,14.2,39,.84,54.6-25.89,30.21-90.35,45.92-133.29,45.92C720.21,162.15,666.08,150.74,636.32,126.55ZM764.76,379.79c.27.32.43.68.7,1,51.39-19.31,96.44-34.87,135.64-34.87h0c3.62,0,7.06.26,10.49.51C979.52,296.81,1024,215.22,1024,122.75c0-79.32-32.64-79.5-84.81-61.72,10,28,5.14,59.6-14.9,83-41.23,48.11-126.41,60.82-165.68,60.82-46.61,0-110.81-14-149.19-45.15a90.09,90.09,0,0,1-29.13-97.85c-53.48-18.52-87.09-19.5-87.09,60.93a280.07,280.07,0,0,0,32,130.47A360.43,360.43,0,0,1,764.76,379.79ZM488.4,592.26c79,0,197.63-28.91,245.29-84.5,24.57-28.67,22.77-71.6-1.55-100.47a318.58,318.58,0,0,0-477.41-11.37c-35.13,37.88-31.47,98.25,8.64,130.84C318.13,571.26,417.75,592.26,488.4,592.26Zm488.39-72.51c0,278.56-218.68,504.25-488.35,504.25S0,798.31,0,519.75c0-164.16,76-144.12,193.65-100a131.6,131.6,0,0,0,42.81,140.15C300.28,611.72,409,634.93,488.4,634.93c77.36,0,215.15-26.47,277.7-99.4,27.7-32.32,34.42-77.49,20.56-117.12C902.33,375.24,976.79,357.22,976.79,519.75ZM816.64,729.13a21.49,21.49,0,0,0-25.86,15.52c-.19.79-20.48,78-96.74,110.23a21.33,21.33,0,0,0,8.31,41,21.11,21.11,0,0,0,8.28-1.69c96.48-40.71,120.61-135.31,121.57-139.31A21.28,21.28,0,0,0,816.64,729.13Z" style="fill:#ffaa1e"/></svg>