<svg xmlns="http://www.w3.org/2000/svg" viewBox="0 0 1024 1024"><path
    d="M1015.09,476.82,751.08,756a35.45,35.45,0,0,1-26.49,11.9l-212.67-.65V975.16c0,19.57-28.4,48-48,48H352c-19.58,0-48-28.4-48-48V767.27l-268.6.65A35.41,35.41,0,0,1,0,732.5V165.94c0-19.56,12.59-38.34,32.17-38.34H304V47.65c0-19.57,28.39-48,48-48H463.94c19.58,0,48,28.41,48,48V127.6H719.8c10.31,0,24.88,7.43,31.6,15.21l264,287.36A35.43,35.43,0,0,1,1015.09,476.82ZM368,959.17h80V767.27H368ZM448,63.64H368v64l79.49,2.94ZM703.81,223.55H96.14V671.32H703.81L909.51,453Zm-64,351.82H208.07c-19.58,0-32-12.41-32-32s12.4-32,32-32l433-.55c19.59,0,30.74,13,30.74,32.53S659.43,575.37,639.85,575.37Zm0-191.9H208.07c-19.57,0-32-12.42-32-32s12.41-32,32-32H639.85c19.58,0,32,12.41,32,32S659.43,383.47,639.85,383.47Z"
    style="fill:#3264c8;fill-rule:evenodd"
  /></svg>
