<svg xmlns="http://www.w3.org/2000/svg" viewBox="0 0 1024 1024"><path
    d="M512,1024A510.64,510.64,0,0,1,116.94,837.68a42.67,42.67,0,0,1,65.81-54.32A425.59,425.59,0,0,0,512,938.64c235.26,0,426.67-191.39,426.67-426.64S747.26,85.36,512,85.36,85.33,276.75,85.33,512A42.67,42.67,0,1,1,0,512C0,229.7,229.68,0,512,0s512,229.67,512,512S794.32,1024,512,1024ZM781.3,611.74a46.55,46.55,0,0,0-46.55-46.55H525.3V279.27a46.55,46.55,0,0,0-93.09,0V611.74a46.55,46.55,0,0,0,46.54,46.55h256A46.55,46.55,0,0,0,781.3,611.74Z"
    style="fill:#3264c8"
  /></svg>
