<svg xmlns="http://www.w3.org/2000/svg" viewBox="0 0 1024 1024"><path d="M897.44,130.88H126.56A126.7,126.7,0,0,0,0,257.44V766.56A126.7,126.7,0,0,0,126.56,893.12H897.44A126.7,126.7,0,0,0,1024,766.56V257.44A126.7,126.7,0,0,0,897.44,130.88Zm46,635.68a46.07,46.07,0,0,1-46,46H126.56a46.07,46.07,0,0,1-46-46V257.44a46.07,46.07,0,0,1,46-46H897.44a46.07,46.07,0,0,1,46,46ZM433,545.18c37-25.3,61.43-66.81,61.43-115C494.46,352.66,430.78,289,353.2,289S211.94,352.66,211.94,430.22c0,48.17,25.68,89.7,62.66,115-63,27.1-112.11,82.54-122.14,152.66-.91,2.29,0,4.82,0,7.44v7.43c0,11.06,11.24,22.31,22.31,22.31s22.3-11.25,22.3-22.31c9.5-77.59,76.55-138.74,156.13-141.26-.85,0-.28-.41.3-.87-.29-.46-.57-.92.29-.92s.29.46-.29.92c.28.46.55.9-.3.87,79.59,2.51,146.63,63.67,156.13,141.26,0,11.06,11.25,22.31,22.31,22.31s22.3-11.25,22.3-22.31v-7.43c0-1.92.5-5.69,0-7.44C544.48,626.88,496.62,572.52,433,545.18ZM353.2,526.87c-55.41,0-96.65-41.26-96.65-96.65s41.24-96.66,96.65-96.66,96.65,41.26,96.65,96.66S408.62,526.87,353.2,526.87Zm530.25-143a28.76,28.76,0,0,1-28.76,28.76H653.34a28.77,28.77,0,1,1,0-57.53H854.69A28.77,28.77,0,0,1,883.45,383.88Zm0,126.56a28.76,28.76,0,0,1-28.76,28.76H653.34a28.77,28.77,0,1,1,0-57.53H854.69A28.77,28.77,0,0,1,883.45,510.44Zm0,126.56a28.76,28.76,0,0,1-28.76,28.76H653.34a28.76,28.76,0,1,1,0-57.52H854.69A28.76,28.76,0,0,1,883.45,637Z" style="fill:#09f"/></svg>