<svg xmlns="http://www.w3.org/2000/svg" viewBox="0 0 1024 1024"><path
    d="M460.41,717.42,305,561.22,747.66,121.63l155.43,156.2ZM1024,156.33,868.54.13,782.21,86.91l155.43,156.2ZM184.1,838.14l86.34-242.23,155.45,156.2ZM784,515.66,782.68,854.1c0,56.16-30.12,73.75-85.06,73.75H166.11c-55,0-70.08-16.11-70.08-71.54l.11-534.66c0-55.32,14-65.62,68.49-65.62H493.86L559.73,160H132.63C41.71,160,0,197.31,0,289.65V904.31c0,92.53,58.37,119.56,150.11,119.56H713.62c91.74,0,164.59-44,164.59-137.77l1.52-438.2Z"
    style="fill:#3264c8"
  /></svg>
