<svg xmlns="http://www.w3.org/2000/svg" viewBox="0 0 1024 1024"><path
    d="M307,536.07a23.51,23.51,0,0,1-18.37-8.76L204,422.32a23.2,23.2,0,0,1,3.68-32.79,23.61,23.61,0,0,1,33,3.65l84.64,105A23.2,23.2,0,0,1,321.63,531,23.52,23.52,0,0,1,307,536.07Zm153-47.72a23.31,23.31,0,0,0,15.45-29.22l-66.08-210a23.6,23.6,0,0,0-29.45-15.32,23.3,23.3,0,0,0-15.44,29.22l66.08,210A23.54,23.54,0,0,0,460,488.35Zm279.38,39,84.64-105a23.21,23.21,0,0,0-3.67-32.79,23.62,23.62,0,0,0-33,3.65l-84.64,105A23.19,23.19,0,0,0,706.3,531a23.63,23.63,0,0,0,33-3.65ZM597.41,473l66.08-210a23.3,23.3,0,0,0-15.44-29.22,23.53,23.53,0,0,0-29.45,15.32l-66.07,210A23.3,23.3,0,0,0,568,488.35,23.54,23.54,0,0,0,597.41,473ZM796.92,961.27a98.35,98.35,0,0,0-24.37-109l-16.89-15.8a21.18,21.18,0,0,1-2.6-28l228.61-310.8c34.62-47.07,35-110.21.86-157.1-7.22-9.91-15-19.44-22.7-28.75-10.61-12.89-20.63-25.05-26.77-36.05-8.06-14.42-14.3-31.84-20.91-50.28-13.61-38-29-81-66.42-107.07C809.69,93.32,766.28,91,728,88.93c-21.27-1.14-41.37-2.22-55.37-7.06C642,71.29,628.79,58,614.8,43.83,593.8,22.65,569.92-1.23,510,.05c-59,1.38-82.45,27.06-101.26,47.68C395.48,62.22,383,75.91,352.76,87.22c-13.87,5.21-34.19,6.52-55.7,7.9-37.31,2.4-79.6,5.13-114.78,29.33-37,25.46-53,67.28-67.16,104.18-7,18.32-13.65,35.62-22,49.41-6.61,10.89-16.91,22.69-27.81,35.19C58,321.63,50.54,330.17,43.59,339c-36.23,46.16-36.83,112-.5,161.36L305,826.47a173,173,0,0,0,255.7,15L599.85,803a36.07,36.07,0,0,0,.27-51.29,36.74,36.74,0,0,0-51.68-.27l-39.18,38.46a99.59,99.59,0,0,1-147.13-8.62L101.2,456.4c-16.26-22.11-16.23-52,0-72.8,6.18-7.86,12.8-15.44,19.31-22.9,12.44-14.25,25.28-29,35.13-45.19,11.78-19.38,19.91-40.59,27.76-61.11,11.37-29.66,22.1-57.69,40.48-70.33s47.34-14.6,77.87-16.57c25.91-1.66,52.7-3.39,76.77-12.41,46.75-17.49,68.47-41.3,84.32-58.67,15.41-16.89,21.17-23.2,48.8-23.85,28.09-.74,34.54,5.55,51,22.12s39.17,39.54,85.9,55.69c23.77,8.21,50,9.63,75.47,11,31.26,1.69,60.78,3.27,79.69,16.44,18.31,12.76,28.62,41.52,39.53,72,7.32,20.4,14.88,41.5,25.87,61.16,9.31,16.68,21.91,32,34.08,46.76,6.76,8.21,13.69,16.58,20,25.32,15.52,21.35,15.27,50.24-.66,71.87L694,765.72a93.46,93.46,0,0,0,11.51,123.51L722.4,905c12.4,11.61,8.18,25.49,6.58,29.46s-8.1,17-25.16,17H318.9c-17.06,0-23.58-13-25.16-17s-5.82-17.85,6.58-29.46a36.06,36.06,0,0,0,1.51-51.26,36.72,36.72,0,0,0-51.66-1.51,98.35,98.35,0,0,0-24.37,109A99.64,99.64,0,0,0,318.9,1024H703.82A99.65,99.65,0,0,0,796.92,961.27Z"
    style="fill:#3264c8"
  /></svg>
