<svg xmlns="http://www.w3.org/2000/svg" viewBox="0 0 1024 1024"><path
    d="M813.2,187H427.27v.21c-3.62.11-31.13-.31-49.15,5a88.6,88.6,0,0,0-34.57,19.56L86.46,468.9a60.93,60.93,0,0,0,0,86.18l257.09,257.1a103.12,103.12,0,0,0,34.3,19c15.83,5.1,45.26,4.87,49.42,4.81v-.29L813.2,837A142.19,142.19,0,0,0,955.39,694.81V329.18A142.17,142.17,0,0,0,813.2,187ZM741.61,676.91,609.45,544.75,477.91,676.28l-33.15-33.17L576.28,511.58,452.91,388.21l33.82-33.8L609,478.86,733.44,354.41l33.17,33.17L641.87,512.32l131,133.33Z"
    style="fill:#3264c8;fill-rule:evenodd"
  /></svg>
