<svg xmlns="http://www.w3.org/2000/svg" viewBox="0 0 1024 1024"><path d="M512.21,247.58c49.6,49.43,152,151.9,229.58,229.55L817,552.33H641.86V766.18c0,2.24,0,4.18-.07,5.85l0,.65v.65a66.77,66.77,0,0,1-.78,9.36,10.11,10.11,0,0,1-.77,2.33,4.58,4.58,0,0,1-.78,1,7.92,7.92,0,0,1-1.57,1.19,14.31,14.31,0,0,1-2.69.87,74.59,74.59,0,0,1-9.19.76c-1.75,0-3.3,0-4.69.08-1,0-1.94,0-2.61,0H405.42c-.71,0-1.63,0-2.69,0-1.36,0-2.9-.07-4.62-.08a74.59,74.59,0,0,1-9.19-.76,14.84,14.84,0,0,1-2.67-.86,8.9,8.9,0,0,1-1.59-1.21,4.69,4.69,0,0,1-.76-1,10.37,10.37,0,0,1-.78-2.36,66.28,66.28,0,0,1-.78-9.12c0-1.65,0-3.14-.07-4.47,0-1.11,0-2.07,0-2.9V552.33h-176l72-71.76c79.5-79.22,184.82-184.17,233.92-233m.22-60.58H512a27.48,27.48,0,0,0-16.71,9.74C438.09,253.47,164.79,526,147.41,543.2c-20.46,20.4,1.39,57.13,18.42,57.13h168.4V766.18c0,2.63.11,5.14.11,7.77a113.41,113.41,0,0,0,1.47,16.85,58.09,58.09,0,0,0,5.27,15.92A52.26,52.26,0,0,0,351,820.28a56.61,56.61,0,0,0,13.67,9.88,62.23,62.23,0,0,0,16.06,5.26,120.93,120.93,0,0,0,16.89,1.45c2.59,0,5.13.13,7.77.13H618.68c2.57,0,5.13-.13,7.76-.13a120.93,120.93,0,0,0,16.89-1.45,62.3,62.3,0,0,0,16.07-5.26,56.47,56.47,0,0,0,13.68-9.88A52.66,52.66,0,0,0,683,806.72a58.43,58.43,0,0,0,5.27-15.92A116.14,116.14,0,0,0,689.76,774c.1-2.63.1-5.14.1-7.77V600.33H855.64c23.43,0,40.57-36.73,20.1-57.13-17.4-17.25-291.63-292-348.83-348.7a19.82,19.82,0,0,0-14.48-7.5Z" style="fill:#09f"/></svg>