<svg xmlns="http://www.w3.org/2000/svg" viewBox="0 0 1024 1024"><path
    d="M447.81,351.81H223.9V416H447.81ZM223.9,544.09H800.1V479.91H223.9Zm0,128.1H800.1V608H223.9ZM921.6,128H102.4A102.39,102.39,0,0,0,0,230.4V793.6A102.39,102.39,0,0,0,102.4,896H921.6A102.39,102.39,0,0,0,1024,793.6V230.4A102.39,102.39,0,0,0,921.6,128Zm6.6,646.32a25.69,25.69,0,0,1-25.42,25.88H121.22A25.68,25.68,0,0,1,95.8,774.32V249.55a25.61,25.61,0,0,1,25.42-25.75H902.78a25.62,25.62,0,0,1,25.42,25.75Z"
    style="fill:#3264c8"
  /></svg>
