<svg xmlns="http://www.w3.org/2000/svg" viewBox="0 0 1024 1024"><path d="M512,0C306.35,0,139.64,166.13,139.64,371.06c0,144.77,59,264.74,154.1,374.18L512,1024,730.26,745.24c95.11-109.44,154.1-229.41,154.1-374.18C884.36,166.13,717.65,0,512,0ZM677.48,699.7,512,917.72l-165.48-218c-84.1-96.78-137.07-200.63-137.07-328.64C209.45,204.82,345.18,69.57,512,69.57S814.55,204.82,814.55,371.06C814.55,499.07,761.58,602.92,677.48,699.7ZM512,127.66c-134.74,0-244.36,109.24-244.36,243.51S377.26,614.67,512,614.67s244.36-109.24,244.36-243.5S646.74,127.66,512,127.66Zm0,417.44c-96.25,0-174.55-78-174.55-173.93S415.75,197.24,512,197.24s174.55,78,174.55,173.93S608.25,545.1,512,545.1Z" style="fill:#09f"/></svg>