<svg xmlns="http://www.w3.org/2000/svg" viewBox="0 0 1024 1024"><path
    d="M837.86,401.18H389.43c-37.57-32.59-61.23-79.91-61.23-132.63v-1.12c.64-97.79,82.7-176.9,183.83-176.9,95.45,0,173.91,70.47,182.9,160.62a159.39,159.39,0,0,1,.9,16.28v1.12c0,5.59-.26,11.14-.8,16.6C701.54,302,718.37,314,738.11,314c25.43,0,46-19.93,46-44.56l-.42-1.73v-.32h3.15v-.74C786.88,119.4,663.6,0,511.52,0,361.3,0,239.18,116.51,236.22,261.33c0,1.77-.06,3.56-.06,5.36v.74a258.58,258.58,0,0,0,37.56,133.75H186.14a89.9,89.9,0,0,0-89.89,89.89v443A89.91,89.91,0,0,0,186.14,1024H837.86a89.91,89.91,0,0,0,89.89-89.89v-443A89.9,89.9,0,0,0,837.86,401.18Zm0,498.9a34,34,0,0,1-34,34H220.17a34,34,0,0,1-34-34v-375a34,34,0,0,1,34-34H803.83a34,34,0,0,1,34,34Z"
    style="fill:#3264c8;fill-rule:evenodd"
  /></svg>
