<svg xmlns="http://www.w3.org/2000/svg" viewBox="0 0 1024 1024"><path d="M786.5,1023.78,522.91,870.42,751,651.13l10.73,112.62c105.17-23,178.95-119.44,168.68-227.14a208.59,208.59,0,0,0-17-65l43.4-20.06a291,291,0,0,1,65.93,158.5c14.62,153.46-93.4,290.4-245.27,318l9.09,95.67ZM0,438.39,256.49,273.9,357.9,570.66l-108.18-40c-25,102.55,31.2,209.71,134.64,247.93a219.93,219.93,0,0,0,67.13,13.54l-.59,46.94a306.92,306.92,0,0,1-174.5-11.55C129,773.06,50.62,618,91.86,472.34L0,438.39ZM936.67,40,858.08,97.6C754.58-14.64,578.84-33.13,452.73,59.27A294.79,294.79,0,0,0,349.1,197.11l40.16,25.69A213.89,213.89,0,0,1,437,174.65c88.5-64.85,211.1-53.76,286.08,21.95l-92.54,67.83L940.85,340Z" style="fill:#09f;fill-rule:evenodd"/></svg>