<svg xmlns="http://www.w3.org/2000/svg" viewBox="0 0 1024 1024"><path d="M997.15,902l-481.06,62.2a30.08,30.08,0,0,1-8.19,0L26.84,902A31,31,0,0,1,0,871.17V90.65a31.21,31.21,0,0,1,10.55-23.4A30.58,30.58,0,0,1,35,59.82l477,61.65L989,59.82a31,31,0,0,1,35,30.83V871.17A31,31,0,0,1,997.15,902ZM460.8,196.2,102.4,144.83V827l358.4,51.88Zm460.8-51.37L563.2,196.2V878.87L921.6,827ZM635.1,263.45l213.33-31.09a31.09,31.09,0,0,1,7.67,61.71l-213.33,31.1a29.94,29.94,0,0,1-3.88.24,31.11,31.11,0,0,1-3.79-62Zm0,155.51,213.33-31.11c16.76-2.23,32.41,9.95,34.53,27a31.08,31.08,0,0,1-26.86,34.72L642.77,480.66a30,30,0,0,1-3.88.25,31.1,31.1,0,0,1-3.79-62Zm0,155.49,213.33-31.1a31.1,31.1,0,0,1,7.67,61.72L642.77,636.16a29.94,29.94,0,0,1-3.88.24,31.1,31.1,0,0,1-3.79-61.95Zm0,155.5,213.33-31.1a31.09,31.09,0,0,1,7.67,61.71l-213.33,31.1a29.94,29.94,0,0,1-3.88.24A31.1,31.1,0,0,1,635.1,730ZM175.57,232.36,388.9,263.45a31.11,31.11,0,0,1-3.79,62,29.83,29.83,0,0,1-3.88-.24L167.9,294.07a31.09,31.09,0,0,1,7.67-61.71Zm0,155.49L388.9,419a31.1,31.1,0,0,1-3.79,62,29.85,29.85,0,0,1-3.88-.25L167.9,449.57a31.1,31.1,0,0,1,7.67-61.72Zm0,155.5,213.33,31.1a31.1,31.1,0,0,1-3.79,61.95,29.83,29.83,0,0,1-3.88-.24L167.9,605.07a31.1,31.1,0,0,1,7.67-61.72Zm0,155.5L388.9,730a31.1,31.1,0,0,1-3.79,61.95,29.83,29.83,0,0,1-3.88-.24L167.9,760.56a31.09,31.09,0,0,1,7.67-61.71Z" style="fill:#09f;fill-rule:evenodd"/></svg>