<svg xmlns="http://www.w3.org/2000/svg" viewBox="0 0 1024 1024"><path
    d="M956.11,375.43c.13-.21.27-.4.39-.6s.36-.55.51-.82c.38-.61.73-1.23,1.09-1.86,0-.06.07-.12.09-.19.24-.43.48-.87.69-1.32a.3.3,0,0,0,.06-.11,0,0,0,0,1,0,0,.14.14,0,0,0,0-.06c.26-.51.48-1,.71-1.53l60.57-134.84a42.42,42.42,0,0,0-8.64-47.36L836.27,10.85l-.07-.06c-.45-.45-.89-.88-1.36-1.3l-.26-.24c-.4-.36-.81-.71-1.21-1.05l-.51-.41c-.31-.25-.64-.51-1-.75s-.55-.4-.8-.6-.44-.31-.65-.46c-.39-.27-.77-.53-1.17-.78L829,5A42.26,42.26,0,0,0,818.18.12l-.17,0c-.56-.16-1.14-.31-1.71-.45-.37-.09-.75-.17-1.12-.24s-.52-.13-.79-.17a41.73,41.73,0,0,0-13.85-.36l-.29,0c-.48.07-.94.15-1.42.24l-.75.13-1,.23c-.38.08-.77.17-1.15.27a5.79,5.79,0,0,0-.63.18c-.53.13-1,.28-1.55.44l-.33.11c-.6.19-1.19.4-1.79.62l-.08,0L649.48,54.56l-.65.28c-.48.18-.93.37-1.39.57l-1.18.55c-.47.22-.92.43-1.37.66s-.75.41-1.11.62-.89.49-1.33.75-.69.44-1,.66-.89.56-1.32.86l-.67.49c-.9.66-1.76,1.35-2.59,2.07-.32.27-.63.52-.93.79l-1.07,1c-.31.29-.62.59-.9.9s-.67.71-1,1.08l-.86,1c-.31.38-.6.76-.9,1.14s-.55.68-.8,1-.58.79-.85,1.19l-.72,1.09c-.26.4-.52.82-.77,1.23s-.44.76-.65,1.14-.48.85-.69,1.29-.38.78-.56,1.16-.42.9-.62,1.36-.33.79-.48,1.18-.38.94-.55,1.42-.24.77-.37,1.14c-.29.93-.56,1.86-.79,2.81-.11.42-.23.83-.32,1.25a.28.28,0,0,1,0,.09c-.1.44-.16.89-.24,1.34s-.19,1-.26,1.49c0,.12,0,.23-.07.35L596.38,281.15a398.56,398.56,0,0,0-479.89,627.6A398.26,398.26,0,0,0,737.56,419.47L926.15,393.8c.92-.11,1.83-.25,2.73-.43l.65-.12,1-.23.85-.2.45-.12c.76-.2,1.5-.42,2.25-.67l.28-.09c.44-.14.88-.29,1.31-.45l0,0a41.34,41.34,0,0,0,4-1.72l.18-.09q1.7-.84,3.33-1.86c.25-.14.48-.29.7-.44l.72-.47,1.2-.84.25-.17q.81-.61,1.62-1.26s0,0,0,0a42.21,42.21,0,0,0,7.3-7.67c.08-.11.15-.23.24-.34C955.57,376.19,955.86,375.81,956.11,375.43ZM676.47,342.27l-2.72-2.66,21-155L830.91,321.24Zm231.22-63.89L740.59,110.81l55.17-20.74L931.24,226ZM619.17,848.82A313.65,313.65,0,0,1,176.24,404.61a312.54,312.54,0,0,1,425.17-16.49A314.29,314.29,0,0,1,710.9,626.72,312.49,312.49,0,0,1,619.17,848.82Z"
    style="fill:#3264c8"
  /></svg>
