<svg xmlns="http://www.w3.org/2000/svg" viewBox="0 0 1024 1024"><path
    d="M775.86,390.32c0-139.49-114.62-252.56-256-252.56s-256,113.07-256,252.56,114.61,252.55,256,252.55S775.86,529.8,775.86,390.32ZM519.86,574C417.2,574,333.68,491.6,333.68,390.32S417.2,206.64,519.86,206.64,706,289,706,390.32,622.52,574,519.86,574Zm496.91,232.18L865.5,602.76a34.39,34.39,0,0,0-8.71-8.09,383.41,383.41,0,0,0,58.76-204.36C915.55,174.72,738.44,0,519.91,0S124.27,174.72,124.27,390.31a383.47,383.47,0,0,0,52,193.12,34.7,34.7,0,0,0-9.63,8.74L7.25,806.15a34,34,0,0,0-3.36,35.26A34.88,34.88,0,0,0,33.83,861l144.51,6.32,49.51,134.07a35.11,35.11,0,0,0,60.93,8.6L452.62,789.76a33.93,33.93,0,0,0,6-13.88,385.49,385.49,0,0,0,108.82,1.69,33.84,33.84,0,0,0,6.21,15.19L735.44,1010a35.09,35.09,0,0,0,28.14,14,34.29,34.29,0,0,0,4.94-.35,34.75,34.75,0,0,0,27.85-22.31l49.52-134.07L990.17,861a34.94,34.94,0,0,0,29.94-19.53A34.06,34.06,0,0,0,1016.77,806.17ZM271.11,917.3,236,822.11a34.85,34.85,0,0,0-31.25-22.63L102.2,795,216.88,641.07A396.5,396.5,0,0,0,389,758.86ZM441.35,702.54A326,326,0,0,1,252.07,573.17a315.13,315.13,0,0,1-58-182.86c0-177.24,146.16-321.43,325.82-321.43S845.73,213.07,845.73,390.31a315.61,315.61,0,0,1-64.5,191.84A324.31,324.31,0,0,1,588,704.84a344.85,344.85,0,0,1-68.11,6.91A336.86,336.86,0,0,1,441.35,702.54Zm378.16,96.94a34.85,34.85,0,0,0-31.25,22.63L753.1,917.32,638.14,763A395.6,395.6,0,0,0,814.57,650.71L921.86,795Z"
    style="fill:#3264c8"
  /></svg>
