<svg xmlns="http://www.w3.org/2000/svg" viewBox="0 0 1024 1024"  fill="currentColor">
    <path d="m541.12,750.31v26.72l26.91-26.72h-26.91Zm55.99,102.14h-170.22c-9.4,0-17.02,7.62-17.02,17.02v34.04c0,9.41,7.62,17.03,17.02,17.03h170.22c9.4,0,17.02-7.62,17.02-17.03v-34.04c0-9.4-7.62-17.02-17.02-17.02Zm-34.04-748.99h-102.14c-9.4,0-17.02,7.62-17.02,17.03s7.62,17.02,17.02,17.02h102.14c9.4,0,17.02-7.62,17.02-17.02s-7.62-17.03-17.02-17.03Zm205.14,448.07v198.78H255.79V239.64h428.72l68.57-68.09H255.79v-43.55c0-26.28,4.9-38.12,7.49-40.72,2.6-2.59,14.44-7.49,40.72-7.49h416c26.28,0,38.12,4.9,40.71,7.5,2.6,2.59,7.5,14.43,7.5,40.71v28.53l75.2-74.68C830.71,25.7,791.15,0,720,0h-416c-88.37,0-128,39.63-128,128v768c0,88.37,39.63,128,128,128h416c88.36,0,128-39.63,128-128v-423.7l-79.79,79.23Zm0,344.47c0,26.28-4.9,38.12-7.5,40.71-2.59,2.6-14.43,7.5-40.71,7.5h-416c-26.28,0-38.12-4.9-40.72-7.49-2.59-2.6-7.49-14.44-7.49-40.72v-77.6h512.42v77.6Zm-341.32,24.54h170.22c9.4,0,17.02-7.62,17.02-17.03v-34.04c0-9.4-7.62-17.02-17.02-17.02h-170.22c-9.4,0-17.02,7.62-17.02,17.02v34.04c0,9.41,7.62,17.03,17.02,17.03Zm34.04-817.08c-9.4,0-17.02,7.62-17.02,17.03s7.62,17.02,17.02,17.02h102.14c9.4,0,17.02-7.62,17.02-17.02s-7.62-17.03-17.02-17.03h-102.14Zm102.14,0h-102.14c-9.4,0-17.02,7.62-17.02,17.03s7.62,17.02,17.02,17.02h102.14c9.4,0,17.02-7.62,17.02-17.02s-7.62-17.03-17.02-17.03Zm34.04,748.99h-170.22c-9.4,0-17.02,7.62-17.02,17.02v34.04c0,9.41,7.62,17.03,17.02,17.03h170.22c9.4,0,17.02-7.62,17.02-17.03v-34.04c0-9.4-7.62-17.02-17.02-17.02Zm52.88-269.69l-106.9-107.43,255.89-253.77,106.91,107.44-255.89,253.77Zm317.38-359.11l-63.35-63.65c-12.07-12.13-31.71-12.13-43.78,0l-37.49,37.69,106.9,107.43,37.72-37.9c11.99-12.05,11.99-31.52,0-43.57Zm-488.98,390.4l40.94-114.86,106.92,107.43-114.55,40.76c-20.71,7.37-40.69-12.62-33.31-33.33Z" />
</svg>