<svg xmlns="http://www.w3.org/2000/svg" viewBox="0 0 1024 1024"><path d="M590.71,316.72A110.3,110.3,0,0,0,512.14,284H512a110.71,110.71,0,0,0-78.79,32.68L316.5,433.35a111.33,111.33,0,0,0,0,157.27l116.7,116.87.08.08a111.63,111.63,0,0,0,157.4-.08L707.33,590.65a111,111,0,0,0,0-157.3Zm68.62,225.77-.09.08L542.56,659.42a43.51,43.51,0,0,1-61.29,0L364.58,542.56a43.27,43.27,0,0,1,0-61.12l116.7-116.7A43.15,43.15,0,0,1,512,352H512a42.77,42.77,0,0,1,30.52,12.76L659.33,481.5a43,43,0,0,1,0,61ZM983.75,312.7A513.55,513.55,0,1,0,1024,512,510.2,510.2,0,0,0,983.75,312.7ZM921.12,684.81A445.53,445.53,0,1,1,956,512,442.68,442.68,0,0,1,921.12,684.81Z" style="fill:#1794fd"/></svg>