<svg xmlns="http://www.w3.org/2000/svg"  viewBox="0 0 1024 1024"
    fill="currentColor"><path d="M512,0C229.24,0,0,229.24,0,512s229.24,512,512,512,512-229.21,512-512S794.76,0,512,0Zm-.69,930.86C279.57,930.89,91.7,743.05,91.7,511.31S279.57,91.73,511.31,91.73,930.92,279.57,930.92,511.31,743.05,930.89,511.31,930.89ZM444,511l.25,2c0,37.06,30.38,67.1,67.84,67.1S580,550.07,580,513l-.26-2c0-37.06-30.37-67.1-67.84-67.1S444,473.93,444,511Zm221.49,0,.26,2c0,37.06,30.37,67.1,67.83,67.1s67.84-30,67.84-67.11l-.26-2c0-37.06-30.37-67.1-67.83-67.1S665.53,473.93,665.53,511Zm-443,0,.26,2c0,37.06,30.37,67.1,67.83,67.1s67.85-30,67.85-67.11l-.26-2c0-37.06-30.38-67.1-67.84-67.1S222.54,473.93,222.54,511Z" style="fill:#1496ff"/></svg>
