<svg xmlns="http://www.w3.org/2000/svg" viewBox="0 0 1024 1024"><path d="M522.15,573.44c0-40.72,36.72-76.8,78.16-76.8s78.17,36.08,78.17,76.8-35.16,75.27-76.6,75.27S522.15,614.17,522.15,573.44Zm15.63-122.88c-45.21,0-87.54,55-87.54,122.88s42.33,122.89,87.54,122.89H988c21,0,36.74-20,36-36.87V489c.78-16.9-15-38.4-36-38.4ZM208.7,155.63c-91.45,0-113.4-18.52-114.28-42.76.94-17.14,51.65-31,83.17-31H772.9a127,127,0,0,1,61.41,15.85c-22-38.52-64-65-111.43-65H127.57C58.05,32.75,0,89.78,0,158.09V743c0,3.38.1,6.76.37,10.08C.1,769.65,0,784.62,0,797.71,45.36,950.52,172.38,979.8,214.49,985.35a126.34,126.34,0,0,0,38.14,5.9H847.94c69.52,0,127.57-57,127.57-125.34V745.48H544c-117.24-1.54-146.95-77-146.95-172s32.83-172,150.08-172H975.51V281c0-68.31-58-125.35-127.57-125.35Z" style="fill:#ffc864;fill-rule:evenodd"/></svg>