<svg xmlns="http://www.w3.org/2000/svg" viewBox="0 0 1024 1024"><path d="M981.33,642.41h-448a42.67,42.67,0,0,1-42.67-42.67V515.55a42.67,42.67,0,0,1,42.67-42.66h448A42.67,42.67,0,0,1,1024,515.55v84.19A42.67,42.67,0,0,1,981.33,642.41ZM575.81,509.82a47.83,47.83,0,1,0,47.83,47.83A47.83,47.83,0,0,0,575.81,509.82ZM941.09,81.49H213v0a33.91,33.91,0,0,0,0,67.82v0H896a85.33,85.33,0,0,1,85.33,85.33V430.22H512a64.07,64.07,0,0,0-64,64V621.08a64.06,64.06,0,0,0,64,64H981.32V938.67A85.33,85.33,0,0,1,896,1024H85.33A85.33,85.33,0,0,1,0,938.67V85.34A85.33,85.33,0,0,1,85.33,0H941.09a40.75,40.75,0,0,1,0,81.49Z" style="fill:#09f;fill-rule:evenodd"/></svg>