<svg xmlns="http://www.w3.org/2000/svg" viewBox="0 0 1024 1024"><path d="M873.26,1023.5H150.74c-34.16,0-61.85-27.48-61.85-61.38V61.88C88.89,28,116.58.5,150.74.5h372V348.32c0,33.9,27.69,61.38,61.85,61.38H935.11V962.12C935.11,996,907.42,1023.5,873.26,1023.5ZM371.88,253.6H239.76a35.12,35.12,0,1,0,0,70.23H371.88a35.12,35.12,0,1,0,0-70.23ZM784.23,493.17H239.76a35.12,35.12,0,1,0,0,70.24H784.23a35.12,35.12,0,1,0,0-70.24Zm0,239.57H239.76a35.12,35.12,0,1,0,0,70.23H784.23a35.12,35.12,0,1,0,0-70.23Zm-199.6-445.8V.5L935.11,348.32H646.48C612.32,348.32,584.63,320.83,584.63,286.94Z" style="fill:#6599e9;fill-rule:evenodd"/></svg>