<svg xmlns="http://www.w3.org/2000/svg" viewBox="0 0 1024 1024"><path d="M885.77,223.73c23.4,0,42.42,23,42.42,45.67V759.12c0,22.67-24.9,41.08-48.14,41.08H143.92c-23.19,0-48.11-18.54-48.11-41.37V265.17c0-22.83,25.08-41.44,48.43-41.44H885.77M912.05,128H111.93C50.12,128,0,176.65,0,236.65v550.7C0,847.35,50.12,896,111.93,896H912.05c61.81,0,112-48.64,112-108.64V236.65c0-60-50.14-108.64-112-108.64ZM308.91,391.91l-6.16,99.76,93.84-36.86,16.19,46.62-98.85,26,67.56,74.27-39.65,30.36-58.64-83-59.23,83-39.65-30.36,67.58-74.27-98.29-26,16.19-46.62,93.85,36.86-6.14-99.76Zm311.82,0-6.13,99.76,93.85-36.86,16.19,46.62-98.88,26,67.59,74.27-39.66,30.36-58.64-83-59.22,83-39.68-30.36,67.61-74.27-98.32-26,16.21-46.62,93.85,36.86-6.16-99.76ZM832,688c-19.28,0-32-13.29-32-32V352c0-18.71,12.72-32,32-32s32,13.29,32,32V656C864,674.71,851.28,688,832,688Z" style="fill:#09f"/></svg>