<svg xmlns="http://www.w3.org/2000/svg" viewBox="0 0 1024 1024"><path
    d="M614.13,869.47v34a17,17,0,0,1-17,17H426.89a17,17,0,0,1-17-17v-34a17,17,0,0,1,17-17H597.11A17,17,0,0,1,614.13,869.47Zm-153.2-732H563.07a17,17,0,0,0,0-34H460.93a17,17,0,0,0,0,34.05ZM848,128V896c0,88.37-39.64,128-128,128H304c-88.37,0-128-39.63-128-128V128C176,39.63,215.63,0,304,0H720C808.36,0,848,39.63,848,128Zm-592.21,0v43.55H768.21V128c0-26.28-4.9-38.12-7.5-40.71s-14.43-7.5-40.71-7.5H304c-26.28,0-38.12,4.9-40.72,7.49S255.79,101.72,255.79,128Zm0,111.64V750.31H768.21V239.64ZM768.21,896V818.4H255.79V896c0,26.28,4.9,38.12,7.49,40.72s14.44,7.49,40.72,7.49H720c26.28,0,38.12-4.9,40.71-7.5S768.21,922.28,768.21,896ZM699.33,526.92c0-75.57-63.19-136.83-141.14-136.83S417.06,451.35,417.06,526.92a131.53,131.53,0,0,0,1,16.22l-62.6-48.55-30.8,39.8L453,640.91,563.51,532.08l-36.3-35.19L472.1,550.33a83.24,83.24,0,0,1-3.73-23.41c0-48.08,40.22-87.07,89.82-87.07s93.81,39,93.81,87.07v6.31A195.92,195.92,0,0,1,645.84,582L644,589.12h45.8C695,568,699.33,549.35,699.33,526.92Z"
    style="fill:#3264c8"
  /></svg>
