<svg xmlns="http://www.w3.org/2000/svg" viewBox="0 0 1024 1024"><path d="M992.61,888.64a41.24,41.24,0,0,1-41.2,41.2H753.29V731.71a41.2,41.2,0,1,1,82.39,0v62.66A426.76,426.76,0,0,0,941.6,512c0-114.75-44.68-222.64-125.83-303.78S626.75,82.39,512,82.39A41.2,41.2,0,0,1,512,0C648.78,0,777.35,53.26,874,150s150,225.26,150,362A509.37,509.37,0,0,1,898.63,847.45h52.78A41.24,41.24,0,0,1,992.61,888.64ZM512,941.61c-114.75,0-222.62-44.69-303.74-125.84S82.4,626.74,82.4,512A426.69,426.69,0,0,1,188.33,229.63v62.66a41.2,41.2,0,1,0,82.39,0V94.16H72.59a41.2,41.2,0,0,0,0,82.39H125.4A509.2,509.2,0,0,0,0,512C0,648.73,53.27,777.31,150,874s225.26,150,362,150a41.2,41.2,0,1,0,0-82.39Z" style="fill:#09f"/></svg>