<svg xmlns="http://www.w3.org/2000/svg" viewBox="0 0 1024 1024"><path d="M991.88,172.17A1624.47,1624.47,0,0,1,655.36,53c-40-19.42-71.12-36.77-92-49.11-10.47-6.18-18.39-11.1-23.61-14.46l-5.78-3.72-1.33-.9-.27-.2a41.65,41.65,0,0,0-47.37.36l-.27.2C476.85-9.39,304.94,108.27,32,172.17a41.46,41.46,0,0,0-32,40.39C0,327.73,31.45,434.42,77.66,528.94,147.11,670.8,249.55,786.17,334.49,866.86S487.36,993.26,488.72,994.2a41.47,41.47,0,0,0,46.42,0C536.93,992.93,657,912,778.27,774.9c60.61-68.59,121.65-151.37,167.93-246s77.7-201.21,77.73-316.38A41.47,41.47,0,0,0,991.88,172.17ZM632.22,806.62c-40.2,38.13-76.41,68-102.4,88.33q-10,7.78-17.89,13.67c-40.83-30.56-129.2-101.47-214.81-200.91-55.12-64-109-139.64-148.74-223.29C113,410.08,88.93,329.66,84,244.88,302.34,188.89,453.55,103,509.24,68.21l2.69,1.63c3.13,1.89,6.52,3.92,10.21,6.08q2.54,1.55,5.28,3.09c12.9,7.52,28.66,16.36,47.11,26.1,1.66.87,3.36,1.76,5.06,2.63q10.21,5.34,21.51,11c1.86.93,3.75,1.89,5.68,2.82q16,8,34,16.36c2.09,1,4.25,2,6.41,3s4.33,2,6.52,3,4.42,2,6.65,3q23.45,10.58,49.67,21.44c2.49,1,5,2.06,7.55,3.09,27.29,11.14,56.72,22.31,88.14,33.12,2.89,1,5.81,2,8.74,3s6.12,2.09,9.21,3.09,6.08,2,9.14,3,6.12,2,9.24,3c5.56,1.79,11.17,3.55,16.86,5.32,8.38,2.59,16.86,5.15,25.5,7.64,5,1.47,10.07,2.93,15.19,4.39,3.29.93,6.62,1.86,9.94,2.76,6.65,1.83,13.37,3.66,20.15,5.42,3.39.9,6.82,1.8,10.24,2.66-2.86,48.91-12.1,96.38-26.16,142-1,3.06-1.93,6.08-2.9,9.11-.79,2.56-1.66,5.12-2.52,7.65-1.73,5.08-3.49,10.14-5.32,15.16s-3.69,10-5.65,15c-1,2.49-1.93,5-2.93,7.44-2,5-4.06,9.91-6.15,14.8-5.22,12.26-10.81,24.4-16.66,36.37C808.72,621.23,712.67,730.42,632.22,806.62Z" style="fill:#1596ff"/><path d="M511.93,69.84V908.62c-40.83-30.56-129.2-101.47-214.81-200.91-55.12-64-109-139.64-148.74-223.29C113,410.08,88.93,329.66,84,244.88,302.34,188.89,453.55,103,509.24,68.21Z" style="fill:#92d3ff"/><path d="M939.88,244.88c-2.86,48.91-12.1,96.38-26.16,142-1,3.06-1.93,6.08-2.9,9.11-.79,2.56-1.66,5.12-2.52,7.65-1.73,5.08-3.49,10.14-5.32,15.16s-3.69,10-5.65,15c-1,2.49-1.93,5-2.93,7.44-2,5-4.06,9.91-6.15,14.8-5.22,12.26-10.81,24.4-16.66,36.37C808.72,621.23,712.67,730.42,632.22,806.62c-40.2,38.13-76.41,68-102.4,88.33q-10,7.78-17.89,13.67V69.84c3.13,1.89,6.52,3.92,10.21,6.08q2.54,1.55,5.28,3.09c12.9,7.52,28.66,16.36,47.11,26.1,1.66.87,3.33,1.76,5.06,2.63q10.21,5.34,21.51,11c1.86.93,3.75,1.89,5.68,2.82q16,8,34,16.36c2.09,1,4.25,2,6.41,3s4.33,2,6.52,3,4.42,2,6.65,3q23.45,10.58,49.67,21.44c2.49,1,5,2.06,7.55,3.09,27.29,11.14,56.72,22.31,88.14,33.12,2.89,1,5.81,2,8.74,3s6.12,2.09,9.21,3.09,6.08,2,9.14,3,6.12,2,9.24,3c5.56,1.79,11.17,3.55,16.86,5.32,8.38,2.59,16.86,5.15,25.5,7.64,5,1.5,10.11,3,15.19,4.39,3.29.93,6.62,1.86,9.94,2.76q10,2.79,20.15,5.42C933,243.12,936.46,244,939.88,244.88Z" style="fill:#60bbff"/><path d="M680.39,262.54l-142.32,212v.88H648.78a19.85,19.85,0,0,1,19.85,19.85h0a19.85,19.85,0,0,1-19.85,19.85H538.07v55.17H648.78a19.85,19.85,0,0,1,19.85,19.85h0A19.85,19.85,0,0,1,648.78,610H538.07v88.27A30.72,30.72,0,0,1,507.35,729h0a30.72,30.72,0,0,1-30.72-30.73V610H365a19.85,19.85,0,0,1-19.85-19.85h0A19.85,19.85,0,0,1,365,570.29H476.62V515.12H365a19.85,19.85,0,0,1-19.85-19.85h0A19.85,19.85,0,0,1,365,475.42H476.62v-.88L343.72,263a.32.32,0,0,1,.28-.49h71.86a.33.33,0,0,1,.28.16l69.3,122.75c10,20,15.88,34.69,23.82,53.22h2.05c7.94-16.76,15.88-35.29,25.88-54.1l69.4-122Zm0-46.55h-73.8a46.57,46.57,0,0,0-40.47,23.54l-55,96.73-54.55-96.61A46.54,46.54,0,0,0,416,216H344.88c-14.47,0-28.59,6-37.67,17.27a46.57,46.57,0,0,0-3.21,54L393,428.88H365a66.39,66.39,0,0,0-66.4,66.39v19.85A46.39,46.39,0,0,0,301.79,532a20.27,20.27,0,0,1,0,14.74c-2,5.23-3.16,17.58-3.16,23.54v19.85A66.4,66.4,0,0,0,365,656.53h65v41.73a77.27,77.27,0,0,0,77.27,77.27h0a77.27,77.27,0,0,0,77.27-77.27V656.53h64.16a66.4,66.4,0,0,0,66.4-66.39V570.29c0-6-1.12-18.31-3.16-23.54A20.17,20.17,0,0,1,712,532a46.39,46.39,0,0,0,3.16-16.89V495.27a66.39,66.39,0,0,0-66.4-66.39h-24L719,288.48A46.55,46.55,0,0,0,680.39,216Zm0,93.09h0Z" style="fill:#1596ff"/><path d="M538.07,475.42H648.78a19.85,19.85,0,0,1,19.85,19.85h0a19.85,19.85,0,0,1-19.85,19.85H538.07v55.17H648.78a19.85,19.85,0,0,1,19.85,19.85h0A19.85,19.85,0,0,1,648.78,610H538.07v88.27A30.72,30.72,0,0,1,507.35,729h0a30.73,30.73,0,0,1-30.73-30.73V610H365a19.85,19.85,0,0,1-19.85-19.85h0A19.84,19.84,0,0,1,365,570.29H476.62V515.12H365a19.84,19.84,0,0,1-19.85-19.85h0A19.85,19.85,0,0,1,365,475.42H476.62v-.88L343.72,263a.33.33,0,0,1,.28-.5h71.86a.34.34,0,0,1,.28.17l69.3,122.75c10,20,15.88,34.69,23.82,53.22h2.06c7.93-16.76,15.87-35.29,25.87-54.1l69.4-122h73.8l-142.32,212Z" style="fill:#fff"/></svg>