<?xml version="1.0" encoding="UTF-8"?><svg id="a" xmlns="http://www.w3.org/2000/svg"  viewBox="0 0 1024 1024"
    fill="currentColor"><path d="M1024,596.16v253.65c0,96.05-77.94,174.19-173.73,174.19H173.73C77.94,1024,0,945.86,0,849.81V174.2C0,78.15,77.94,0,173.73,0h254.56c18.78,0,34,15.09,34,33.71s-15.22,33.71-34,33.71H173.73c-58.3,0-105.73,47.9-105.73,106.77V849.81c0,58.87,47.43,106.77,105.73,106.77H850.27c58.3,0,105.73-47.9,105.73-106.77v-253.65c0-18.62,15.22-33.71,34-33.71s34,15.09,34,33.71Zm-728.38,197.93c2.58,.59,5.16,.88,7.71,.88,15.46,0,29.45-10.53,33.09-26.11,43.64-186.67,132.54-331.07,264.23-429.21,55.96-41.7,120.06-75.26,190.55-99.75,44.03-15.3,90.72-27.12,139.4-35.36l-99.04,195.2c-8.44,16.63-1.68,36.9,15.09,45.26,4.9,2.44,10.12,3.6,15.25,3.6,12.44,0,24.43-6.8,30.4-18.57l128.08-252.42c.03-.06,.06-.12,.09-.18,.2-.4,.39-.8,.57-1.2,.05-.11,.1-.21,.14-.32,.18-.41,.35-.82,.51-1.24,.04-.11,.09-.22,.13-.33,.15-.4,.29-.8,.43-1.2,.05-.13,.09-.27,.14-.4,.12-.37,.23-.75,.34-1.12,.05-.17,.1-.34,.15-.51,.09-.34,.17-.67,.25-1.01,.05-.22,.1-.43,.15-.65,.06-.29,.12-.59,.17-.89,.05-.26,.1-.53,.14-.79,.04-.25,.07-.5,.11-.75,.04-.31,.08-.63,.12-.94,.02-.21,.04-.42,.06-.63,.03-.36,.06-.72,.08-1.08,0-.17,.02-.35,.02-.52,.02-.4,.03-.79,.03-1.19,0-.15,0-.3,0-.45,0-.42-.02-.84-.03-1.26,0-.14-.01-.28-.02-.42-.02-.42-.06-.85-.1-1.27,0-.09-.01-.17-.02-.26,0-.07-.02-.13-.03-.2-.04-.38-.09-.77-.15-1.15-.03-.2-.06-.4-.09-.6-.05-.3-.11-.6-.16-.9-.05-.27-.1-.55-.16-.82-.04-.19-.09-.39-.14-.58-.09-.37-.17-.73-.27-1.09-.02-.07-.04-.14-.06-.21-1.02-3.64-2.61-7.01-4.69-10.02-2.34-3.4-5.34-6.39-8.92-8.81-.14-.09-.27-.19-.41-.28-.22-.15-.45-.29-.68-.43-.27-.17-.53-.33-.8-.49-.15-.09-.3-.17-.45-.25-.36-.2-.72-.4-1.09-.59-.03-.02-.06-.03-.09-.05L754.54,3.78c-16.68-8.55-37.19-2.08-45.82,14.45-8.63,16.54-2.1,36.88,14.58,45.43l158.79,81.43c-39.18,8.17-77.09,18.58-113.38,31.19-77.08,26.78-147.37,63.62-208.91,109.48-144.83,107.92-242.27,265.34-289.62,467.88-4.24,18.14,7.15,36.25,25.44,40.45Z" style="fill:#00cfcd;"/></svg>
