<svg xmlns="http://www.w3.org/2000/svg" viewBox="0 0 1024 1024"><path
    d="M1012.64,612.27a38.37,38.37,0,0,1,0,54.51,39,39,0,0,1-54.87,0l-105.72-105-105.75,105a38.67,38.67,0,0,1-54.87-54.51l105.75-105-105.75-105a38.36,38.36,0,0,1,0-54.5,39,39,0,0,1,54.87,0l105.75,105,105.72-105a39,39,0,0,1,54.87,0,38.36,38.36,0,0,1,0,54.5l-105.75,105ZM524.82,950.93c-9.26,0-18.38-8.84-25.56-15.21L271.16,727.44H38.38C17.18,727.44,0,721.29,0,700.12V342.34c0-21.17,17.18-51.6,38.38-51.6H270.46L498.35,81.42c11.12-10.56,27.53-10.12,41.59-4.11s23.27,23.22,23.27,38.54V912.59a38.42,38.42,0,0,1-38.39,38.34ZM76.8,650.37h209c9.41,0,18.5,9.16,25.53,15.42l175.1,161.34v-622L312.22,363.71c-7.14,6.77-16.59,4.09-26.44,4.09H76.8Z"
    style="fill:#00cfcd"
  /></svg>
