<svg xmlns="http://www.w3.org/2000/svg" viewBox="0 0 1024 1024"><path
    d="M524.82,950.93c-9.26,0-18.38-8.84-25.56-15.21L271.16,727.44H38.38C17.18,727.44,0,721.29,0,700.12V342.34c0-21.17,17.18-51.6,38.38-51.6H270.46L498.35,81.42c11.12-10.56,27.53-10.12,41.59-4.11s23.27,23.22,23.27,38.54V912.59a38.42,38.42,0,0,1-38.39,38.34ZM76.8,650.37h209c9.41,0,18.5,9.16,25.53,15.42l175.1,161.34v-622L312.22,363.71c-7.14,6.77-16.59,4.09-26.44,4.09H76.8Zm891.9,67.74a407.47,407.47,0,0,0,0-409.92,38.38,38.38,0,0,0-66.47,38.41,330.9,330.9,0,0,1,0,333.1,38.38,38.38,0,0,0,66.47,38.41ZM761.1,598.45c15.56-26.85,23.47-55.56,23.47-85.31s-7.91-58.44-23.47-85.3a38.38,38.38,0,0,0-66.47,38.38c8.7,15,13.15,30.84,13.15,46.92s-4.45,31.88-13.15,46.93a38.38,38.38,0,0,0,66.47,38.38Z"
    style="fill:#3264c8"
  /></svg>
