<svg xmlns="http://www.w3.org/2000/svg" viewBox="0 0 1024 1024"><path d="M1002.39,991.43H21.61A21.61,21.61,0,0,1,0,969.82C0,780.73,276.39,710.77,288.15,707.89c2.41-.58,63-13,63-13L509.57,893.06,667,692.42s63.14,14.53,65.16,15C744.08,710.3,1024,779.79,1024,969.82A21.61,21.61,0,0,1,1002.39,991.43Zm-204-608.64c0,37.06-23.5,86.08-58.28,104.31-44.73,96.82-128.53,197.32-234.22,197.32-104.84,0-188.26-99.11-233.17-195.06-40-16.1-64.1-70.33-64.1-106.57a85.62,85.62,0,0,1,20.32-55.65c-.36-5.79-.56-11.49-.56-17.08,0-153,124.5-277.49,277.51-277.49s277.5,124.48,277.5,277.49c0,7.2-.32,14.77-1,22.92A86.44,86.44,0,0,1,798.34,382.79ZM601,505.51a10.81,10.81,0,1,0-21.61,0,67.42,67.42,0,1,1-134.84,0,10.81,10.81,0,1,0-21.61,0,89,89,0,0,0,178.06,0Z" style="fill:#1496ff"/></svg>