<svg xmlns="http://www.w3.org/2000/svg" viewBox="0 0 1024 1024"><path d="M284.06,841.29H11.14s7.08,26.17,13.63,37.48c1,1.76,2.28,5.19,3.37,5.19H296.36C289.58,884,285.28,841.29,284.06,841.29Z" style="fill:#1496ff"/><path d="M0,771.29v39c0,3.35,3.37,8.2,8.33,9.64s269,0,269,0V767C256,771.74,181.9,782.36,132.6,782.36,95.33,782.36,42.67,776.29,0,771.29Z" style="fill:#1496ff"/><path d="M345,948H139c-36.23,0-70-21.34-94.52-42.66H308.2C318.31,922,331,948,345,948Z" style="fill:#1496ff"/><path d="M1023.9,705.16a21.19,21.19,0,0,0-40.59-7.61c-1.9,2.49-13,5.18-23.87,4.45-17.89-.63-29.89,4.69-38,10.44-8.18-5.75-20.58-11-39-10.41-9.8.6-21-2-22.8-4.35A21.24,21.24,0,0,0,840.85,685c2.09-128.7,5-310.1,5-310.1,0-52.53-38-100.13-84.91-121-1.9-1-14.23-4.82-23.94-6.25L521,74a23,23,0,0,0-16.46-4.56,22.14,22.14,0,0,0-14.66,8l-41,52.46L322.79,58.41a21.22,21.22,0,0,0-29.39,8.74L250.32,151l-96.79-27a20.87,20.87,0,0,0-26.16,16.36L103.23,246.19C45.08,261,0,313.94,0,375.25V749.78c42.66,5,99.77,11.37,136.58,11.37,60.14,0,154.63-17,155.53-17.23,3.12-.49,6.55,7.29,6.55,10.44V834c0,54,68.32,124.18,121.61,133.79a22.49,22.49,0,0,0,19.89-5.69l.09-.1c3.53-3.52,6.89-9,7.62-14.06H806.14c33.64,0,72.61-12.17,97.64-37.2,23.87-23.87,37.4-60.55,38.6-84,0,0,.23-14.8.23-17.59,0-6.51,2.6-21.71,26.34-21.71a47.26,47.26,0,0,0,35-14.83C1024.87,750.67,1024.23,712.57,1023.9,705.16Zm-546-125.74a51.77,51.77,0,1,1,0-46.08l-23.08,23Zm99-289.22a.71.71,0,0,0-.27,0,1528.75,1528.75,0,0,1-157.92,5.45c-126.57-2-229.74-17.82-272.86-25.53l18.29-99.11L604.93,287.41l6.31,1.63ZM281.6,182.85,321,106.22,641.23,274.81ZM690,274.94,472.21,169c.13-.24.29-.47.43-.73l37.07-47.51L698.18,273.42C695.46,274,692.76,274.45,690,274.94ZM866.81,844.36c-18.65,0-27.76-15.12-28-33.78,0,0,.23-14.23.6-37.4a47.32,47.32,0,0,0,34.41,14.23c23.77,0,26.33,15.2,26.33,21.71,0,1.5.37,5.49.37,6C900.39,833.82,885.46,844.36,866.81,844.36Z" style="fill:#1496ff"/></svg>