<svg xmlns="http://www.w3.org/2000/svg" viewBox="0 0 1024 1024"><path d="M849.45,1.51H174.55a93,93,0,0,0-93.1,93V931.05c0,2.4.1,4.79.28,7.15.12,1.57.28,3.13.47,4.69q.6,4.65,1.64,9.15a93.1,93.1,0,0,0,88.3,71.93c.8,0,1.6,0,2.41,0h674.9c.81,0,1.61,0,2.41,0A93.1,93.1,0,0,0,940.16,952q1-4.5,1.64-9.15c.19-1.56.35-3.12.47-4.69.18-2.36.28-4.75.28-7.15V94.47A93,93,0,0,0,849.45,1.51Zm0,888.47a41.09,41.09,0,0,1-41.13,41.07H215.68A41.09,41.09,0,0,1,174.55,890V135.53a41.09,41.09,0,0,1,41.13-41.06H808.32a41.09,41.09,0,0,1,41.13,41.06ZM768,512a46.55,46.55,0,0,1-46.55,46.55H492.55a46.55,46.55,0,0,1,0-93.1h228.9A46.55,46.55,0,0,1,768,512Zm-362.47,0A46.55,46.55,0,0,1,359,558.55H302.55a46.55,46.55,0,0,1,0-93.1H359A46.55,46.55,0,0,1,405.53,512ZM768,293.5a46.55,46.55,0,0,1-46.55,46.55H492.55a46.55,46.55,0,1,1,0-93.1h228.9A46.55,46.55,0,0,1,768,293.5Zm-362.47,0A46.55,46.55,0,0,1,359,340.05H302.55a46.55,46.55,0,1,1,0-93.1H359A46.55,46.55,0,0,1,405.53,293.5ZM768,730.5a46.55,46.55,0,0,1-46.55,46.55H492.55a46.55,46.55,0,0,1,0-93.1h228.9A46.55,46.55,0,0,1,768,730.5Zm-362.47,0A46.55,46.55,0,0,1,359,777.05H302.55a46.55,46.55,0,0,1,0-93.1H359A46.55,46.55,0,0,1,405.53,730.5Z" style="fill:#09f"/></svg>