<svg xmlns="http://www.w3.org/2000/svg" viewBox="0 0 1024 1024"><path
    d="M715.68,308.31h0a23.37,23.37,0,0,0-33,0L510.19,480.77,341.65,312.23a23.36,23.36,0,0,0-33,0l-.29.29a23.37,23.37,0,0,0,0,33L476.85,514.1,318.31,672.65a23.37,23.37,0,1,0,33.05,33L509.9,547.15,678.44,715.69a23.37,23.37,0,0,0,33,0l.3-.29a23.36,23.36,0,0,0,0-33L543.24,513.81,715.69,341.36A23.37,23.37,0,0,0,715.68,308.31ZM512,0C229.23,0,0,229.23,0,512s229.23,512,512,512,512-229.23,512-512S794.77,0,512,0Zm0,995C245.66,995,29,778.34,29,512S245.66,29,512,29,995,245.66,995,512,778.34,995,512,995Z"
    style="fill:#00cfcd"
  /></svg>
