<svg xmlns="http://www.w3.org/2000/svg" viewBox="0 0 1024 1024"><path d="M410.83,811.28l-26-424.75a26,26,0,0,1,51.95-3.27l26,424.74a25.76,25.76,0,0,1-24.31,27.19c-.56,0-1.13,0-1.69,0A25.87,25.87,0,0,1,410.83,811.28Zm415.1-516.84A38.33,38.33,0,0,0,785.3,331.2l-21.59,616H266.06l-27.36-616a38.67,38.67,0,0,0-40.63-36.76c-21.54.87-38.27,18.77-37.37,40l28.91,652.8c.86,20.57,18.07,36.8,39,36.8H801.16c20.93,0,38.13-16.23,39-36.8L863.3,334.4C864.2,313.21,847.46,295.31,825.93,294.44ZM593,831.74a25.87,25.87,0,0,0,25.95-24L645,383a26,26,0,0,0-52-3.27L567,804.5a25.77,25.77,0,0,0,24.31,27.19C591.85,831.72,592.41,831.74,593,831.74ZM915.39,197.88c0,21.21-17.47,38.4-39,38.4H147.65c-21.57,0-39-17.19-39-38.4s17.47-38.4,39-38.4h172V38.4c0-21.21,17.47-38.4,39-38.4H671c21.57,0,39,17.19,39,38.4V159.48H876.35C897.92,159.48,915.39,176.66,915.39,197.88Zm-518.52-38.4H631.09l-2-78.54H394.89Z" style="fill:#09f"/></svg>