<svg xmlns="http://www.w3.org/2000/svg"  viewBox="0 0 1024 1024"
    fill="currentColor"><path d="M800,256V160h64a32,32,0,0,0,32-32V32A32,32,0,0,0,864,0H160a32,32,0,0,0-32,32v96a32,32,0,0,0,32,32h64v96c0,111.46,63.78,208.16,156.66,256C287.78,559.84,224,656.53,224,768v96H160a32,32,0,0,0-32,32v96a32,32,0,0,0,32,32H864a32,32,0,0,0,32-32V896a32,32,0,0,0-32-32H800V768c0-111.47-63.78-208.16-156.66-256C736.22,464.16,800,367.46,800,256ZM192,64H832V96H192ZM832,960H192V928H832ZM736,768v96H288V768c0-123.51,100.49-224,224-224S736,644.49,736,768ZM512,480c-123.51,0-224-100.48-224-224V160H736v96C736,379.52,635.51,480,512,480Z" style="fill:#bfbfbf"/></svg>
