<svg xmlns="http://www.w3.org/2000/svg" viewBox="0 0 1024 1024"><path
    d="M938.62,252V229c0-57.81-47.74-104.83-106.39-104.83H769.77L756.61,88.69c-7.94-21.39-32.07-32.51-53.76-24.78L533.37,124.18h-427C47.71,124.18,0,171.2,0,229V836.8c0,69.32,57.3,125.75,127.73,125.75H896.27c70.43,0,127.73-56.43,127.73-125.75V354.74C1024,304,987.26,261.59,938.62,252ZM832.23,208.06c12,0,21.72,9.38,21.72,20.95v20.92H816.34l-15.52-41.87ZM692,156.31l34.64,93.62H428.71ZM106.36,208.06H297.57L179.85,249.93H106.36c-12,0-21.7-9.38-21.7-21S94.4,208.06,106.36,208.06Zm789.91,670.6H127.73c-23.77,0-43.07-18.79-43.07-41.86v-503h833c12,0,21.7,9.38,21.7,20.92v86.91H834.18c-95.92,0-173.95,76.88-173.95,171.37s78,171.41,173.95,171.41H939.34V836.8C939.34,859.87,920,878.66,896.27,878.66Zm43.07-370.52v209.8H834.18c-59.25,0-107.46-47.07-107.46-104.92s48.21-104.88,107.46-104.88Zm-83.26,42.28h2.34a62.63,62.63,0,1,1,0,125.25h-2.34a62.63,62.63,0,1,1,0-125.25Z"
    style="fill:#3264c8;fill-rule:evenodd"
  /></svg>
