<svg xmlns="http://www.w3.org/2000/svg" viewBox="0 0 1024 1024"><path d="M603.47,75.82a34,34,0,0,0-48.08,48.08l32.22,32.22a403.88,403.88,0,0,0-107.22,5.37A400.41,400.41,0,0,0,167,450.94a34,34,0,1,0,65.68,17.62A332.94,332.94,0,0,1,684.18,249.17a34,34,0,0,0,37.29-55.36Z" style="fill:#ffa300"/><path d="M642.89,878.74A334.86,334.86,0,0,1,223.66,595.52a34,34,0,0,0-57.8-20L77.3,664.11a34,34,0,1,0,48.09,48.08l44-44A403,403,0,0,0,660.51,944.41a34,34,0,1,0-17.62-65.67Z" style="fill:#ffa300"/><path d="M916.37,817l-54.6-.26A399.33,399.33,0,0,0,956.65,557a401.66,401.66,0,0,0-118-284.15A34,34,0,0,0,790.51,321a332.7,332.7,0,0,1,98.14,236.19c.14,89.1-34.42,172.81-97.31,235.7a335.88,335.88,0,0,1-34.81,30.33,34,34,0,0,0,20.34,61.12l139.18.66h.16a34,34,0,0,0,.16-68Z" style="fill:#ffa300"/></svg>