<svg xmlns="http://www.w3.org/2000/svg" viewBox="0 0 1024 1024"><path d="M983.94,128A34,34,0,0,0,960,118.17h-.3c-89.83.79-167-7.63-235.8-25.73-67.39-17.71-129-44.74-194-85.06a33.94,33.94,0,0,0-35.86,0c-64.95,40.32-126.58,67.35-194,85.06-68.85,18.1-146,26.53-235.8,25.73a34,34,0,0,0-34.3,34V354c0,55.72,5.36,110,15.94,161.27,11,53.26,27.67,103.68,49.59,149.86,47.34,99.69,118,178.94,210,235.55L494.19,1016.7a34,34,0,0,0,35.62,0L718.47,900.65c92-56.61,162.66-135.86,210-235.55,21.92-46.18,38.61-96.6,49.59-149.86C988.64,464,994,409.69,994,354V152.17A34,34,0,0,0,983.94,128ZM926,354c0,51.11-4.89,100.75-14.54,147.53-9.88,47.94-24.83,93.17-44.42,134.43-41.61,87.62-103.58,157.2-184.2,206.8L512,947.82,341.17,842.73c-80.63-49.6-142.6-119.18-184.21-206.8-19.59-41.26-34.54-86.49-44.42-134.43C102.89,454.72,98,405.08,98,354V186c81.62-1.39,153.68-10.55,219.39-27.82C384.25,140.63,448.11,113.67,512,76c63.89,37.67,127.75,64.63,194.61,82.21C772.33,175.48,844.38,184.64,926,186Z" style="fill:#00cfcd"/><path d="M513.28,247.71c-.57-.05-1.16-.07-1.75-.07s-1.17,0-1.75.07c-118.2.94-213.73,97-213.73,215.45H487.53V643.85a34.1,34.1,0,1,1-68.2,0V619.48a24,24,0,0,0-48,0v24.37a82.1,82.1,0,1,0,164.2,0V463.16H727C727,344.74,631.48,248.65,513.28,247.71Z" style="fill:#00cfcd"/></svg>