
<svg xmlns="http://www.w3.org/2000/svg" viewBox="0 0 1024 1024"><path class="st0" d="M959.7,707.3c11-32.6,16.4-66.7,16.4-101.1V217.2c0.1-45.4-39-80.8-84.2-78.1
c-132.3,22.8-271-25.5-354.6-131.2c-8.4-6.7-19.2-9.3-29.4-7.2C500,0.3,491.8,2.6,485,7.6l-0.7,0.9
c-82.3,104.2-221,153.1-351.5,130.6l-0.7-0.1h-5.8C83,139.1,48,173.9,47.9,217.1v391.9c0,34,5.3,67.9,16.1,100.3
C126.3,896,311,1024.6,511.8,1024C713.1,1024.4,896.7,894.7,959.7,707.3z M725.6,893.6c-0.3,0.1-0.7,0.1-1,0.2l-1.2,0.3
c-36.7,22.4-76.7,38.8-118.5,48.8C499,968,393.4,949.9,297.5,893.5c-59.6-36.7-110.2-89-144.5-152.5c-24.9-46.2-37.5-98-37.5-150.4
c0-112.6,0-375.3,0-375.3c0-4.4,3.1-8.2,7.4-9.1c25,4.4,50.3,6.7,75.7,6.8c116.1,0.7,231.2-47.5,311.7-130.7
c98,103.2,249,151.7,389.2,125.8c4.3,0.8,7.5,4.7,7.4,9.1c-0.5,2.1-0.4,259.8-0.3,374.3c0,55.7-14.2,110.6-42.1,158.9
C830.5,809,781.7,859.9,725.6,893.6z" style="fill:#00CFCD"/><path class="st0" d="M751.7,352.2h-129c-19.8,0-34.2,14.3-34.2,34c0,19.7,14.4,34,34.2,34h63.4L567.4,538.3L460.5,432l-0.2-0.2
c-6.3-6-14.5-9.5-23.2-9.9h-0.6c-9.4,0-17.2,3.3-24,10.1L229.8,613.8c-6.4,6.4-10,14.9-10,23.9s3.5,17.5,10,23.9
c6.4,6.4,15,10,24,10c9,0,17.6-3.5,24-10l158.6-157.9l106.9,106.4l0.2,0.2c6.3,6,14.5,9.5,23.2,9.9h0.6c9.4,0,17.2-3.3,24-10.1
L736,466.3v66.8c0,19.7,14.4,34,34.2,34s34.1-14.3,34.1-34V404.5C804.2,375.8,780.7,352.3,751.7,352.2z" style="fill:#00CFCD"/></svg>
