<svg xmlns="http://www.w3.org/2000/svg"  viewBox="0 0 1024 1024"
    fill="currentColor"><path d="M880.11,799.74C677.05,528.17,293.64,461.17,0,617.81c216.26-237.78,770.45-438,1013.2-150.2,12.34,17.36,14.61,31.75,4.19,52.38C969.52,612.69,928.83,707.27,880.11,799.74Z" style="fill:#38317e"/><path d="M187.43,342.68c76.88-87.13,206.51-105.9,308.57-55.21,13,5.9,24,6.46,36.88-.91C646.17,224.81,799,192.61,916.44,258.9c30.16,23.75,35.39,59.83,11.72,84.34-3.37,3.5-12.67,5.84-16.41,3.73C761,269.69,582.18,297.19,425.22,339.71,350.79,356.05,316.16,293.48,187.43,342.68Z" style="fill:#54b62b"/></svg>
