<svg xmlns="http://www.w3.org/2000/svg" viewBox="0 0 1024 1024"><path d="M594.34,49.81c2.56-.39,5.21-1.39,7.69-1.07,21,2.72,42.14,4.9,63,8.74,37.84,7,73.71,20.37,108.18,37.26C804.29,110,833.86,128,859.94,151c15.89,14,31.47,28.63,45.73,44.29A457.51,457.51,0,0,1,968,282.67c14.07,25.5,26.17,51.87,34,79.79,6.86,24.39,11.55,49.42,16.55,74.3,6.27,31.24,6.14,63.06,4.33,94.55-3.27,56.67-14.81,111.77-36.8,164.48A445.61,445.61,0,0,1,863,865.61,448.23,448.23,0,0,1,761.13,932,442.45,442.45,0,0,1,650.8,967.46c-32.92,6-66.11,9.38-99.38,7.2-26.37-1.72-52.69-5.85-78.73-10.62-37.87-6.94-73.7-20.63-107.76-38.38-31.58-16.46-61.53-35.48-89.1-58.37-41.1-34.13-74.23-74.58-100.33-121-23.81-42.35-39.17-87.56-48.12-135.31-6.49-34.64-7.58-69.55-5.46-104.3a407.91,407.91,0,0,1,36.85-146.52C179,316.09,204.11,275.31,239.9,242a405.6,405.6,0,0,1,80-58.49c9.95-5.51,20-10.85,30.19-15.89,2-1,4.91-.25,7.39-.31-.95,2.33-1.29,5.3-3,6.89-19.92,19-38.09,39.56-53.15,62.66-27,41.42-45.49,86.25-54.18,135.12-4.51,25.38-7.05,50.91-5.84,76.57,2.12,44.9,11.22,88.33,29,129.9,14.74,34.45,34,66.17,58.7,94,28.61,32.22,61.25,59.91,99.65,80.5,27.49,14.74,56,26.58,86.31,33.47,18.37,4.18,37.21,6.56,56,8.73a284.56,284.56,0,0,0,38.95,1.6c51.81-1.22,101.72-10.25,148.24-34.86a388.31,388.31,0,0,0,80.6-56.18A347.59,347.59,0,0,0,895.89,638a351.57,351.57,0,0,0,49.42-118.62,358.48,358.48,0,0,0,7.26-100.87c-2.89-42.19-12.76-83-30.6-121.67-14.7-31.9-33.23-61.16-56.56-87.38-10.15-11.41-19.83-23.37-30.95-33.77-29.42-27.53-61.09-52.09-96.37-72-40.79-23-84.58-37.42-130-47.67-4.65-1-9.37-1.79-14.06-2.67C594.15,52.19,594.24,51,594.34,49.81ZM528.29,749.56c3.4,1.25,6.69,3,10.19,3.67,26.11,4.88,52.27,9.22,79,6.29,11.58-1.26,23.38-1.24,34.78-3.41,34.63-6.59,67.45-18.19,97.93-36.36,29.06-17.31,54.8-38.49,76.17-64.56a296.65,296.65,0,0,0,44.38-73.64c13.7-32.68,21.89-66.81,22.7-102,.5-22.13-2.2-44.6-5.88-66.5C879,361.81,855.87,316.92,822,278c-26-29.92-56.82-54.25-93.24-70.93-27.7-12.69-56.75-15.67-86.16-9.95-31.7,6.16-59,21.28-80.64,45.94-32.7,37.25-44.24,80.42-33.62,128.42,9.74,44.07,35.57,76.79,76.09,97.67a135.71,135.71,0,0,1,43.8,36.27c27.29,34.2,37.15,73.48,30.62,116.8-5.38,35.74-22.2,64.95-49.82,88.19-27,22.69-57.84,34.3-93.13,34.24-2.5,0-5,1.3-7.51,2C528.38,747.6,528.34,748.58,528.29,749.56ZM95.71,274.42c36.77-6.1,69.72-21.34,99.19-43.84,12.68-9.68,23.64-21.65,36.5-31.06a191.37,191.37,0,0,1,88.6-36c1.75-.23,3.31-1.92,5-2.93-1-1.48-1.64-3.44-3-4.38-29.23-20.3-60.58-32.93-97.21-27.62-35.9,5.21-63.32,24.12-84.64,52.35-19.55,25.89-43.06,46.86-71.81,61.87C48.7,253.05,27.37,257.91,6,262.62c-2.13.47-4,2.13-6,3.24,1.85,1.36,3.54,3.55,5.58,3.94,18,3.49,36.11,6.67,50.57,9.28C72.09,277.24,84,276.37,95.71,274.42Z" style="fill:#c7141c"/></svg>