<svg xmlns="http://www.w3.org/2000/svg" viewBox="0 0 1024 1024"><path d="M1021.67,466.34c-13.33-186.69-140.74-357.56-313.48-428-85-36.79-180-43.86-271.23-33.6C184.35,38.29-14.78,274.64.86,529.94c3,281,258.12,512.68,537.87,492.39C825.47,1012.68,1049.43,750.7,1021.67,466.34ZM511.3,953.93C-76.57,941.74-66.23,69,520.74,69.42,1093.27,88,1089.78,945.38,511.3,953.93ZM811.5,806.5h-281v-85h193v-87h-193v-227h196V340.26h-196v-85h281V492.5h-196v57h196Zm-604,0h281v-85h-193v-87h193v-227h-196V340.26h196v-85h-281V492.5h196v57h-196Z" style="fill:#c2282b"/></svg>