<svg
  xmlns="http://www.w3.org/2000/svg"
   viewBox="0 0 1024 1024"
    fill="currentColor"
  role="img"
  aria-hidden="true"
><defs><radialGradient
      id="NB_svg__a"
      cx="512"
      cy="512"
      r="512"
      gradientUnits="userSpaceOnUse"
    ><stop offset="0" stop-color="#fae824" /><stop
        offset="1"
        stop-color="#fdb34a"
      /></radialGradient></defs><path
    d="M1024 512c0 3 0 5.94-.08 8.89a511.62 511.62 0 01-316.34 464.44A510.58 510.58 0 01512 1024h-3.72A512.46 512.46 0 0179.06 785.45 509.41 509.41 0 01.24 527.86Q0 520 0 512A511.54 511.54 0 01508.47 0H512a514.17 514.17 0 01116.71 13.36A511.43 511.43 0 011024 512z"
    fill="url(#NB_svg__a)"
  /><path
    d="M935.68 652.38a205.23 205.23 0 10-228.11 333 513.84 513.84 0 00272.79-266.2 205.07 205.07 0 00-44.68-66.8zm-145.12 254a108.91 108.91 0 11108.91-108.9 109 109 0 01-108.91 108.93zM796 85.94h-5.45a715.41 715.41 0 00-130.1 11.83 702 702 0 00-93.33 24q-27.09 9-53.57 20.16a709.16 709.16 0 00-208.42 135.24q-9 8.4-17.74 17.15Q276.76 305 266.61 316a709.19 709.19 0 00-131.7 204.5q-12.24 28.95-21.82 58.63a705.57 705.57 0 00-23.25 93.52 717.07 717.07 0 00-10.78 112.79 513.89 513.89 0 00105.69 120.32 624.19 624.19 0 01.37-218.6 606.55 606.55 0 0125.53-95.77q6-16.83 13-33.36A612.31 612.31 0 01329.8 389.72q12.4-14 25.69-27.27 11.67-11.65 23.84-22.62a612.23 612.23 0 01171.76-109.27q14.4-6.09 29-11.42a609.66 609.66 0 0195.58-26.25 624.05 624.05 0 01238 1.63A513.92 513.92 0 00796 85.94z"
    fill="#fff"
    opacity="0.5"
  /><path
    d="M1010.7 395.55a458.39 458.39 0 00-642.3 580.32q6.87 16.25 14.91 31.82a512.77 512.77 0 00125 16.3 361.59 361.59 0 01-15-432.95 366.24 366.24 0 0188.57-89.23 361.52 361.52 0 01442 19.1c.05-2.95.08-5.92.08-8.89a513.57 513.57 0 00-13.26-116.47zM415.61 192.54A207.55 207.55 0 00356.1 71.72a210.51 210.51 0 00-41.52-32.28 511.44 511.44 0 00-116.17 67.81c3.26-.29 6.54-.43 9.86-.43a112.68 112.68 0 0196.86 170.35A113.39 113.39 0 01266.61 316a112.68 112.68 0 01-171.07-96.45c0-1.89 0-3.76.13-5.63a510.5 510.5 0 00-63.35 118.66 210.86 210.86 0 0028.12 34.8 207.56 207.56 0 00122.37 59.71 212.75 212.75 0 0025.46 1.52 207.48 207.48 0 00121.53-38.89 212.51 212.51 0 0049.52-49.88 207.53 207.53 0 0038-120.27 212.1 212.1 0 00-1.71-27.03z"
    fill="#fff"
    opacity="0.5"
  /><path
    d="M675.7 192.89a465.11 465.11 0 00-15.24-95.15 467.9 467.9 0 00-20.82-60.43q-5.14-12.17-10.93-24A514.17 514.17 0 00512 0h-3.53a370 370 0 0142.45 74.82 367.23 367.23 0 0116.21 46.86 371 371 0 0113 97.45v.41A370.5 370.5 0 01512.85 433 376.64 376.64 0 01424 522.52a370.49 370.49 0 01-213.34 68.87h-2.38a371.24 371.24 0 01-95.18-12.27 365.42 365.42 0 01-49.55-16.92A369.76 369.76 0 01.24 527.86a512.06 512.06 0 0017.88 119.62q3.88 1.75 7.88 3.44a463.08 463.08 0 00159.09 36.24q11.53.58 23.15.57a466.61 466.61 0 00143.46-22.37q19.65-6.35 38.82-14.44A465.82 465.82 0 00493.29 591a474.46 474.46 0 0088.57-89.23 466 466 0 0057.76-100q8.77-20.78 15.49-42.15a466.39 466.39 0 0021.32-140.1q.02-13.35-.73-26.63z"
    fill="#fff"
    opacity="0.5"
  /></svg>
