<svg xmlns="http://www.w3.org/2000/svg"  viewBox="0 0 1024 1024"
    fill="currentColor"><path d="M453.31,191.84c66.46-.38,133.69,7.23,196.65,29.44-139.87-11.15-289,9.12-408,88.31C70.81,429.25,91.24,594.74,285.31,672.06c166.56,64.73,377.27,64.77,530.47-34.14C866.6,603.7,919.14,532.85,882.2,471.84,792.35,348,509.44,350,398.56,444.68c39,22.39,78.08,44.37,117.07,66.7a3.83,3.83,0,0,0,4.4-.06c52.63-27.59,104.28-63.77,157.49-87.06,25.77,16,54.44,28.19,78.35,46.87,18.77,17.4,9.54,44.79-11.13,55q-94.53,53.7-189.09,107.34c-21.6,12.19-44.39,13.28-67.32,3.92-70-37.49-138.32-78.47-207.7-117.2-93-53.43,7-144.37,66-177.13,150.72-83.43,341.14-88,501.14-28.61,80.5,31.79,167.82,91.71,176.27,185.15-.38,231-296,328.49-488.62,332C332.74,840.54,3.52,746.57,0,500.87,19.1,292.18,270.2,196.9,453.31,191.84Z" style="fill:#003d6e"/></svg>
