<svg xmlns="http://www.w3.org/2000/svg" viewBox="0 0 1024 1024"><path d="M1024,138.43c-6.76,15.88-11.51,64.52-24.51,69.11-106.12,1.31-212.67-.47-318.93.35-47.57.15-35.16-2.83-53,36.82-9.32,20.68-16.74,42.21-26.27,62.78-2,4.34-9.44,8.73-14.41,8.76q-94.92.6-189.84-.33c-22.67-2.65-23.23,20.43-30.7,36-4.79,11,7.33,13.05,15.57,12.44q119.21,0,238.42-.07c19.92,0,21.66-2.08,28-20.82,9.48-28.12,19.72-56,30.34-83.71,1.26-3.27,6.81-6.38,10.7-6.86,96.62-1.49,193.55,0,290.26-.56,15.49,0,15.78.7,11.1,15.33-7.77,14-5.54,51.56-25.74,50.49-75.43.16-150.85,1.05-226.27,1.21-11.36,0-18.52,2.56-22.09,14.5C708.52,360.5,699,386.78,689.73,413c-7.88,27.46-6.9,22.05-32.07,22.15q-147.92.57-295.82.2c-20.57-2-21.43,19.28-26.77,33.69-3.87,11.87,9.51,12.16,17.78,11.76q93.27.24,186.55.44c13.89,0,14.36,1.33,10.54,14.61-9.23,32.07-17.81,64.33-26.77,96.47-6.11,21.9-12.58,43.69-18.56,65.62-1.91,7-6.48,7.72-12.55,7.67Q395,664.63,298,666c-11,.58-32.53,34.26-11.37,35.43,84.21,1,168.51-1.1,252.74-.34,12.49.05,18.17-4.77,21.11-15.61q16.3-60,32.73-120c6.7-24.4,13.6-48.74,20.4-73.11,2.11-7.59,6.25-11.19,15-11.16,101.85,1.19,203.53-1.5,305.31,1.25-5.41,19-10.39,36.43-15.41,55.26-1.78,6.67-5.53,9.06-12.74,9.06-75.79,0-151.58.38-227.37.61-20.22.06-21.82,2.11-27.33,22.2-17.7,62.4-37.46,124.24-54.76,186.76-4.24,15.2-5.71,17.06-21.74,17q-149.57-.28-299.13-.53c-21.85,0-23.53,1.78-29.06,23.25-5.46,21.19-5.46,21.25,16.82,21.2q177.12-.39,354.26-.88c9.53.32,14.25-5.11,16.65-13.14,19.92-66.41,38.75-133.13,58.1-199.71,2-6.9,5.07-12.07,14.39-12,60.34.37,120.68.06,181,.13,15.1,0,15.72,1.57,11.59,16-8.66,17.1-4.37,61.49-29.71,58.78-40.1-.32-80.21.48-120.31.18-11-.08-17.16,2.56-20.4,14.34-11,40-23.15,79.63-35,119.38-8,26.73-15.77,53.53-24.56,80-1.09,3.3-7.66,6.46-11.88,6.72-158.5.56-317.14-.64-475.68-1.85-12.73-.09-13.74-2-10.3-14.3,17.11-61.14,33.5-122.47,51-183.5,3.61-11.61,8.56-27.13-9.57-25.12q-102.09-.36-204.2-.57c-7.75.1-10.16-2-7.52-10.67,16-54.14,29.48-109,45.64-163.16,5.21-11,19.86-7.52,29.91-8,60-.12,120-.37,179.92-.15,10.75,0,16.63-3.09,19.71-14.31q27.32-95.15,57-189.68c8.79-26.75,9.4-26.38,37.43-26.43q90.48-.13,181-.58c13.76-.05,16.25-2.75,21.65-20.9,8.06-27.1,16.72-54,24.45-81.22,2.2-7.7,6.29-9.52,13.47-9.51C748.75,138.33,886.56,135,1024,138.43ZM171.25,547.72v-.09H114c-27.89,0-27.89,0-36.86,25.89-4.75,13.73-2.3,17.69,12,17.64,41.84-.14,83.7-1.51,125.51-.47,20,.5,33.43-2.92,38.67-25.11,3.25-13.77,2.78-17.72-11.57-17.81C218.24,547.61,194.74,547.72,171.25,547.72Zm217.83,43.52v-1.07q30.29,0,60.57,0c23.5,0,23.5,0,30.28-22.6,4.84-16.13,2-20.16-14.59-20-41.47.46-82.93,1.41-124.4,1.52-32.64.08-29.78,1.63-34.57,28.23-2.1,11.66-.83,13.76,11.15,13.85C341.37,591.37,365.23,591.24,389.08,591.24Z" style="fill:#27983a"/></svg>