<svg xmlns="http://www.w3.org/2000/svg"  viewBox="0 0 1024 1024"
    fill="currentColor"><path d="M522,11.54c363.92,6.56,613,384.87,452.23,717.13-199,406.34-806.87,368.46-949.37-62.46C-83.82,334.59,178.87,5.6,522,11.54ZM450.71,717.9c-78-3.83-109.11,19.47-163.24-50.84-12.69-16.42-19.7-34.42-19.38-56.1,3.92-72.76-6.32-147.37,5.06-219.24,15.45-45.25,57.56-86.27,107.73-84.78,21.1.6,42.23-.05,63.34.26,5.59.08,7-1.77,6.94-7.12-.61-57.44.76-114.82-.62-172.25C257.66,157.28,95.61,339.4,114.35,538.13c10.36,180.35,158.36,334.8,336.36,359.18ZM571.05,897.47c173-24.16,318.19-174.35,335.72-348.35,23.36-200.35-139.64-392.38-335.7-421.3-1.33,57.65,0,115.22-.6,172.89,0,5.44,2.06,6.5,6.93,6.45,22.36-.19,44.73-.39,67.07.09,32.15-.24,60.23,18.48,79.69,42.8,18,22,29.2,46.4,28.87,75.92-.69,63.34-.41,126.7,0,190,.07,13.17-3.59,24.78-9.73,36-20.3,32.69-51.23,67.58-93,66.12-26.44-1.06-52.69-.11-79.2-.23ZM381.71,602.19H637.92c8.14,0,8.15,0,8.16-8V425.24c0-8.54,0-8.55-8.38-8.55h-256Z" style="fill:#da261d"/></svg>
