<svg xmlns="http://www.w3.org/2000/svg" viewBox="0 0 1024 1024"><path d="M528.5,0a43.93,43.93,0,0,0,5,.68,506.89,506.89,0,0,1,102.48,14,517.92,517.92,0,0,1,95.74,33.22c14,6.41,19.55,21.12,12.83,33.63A19.44,19.44,0,0,1,734,90.87a267.94,267.94,0,0,0-98.13,65c-26.62,27.66-46.22,59.49-55.85,97a157,157,0,0,0-5.38,38.73q-.23,133-.31,265.92-.07,228.56,0,457.12V1020A447.19,447.19,0,0,1,455,1020v-3.78q-.11-80.38-.22-160.78-.09-72.72-.16-145.43-.09-46.08-.3-92.15-.14-48.3-.22-96.6Q454,434,454,346.81c0-19.45.13-38.91-.55-58.35-1-27.1-8.35-52.68-20.93-76.63-26.55-50.57-67-86.57-117.82-111.6-6.2-3.06-12.48-6.23-19.07-8.18-13-3.87-20.63-23.4-8.91-36.58a30,30,0,0,1,9.37-7.17A518.87,518.87,0,0,1,496.9.56,18.9,18.9,0,0,0,499.83,0ZM.05,527.12a41.37,41.37,0,0,1,.68,4.65,479.93,479.93,0,0,0,6.13,61.36A503.17,503.17,0,0,0,57.28,745.47c34.64,66.82,81.7,123.4,140.63,170.15.75.6,1.59,1.08,2.83,1.91v-4.88q0-176.14.21-352.29c0-7.8-3.2-11.71-9.27-14.7a36.59,36.59,0,0,0-5.37-2.13c-9-2.8-17.85-1.2-26.37,1.93-22.09,8.14-35.51,24.47-43,46.24a29,29,0,0,1-2.63,6.24c-4,6.29-9.82,6.86-14.53,1.15-4.18-5.07-8.38-10.29-11.53-16-25.3-46-25.84-92.53-2.27-139.24,3.69-7.32,9-13.92,14.15-20.39,4.19-5.28,9.71-4.78,13.67.76a26.06,26.06,0,0,1,3.13,7.1c7.23,22.09,20.81,38.47,42.88,46.75a49.9,49.9,0,0,0,18.53,3.55c7.69-.22,14.59-4.1,20.24-9.54a7.13,7.13,0,0,0,2.11-4.56q.14-179,.07-358.09a24.75,24.75,0,0,0-.29-2.61,11.37,11.37,0,0,0-1.2.65A515.6,515.6,0,0,0,50.49,291.1c-21.76,45.13-36.77,92.42-44.05,142-2.87,19.53-3.9,39.33-5.79,59-.11,1.22-.4,2.43-.6,3.64Zm833.23,385.6a522.15,522.15,0,0,0,84-84.51,511.2,511.2,0,0,0,80.39-144.82c12.62-35.12,20.38-71.37,25.63-108.21.41-2.88,1.12-6.14.22-8.7a35.46,35.46,0,0,0-41.58-23.26c-22,4.77-37.07,18.48-47.44,37.81-2.89,5.38-4.62,11.36-7.31,16.86-3.23,6.59-10.26,6.81-14.41.71-1.27-1.88-2.56-3.75-3.89-5.59-25.93-35.85-33.14-75.24-22.2-118,4.89-19.16,14.51-35.94,26.58-51.41,4.37-5.59,10.8-4.88,14,1.5,1.17,2.31,1.86,4.86,2.81,7.3,9.71,25,26.47,42.37,53.32,48.45a28.5,28.5,0,0,0,11.4.46c13.53-2.65,22.23-11.63,28.61-23.26a5.06,5.06,0,0,0,.36-2.92c-1.43-10.47-2.7-21-4.45-31.38A498.17,498.17,0,0,0,967.11,271C935.14,211,892.8,159.51,840.6,116.06c-3.18-2.65-6.47-5.18-10.13-8.11V914.73C831.68,913.87,832.51,913.34,833.28,912.72ZM741.39,188.39c-3.44,1.75-7,3.39-10.24,5.42-53.53,33-78.6,82.23-81.76,143.89v667.36a19.74,19.74,0,0,0,2.2-.32C683.41,996,714.42,985,744,970.15c2.61-1.32,3.51-2.76,3.51-5.69q-.11-387.29-.06-774.56v-4.21C744.9,186.8,743.11,187.52,741.39,188.39ZM378.94,1001q0-328.59,0-657.16c0-30.08-6.43-58.65-20.53-85.3-16.74-31.63-40.83-55.76-73.47-71-1.26-.59-2.58-1.06-4.15-1.71v3.31q0,388-.07,776c0,2.56.83,3.77,3.05,4.89,26.67,13.45,54.56,23.68,83.16,32.09,3.79,1.11,7.63,2.07,12,3.25Z" style="fill:#d71920"/></svg>