<svg xmlns="http://www.w3.org/2000/svg" viewBox="0 0 1024 1024"><path
    d="M739.36,609.29a21.86,21.86,0,0,0-2.07-1.8l-95.42-95.17,97.37-97.42-.22-.25a21.58,21.58,0,0,0-30.6-30.45,22.67,22.67,0,0,0-2.33,2.79l-94.74,94.85-94-93.92a21.12,21.12,0,0,0-3-3.72,21.67,21.67,0,0,0-30.77,30.52l-.29.3,97.5,97.38-93.71,93.74a21.45,21.45,0,0,0-3.79,3,21.67,21.67,0,0,0,30.52,30.77l.3.29,97.2-97.35,97.32,97.23.23-.24a21.58,21.58,0,1,0,30.46-30.58Zm0,0a21.86,21.86,0,0,0-2.07-1.8l-95.42-95.17,97.37-97.42-.22-.25a21.58,21.58,0,0,0-30.6-30.45,22.67,22.67,0,0,0-2.33,2.79l-94.74,94.85-94-93.92a21.12,21.12,0,0,0-3-3.72,21.67,21.67,0,0,0-30.77,30.52l-.29.3,97.5,97.38-93.71,93.74a21.45,21.45,0,0,0-3.79,3,21.67,21.67,0,0,0,30.52,30.77l.3.29,97.2-97.35,97.32,97.23.23-.24a21.58,21.58,0,1,0,30.46-30.58Z"
    style="fill:#3264c8"
  /><path
    d="M953.88,371.93c0-1.52,0-1.52,0-3.07-.06-3.88-.12-6.8-.24-9.7A292.28,292.28,0,0,0,950,316.85a163.07,163.07,0,0,0-14.62-44.6A151.28,151.28,0,0,0,907.56,234a148.73,148.73,0,0,0-38.11-27.77,161.19,161.19,0,0,0-44.16-14.65,297.24,297.24,0,0,0-43.51-3.74c-4.77-.2-9-.24-18.35-.24-3.06-.06-6.64-.09-10.67-.11H500.06c-10.84,0-15.75,0-21.94.12-8.95,0-13.18,0-18.62.26a288.49,288.49,0,0,0-42.33,3.65,162.88,162.88,0,0,0-44.59,14.62,153.42,153.42,0,0,0-38.21,27.89c-.52.52-1.32,1.35-2.64,2.74-.21.23-.79.81-1.74,1.77-5.34,5.15-7.71,7.46-10.65,10.4l-12.28,12.28L225.4,343a27.7,27.7,0,0,0-2.24,2c-.57.52-1.69,1.6-2.93,2.82l-3.09,3.08-82,82c-2.15,2.25-3.64,3.76-7.1,7.22-1.93,1.94-3.35,3.42-6.41,6.66a217.88,217.88,0,0,0-17.27,19A63.32,63.32,0,0,0,91.92,485c-6.08,18.52-6.08,36.51-.67,53.23l.73,1.95a64.69,64.69,0,0,0,12.41,19.08,243.48,243.48,0,0,0,17.93,19.66c2.4,2.57,3.82,4.06,5.75,6l7.1,7.1,74.74,74.86c3.49,3.49,5.21,5.19,7.2,7.09,2.11,2.23,4.34,4.45,6.57,6.55q.4.36,95.66,95.55c2.94,2.94,5.31,5.25,10.65,10.4.57.56,1.43,1.43,1.69,1.71,1.37,1.45,2.17,2.28,2.7,2.81a153.08,153.08,0,0,0,37.85,27.71,163.18,163.18,0,0,0,44.58,14.73,294.38,294.38,0,0,0,43.3,3.85c2.48.05,4.54.08,9.14.12,4.43.05,6.39.07,8.79.13H761.87c2.93-.06,4.9-.08,9.39-.13s6.72-.07,9.38-.12a299.59,299.59,0,0,0,43.28-3.93,156.4,156.4,0,0,0,44.91-14.81,149.81,149.81,0,0,0,38.42-27.95,153.91,153.91,0,0,0,27.82-38.24,160.84,160.84,0,0,0,14.72-44.87,286.09,286.09,0,0,0,3.83-43.64c.13-3,.18-5.86.26-12.21,0-3,.06-4.35.1-6V378.3C953.94,376.22,953.92,374.9,953.88,371.93Zm-48,273.23c0,1.31-.05,2.71-.09,5.83-.08,5.93-.13,8.52-.25,11.65a240.88,240.88,0,0,1-3.19,36.85,111.61,111.61,0,0,1-10.18,31.09,105.3,105.3,0,0,1-19,26,102.14,102.14,0,0,1-26.11,19,108.32,108.32,0,0,1-31,10.24,251.63,251.63,0,0,1-36.25,3.28c-2.5,0-4.48.07-9,.12-4.64,0-6.72.07-9.38.12H478.52c-2.14,0-4.2-.08-8.79-.12-4.43,0-6.39-.07-8.79-.12A244.82,244.82,0,0,1,424.86,786,113.84,113.84,0,0,1,394,775.76,104.31,104.31,0,0,1,368.44,757l-1.88-2c-1.87-2-2.68-2.79-3.61-3.62-4.79-4.63-7-6.76-9.57-9.35l-95.45-95.45-1.76-1.6c-1.73-1.66-3.14-3.08-4.47-4.5-2.76-2.67-4.27-4.16-7.73-7.62L169.23,558l-7.12-7.12c-1.47-1.47-2.66-2.72-5.39-5.61a205.49,205.49,0,0,1-15.55-17.07l-1.46-1.64a16.49,16.49,0,0,1-3-4.24,35.17,35.17,0,0,1,0-19.64,14.91,14.91,0,0,1,2.85-4.05l1.64-1.85A179.68,179.68,0,0,1,156,480.54c3.47-3.65,4.66-4.89,6.13-6.37,3.76-3.76,5.44-5.46,7.54-7.67L244,392.2l7.22-7.23,2.83-2.82c2.26-2,3.15-2.8,4-3.68l83.07-83.18L353.38,283c2.59-2.59,4.78-4.72,9.57-9.35.93-.83,1.74-1.66,3.55-3.55l1.93-2a104.62,104.62,0,0,1,25.95-19A113.51,113.51,0,0,1,425.15,239a245,245,0,0,1,35.59-3c5.27-.2,9.07-.24,17.78-.24,6.23-.1,11-.12,21.54-.12H741.89c5.37,0,7.73,0,10.67,0,3.84,0,7.23,0,10.47.1,9.11,0,12.91,0,17.5.23a252.33,252.33,0,0,1,36.78,3.09,112.54,112.54,0,0,1,30.44,10.14A100.81,100.81,0,0,1,873.46,268a103.13,103.13,0,0,1,18.89,25.91,114,114,0,0,1,10.11,30.88,245,245,0,0,1,3,35.6c.12,3.09.18,5.64.23,9.15l0,3c0,3.07.06,4.47.1,6.21Z"
    style="fill:#3264c8"
  /></svg>
