<svg xmlns="http://www.w3.org/2000/svg" xmlns:xlink="http://www.w3.org/1999/xlink" viewBox="0 0 1024 1024"><defs><linearGradient id="a" x1="304.34" y1="168.31" x2="840.21" y2="860.01" gradientUnits="userSpaceOnUse"><stop offset="0" stop-color="#70d48c"/><stop offset="1" stop-color="#3cc"/></linearGradient></defs><path d="M910.92,117C790.83,111.38,679.34,78.19,570.08,15.49a117.09,117.09,0,0,0-116.16,0C344.66,78.19,233.17,111.38,113.08,117,49.67,119.92,0,172.31,0,236.23V513A480.87,480.87,0,0,0,77.79,775.29,488.18,488.18,0,0,0,286.3,954.34l88.17,40a333.07,333.07,0,0,0,275.06,0l88.17-40A488.18,488.18,0,0,0,946.21,775.29,480.87,480.87,0,0,0,1024,513V236.23C1024,172.31,974.33,119.92,910.92,117ZM764,387.79l-296.5,296.5a34,34,0,0,1-48.08,0L260,524.79A34,34,0,0,1,308,476.71L443.5,612.17,716,339.71A34,34,0,0,1,764,387.79Z" style="fill:url(#a)"/></svg>