<svg xmlns="http://www.w3.org/2000/svg" xmlns:xlink="http://www.w3.org/1999/xlink" viewBox="0 0 1024 1024"><defs><radialGradient id="a" cx="615.06" cy="512" r="463.34" gradientUnits="userSpaceOnUse"><stop offset="0" stop-color="#fbfbfb"/><stop offset="0.26" stop-color="#f2f2f2"/><stop offset="0.68" stop-color="#d8d8d8"/><stop offset="0.99" stop-color="#c1c1c1"/></radialGradient><linearGradient id="b" x1="806.83" y1="217.17" x2="948.93" y2="75.07" xlink:href="#a"/></defs><polygon points="1024 232.73 1024 1024 206.13 1024 206.13 0 791.27 0 1024 232.73" style="fill:url(#a)"/><polygon points="791.27 232.73 791.27 0 1024 232.73 791.27 232.73" style="fill:url(#b)"/><rect y="89.77" width="684.88" height="232.73" style="fill:#d8241d"/><path d="M218.77,138.26c33.5,0,50.44,14.21,50.44,42.65,0,28.63-16.94,43-50.83,43H183.91v53.36H161.12v-139Zm-34.86,66.21H217c10.13,0,17.53-1.94,22.2-5.45q7-5.55,7-18.11c0-8.38-2.53-14.22-7.2-17.72-4.68-3.71-12.08-5.46-22-5.46H183.91Zm155.61-66.21c22.59,0,39.54,6.23,51.22,18.69,11.1,11.69,16.75,28.63,16.75,50.84,0,22-5.65,38.94-16.75,50.83-11.68,12.46-28.63,18.69-51.22,18.69H288.69v-139Zm-28,119.58h23.76c17.34,0,30-4.09,38-12.08q11.69-12.27,11.69-38c0-17.53-3.9-30.39-11.69-38.18-8-8-20.64-11.88-38-11.88H311.47ZM523.75,138.26v19.47H451.69v38.56h68v19.48h-68v61.54H428.91v-139Z" style="fill:#fff"/><path d="M621.77,384.51c11.83,48.43-7,97.08-6.06,145.75C666.4,749.3,940.88,621.71,881.77,718,811.22,788,780.45,655,563,724.78c-.91.33-32.52,10.64-39.41,11.94-30.69,49.56-63,115.18-126.26,134.1-80.39-3.8,18.55-106.2,55.29-117.2,46.1-22.65,69.56-62.77,88.7-109.59,18-40.81,32.51-85,43.07-127,1.55-29.7-43.47-158.19,7.13-157.74C606.17,359.41,618.3,370.31,621.77,384.51Zm25.32,249.67,0,0c-.64-.73-13.85-19.32-20-26.13l0,0c-9.74-15.64-15.62-32-25.22-48.19-5.54,22-16.7,41.28-23.23,62.08l0,0c-16.24,31.94-31,63.43-47.73,96.53,51.86-17.2,102.55-34.22,156.26-42,14.58-.14-8.3-10.94-11.94-14.59l.07.08C668.53,656.78,649,636.84,647.09,634.18Zm-176.5,134.7c-10.15-19.33-40,24.34-52.11,32.61C329.51,914.09,458.45,814.14,470.59,768.88ZM777.85,692.4c24.2,17.51,65.09,31.73,91.29,16.43C852.89,680.81,805.94,688.91,777.85,692.4Zm-172.54-269c.61-10-.87-60.35-12.53-39.57C580.72,415.06,599.19,529.73,605.31,423.35Z" style="fill:#d6251d"/></svg>