<svg xmlns="http://www.w3.org/2000/svg" viewBox="0 0 1024 1024"><path
    d="M972.67,972.74c0,25.38-25.81,51.2-51.2,51.2s-51.2-25.82-51.2-51.2h0c-21.81-178.12-175.69-318.49-358.4-324.27-3.95.14,5.34-4.11,1.36-4.11s2.57,4.25-1.36,4.11c-182.69,5.8-336.59,146.16-358.4,324.27h0c0,25.38-25.81,51.2-51.2,51.2s-51.2-25.82-51.2-51.2V955.67c0-6-2.09-11.81,0-17.07,23-161,135.79-288.21,280.36-350.43-84.89-58.06-143.83-153.38-143.83-264,0-178,146.19-324.26,324.27-324.26S836.14,146.17,836.14,324.2c0,110.55-56.19,205.83-141,263.9,146,62.76,255.83,187.53,277.55,350.5,1.15,4,0,12.68,0,17.07ZM733.74,324.2c0-127.16-94.67-221.86-221.87-221.86S290,197,290,324.2s94.67,221.87,221.87,221.87S733.74,451.36,733.74,324.2Z"
    style="fill:#3264c8;fill-rule:evenodd"
  /></svg>
