<svg xmlns="http://www.w3.org/2000/svg" viewBox="0 0 1024 1024"><path d="M244.08,288.91c7.61,1.66,15.22,3.29,22.81,5,4.91,1.11,9.5,2.89,15,8.43-13.48,0-24.93.29-36.36-.12-5.6-.2-7,1.77-6.91,7.06.09,4.79,1.82,5.89,6.27,5.86,17.68-.12,35.36.12,53,.17,3.26,0,6.38-.05,9.07,2.41,3.06,2.8,7.81,5.86,6.78,9.6-1.12,4.08-6.59,1.72-10.08,1.79-18.85.38-37.72.45-56.58.63-4.28,0-8.74-1.26-8.56,6.18.19,7.86,5.37,5.46,9.16,5.49,22.4.15,44.81.07,67.21.08,2.35,0,4.86-.39,7,.28,5.76,1.76,8.77,6.2,8.4,12-.41,6.35-5.9,3.52-9,3.53q-122,.24-244.07.08c-5,0-9.24-.49-8.73,7,.34,5,1.81,6.59,6.72,6.43,12.07-.39,24.15-.48,36.23-.5q107.45-.18,214.88-.28c4,0,7.7-1,8.81,5.3,1.28,7.16-.25,9-7.61,9-83.42-.24-166.84-.06-250.26-.31-7,0-9.39,1.75-8.71,8.7.41,4.22,1.49,5.67,5.89,5a79,79,0,0,1,12.33-.49q120.26-.25,240.51-.34c3.66,0,9.72-2.85,9.73,4.91,0,6.88-3.09,9.27-10.38,9.31-66.59.28-133.17,1-199.75,1.6-16.79.15-33.57.58-50.35.73-5,0-8.22.54-8.06,7.1.17,6.86,4.34,5.66,8.3,5.64q122-.84,244-1.56c2.95,0,8.84-3.28,8.83,3,0,5.48-2,11.2-9.69,11.22q-30.06,0-60.12.26-91.5.6-183,1.29c-3.28,0-7.83-2-8.24,4.61s3,6.92,8,6.87c29.17-.27,58.35-.35,87.52-.5q55.26-.27,110.52-.56c11.19-.08,22.38-.27,33.55-.83,7.36-.37,7.85,2.6,5.45,8.42-2.89,7-8.24,8-15,8q-111,.12-221.94.68c-3.25,0-7.93-2.14-8.11,4.64-.16,5.91,1.14,8,7.72,7.88q99.87-1.25,199.76-1.69c2.85,0,7.38-2.22,8.44,1.83.85,3.27-3.11,5.22-5.78,7-7.11,4.82-15.22,6.28-23.53,6.32-14.14.07-28.29-.07-42.41-.62-3.91-.16-6.12-.33-5.93,4.5.17,4-.34,7.17,5.69,7.13,19.74-.15,39.48.32,59.22.55a75.19,75.19,0,0,1,21.78,3c4.14,1.3,8.37,2.78,10.84,8.63-14.21.52-27.78,1.08-41.36,1.5-16.48.51-33,1-49.45,1.24-4.63,0-6.77.87-6.81,6.23-.05,6.27,3.74,5.37,7.51,5.37h99c2.35,0,4.86-.45,7,.19,5.73,1.67,11,6.11,11,11.22,0,4.52-6.71,2-10.25,2.06-48.33.39-96.67.39-145,.71-33.29.22-66.57.89-99.86,1.08-5.37,0-7.77,1-7.78,7.11s2.43,7.18,7.82,7.13c70.42-.72,140.84-1,211.26-2,15-.22,30-.19,45-.64,4.09-.12,7.65.67,10.33,3.83,2.43,2.86,6.52,5.83,5.09,9.61s-6.21,1.7-9.43,1.72c-40.08.23-80.17.16-120.25.4-47.14.28-94.28.77-141.41,1.23-3.77,0-8.28-1.62-8.39,5.42-.11,7.47,4.63,6,8.81,6q131.76,0,263.52,0a60.82,60.82,0,0,0,6.19,0c5.81-.59,8.14,2.43,8.11,7.71,0,5.84-4.64,4.19-7.8,4.22q-68.06.87-136.1,1.53c-44.78.42-89.57.71-134.35,1.1-3.89,0-8.22-1.33-8.38,5.55-.17,7.62,4.75,5.88,8.82,5.89q134.42.06,268.83.07c4,0,9.21-1.79,9.43,5.61.17,5.82-1.21,8.4-7.76,8.35-28-.22-56,0-84,.16-62.47.37-124.94.89-187.4,1.07-6.16,0-8.4,1.58-7.88,7.83.32,3.88,1.61,5.18,5.31,4.9,2.63-.2,5.3,0,8,0q130,0,260,.2c3.49,0,10.38-4.05,10.37,4.67,0,7.69-3.87,10.48-11.73,10.46q-131.33-.32-262.64,0c-3.16,0-8.13-2.58-9.06,3.68-.85,5.69.65,8.34,7.36,8.27,34.19-.32,68.39-.09,102.58-.16q71.63-.14,143.24-.43c3.83,0,7.74-.62,11.46,0,2.9.46,8.29-3.06,8.36,2.64.07,5.27-.8,11.65-8.93,11.57-7.08-.08-14.15,0-21.23,0-22.1,0-44.21.21-66.32-.14-5.91-.09-6.63,2.3-6.67,7.26s1.52,6.59,6.54,6.47q32.69-.81,65.38-1c3.69,0,10.27-2.79,10.56,1.74.34,5.41-4,11-10.12,13.06-2.4.83-5.25.46-7.9.48-19.16.12-38.32.39-57.47.17-5.44-.06-7,1.55-7,6.93s1.43,7,6.94,6.83c13.41-.42,26.85-.14,41.31-.14-3.18,4.81-7.65,6.1-11.9,7.51-16.2,5.37-33,5.46-49.83,5.42q-99.46-.27-198.95-.55c-4.71,0-9.42-.2-14.12-.4C.24,733.54.24,733.51.24,721.43q0-213.18,0-426.37c0-2.05-.15-4.1-.23-6.15Z" style="fill:#fae907"/><path d="M902.64,641.86c-9.95,13.42-19.86,25.77-28.48,38.95-3.49,5.33-1,12.66-1.11,19.07-.1,8.2,0,16.43.52,24.62.31,5.07-.65,7.27-6.52,7.11q-24.3-.65-48.62,0c-5.74.15-6.74-1.87-6.71-7,.17-23.18-.05-46.37-.17-69.56-.39-75.12-.63-150.25-1.42-225.36-.09-8.86,3-10,10.63-9.51,13.5.87,27.07.95,40.61.79,5.44-.06,6.87,1.49,6.93,6.92.55,47.81,1.4,95.62,2.24,143.43.08,4.94.61,9.88,1,14.91,3.6-.34,4.38-3.21,5.89-5.16,19.21-24.88,38.46-49.74,57.44-74.8,3.31-4.37,6.61-6.42,12.35-6.31,20.76.38,41.53.15,64.12.15C1000.45,515,990.73,528.51,981,542s-19.15,26.76-29.2,39.77c-3.79,4.91-4,8.53-.93,14,23.08,41.52,45.77,83.25,68.58,124.92,1.4,2.56,2.74,5.14,4.58,8.6-16,2.26-31.46,1.43-46.84,2.19-1.17.06-2.44-.27-3.52,0-17.89,5.43-25.68-4.4-32.78-19C929.36,688.81,915.89,666.1,902.64,641.86Z" style="fill:#6b1885"/><path d="M505.66,711.23c-30.46,25.51-63.87,28.91-99.11,18-28-8.67-41.64-29.38-43.34-57.93-1.48-24.88,6.13-45.86,29.27-58.55,12-6.57,25.67-8.34,38.73-11.61,16.8-4.2,33.62-8.66,51.07-9.59a21.1,21.1,0,0,0,4.27-1c11.64-3.13,17.89-8.79,17.47-15.8-.5-8.29-12-20.43-20.95-21.16-7.6-.62-15.39-1-22.91-.07-12.42,1.55-22.75,6.71-25.09,20.66-.61,3.6-2.48,4-5.41,4.06-16.78.17-33.56.29-50.34.75-5,.14-6.42-1.49-6.53-6.48-.59-26.32,15-50.86,41.19-59.68,35-11.81,71.1-14.16,106.89-4.31,28.62,7.88,44.67,22.78,44.53,65.45-.14,42.51,1.38,85,2,127.55.13,8.77,3.92,16.46,6.46,24.49,1.45,4.59.34,5.5-4.11,5.58-17.35.3-34.72.48-52,1.6-7.2.47-9-2.74-9.68-8.55C507.54,720.54,506.62,716.54,505.66,711.23ZM504,628.32A186.58,186.58,0,0,1,473,640.57c-10.35,3.23-20.83,6-31.23,9.06-12.19,3.55-18.46,11.7-17,22s10.95,18.84,22.45,18.52c17.18-.46,32.52-7.1,45.86-17.59C507.36,661.29,504.65,645.08,504,628.32Z" style="fill:#6b1885"/><path d="M649.72,530.89c6.74-5.19,13.45-10.41,20.22-15.56,19.23-14.62,41.35-16.47,63.86-12.29,34.39,6.39,51.69,35.77,52.85,64.46,2.11,52.46,1.51,105,2.34,157.54.1,6.23-1.68,7.94-7.86,7.76-15.31-.44-30.66-.54-46,0-7.06.26-8.09-2.37-8.08-8.59.06-44-.27-88.06-.43-132.09-.07-21.38-20.32-37.52-41.35-32.88-24.17,5.34-35.09,18.71-35.81,47.15-.68,26.67.32,53.38.61,80.07.14,13.21.19,26.41.57,39.61.14,4.76-1,6.79-6.34,6.57-16.47-.69-33-1.09-49.44-1.07-5.43,0-7-1.52-7-6.94-.16-49.31-.57-98.61-1-147.91-.15-19.36-.15-38.73-.83-58.08-.24-6.81,2-8.39,8.47-8.19,15.31.47,30.66.55,46,0,7.44-.28,9.32,2.13,8,9-.64,3.36.13,7,.27,10.5-.32.41-1,1-.88,1.19C648.65,532.38,649.2,531.58,649.72,530.89Z" style="fill:#6b1885"/></svg>