<svg xmlns="http://www.w3.org/2000/svg" viewBox="0 0 1024 1024"><path d="M994.64,706.88c-6.51,12.18-19.48,24.59-19.1,38.34,25.69-6.89,36.49-33.11,48.27-54.33,4.94,45.91-31.07,77.35-57.19,110.12,26.1-12,44.54-30.27,56.79-55.06-16.89,84.86-81.35,150.91-149.47,199.63-65.73,42.92-147.84,52.5-224.72,49.28C371,983.63,158.54,720.75,197.66,446.64,34.57,532.05-67.54,395.05,56.1,260c4.09,35.74,21.43,65.1,64.32,56.87C202.15,305,256,240.24,313.41,187.58,392.13,110.33,489.72,50,600.47,34.4c14.47-1.13,81.71-13.34,87.21-1.35,9.76,18,14.77,47.25,40.82,45.34,22.65-.4,46.32-.68,66.66,10.68,39.13,20.36,1.83,52.52,32.93,66.82,18.58,10,37.87,18.53,59.09,20.2a223.24,223.24,0,0,0,40.29-.81c37-8.5,77.92,39.26,46.41,68.75-32.23,24.22-65.81,31.5-84,72.61-115.44-101.35-298.62-101.45-412,3.23-328.78,336.8,162.72,771.32,478.88,418.42C968.38,727,980.78,715.42,994.64,706.88Z" style="fill:#f5130c"/><path d="M714.18,435q57.87,0,115.73,0c27.35,0,47.93,20.53,48,47.85q0,72.72,0,145.43c0,27.54-20.65,48.23-48.21,48.24-288.12-13.23-285.09,68.29-279.59-193.41C550.07,455.9,570.85,435,598,435Q656.06,434.9,714.18,435Z" style="fill:#443c3c"/></svg>