<svg xmlns="http://www.w3.org/2000/svg" viewBox="0 0 1024 1024"><path d="M865.07,400.92l-117.16,124L508.07,291.55,270.51,541.07,503.62,791.19c8.57-9.32,16-17.83,23.91-26Q632.5,657,737.47,548.72c6.06-6.27,12.09-9.48,21.09-9.42,61,.41,122.07-.23,183.08.8,12.54.22,25.39,5,37.35,9.64,9.09,3.5,14.19,11.13,13.16,22.32C979.48,710.38,921.67,825.5,815,915c-177.14,148.57-442.72,144.94-615.46-8.84C83.73,803.09,28.28,672.75,31.88,518.26c5-214.3,151.61-399.06,357.35-457,78.23-22,143.77-.22,202.86,48.66C616.65,130.23,637.16,155.53,659,179Q761,288.41,862.65,398.14C864,399.62,865.3,401.19,865.07,400.92Zm89.09-183C895.82,147,831.05,83.45,748.51,40.69,689.07,9.89,626.37-5.84,559,2c-27,3.15-53.07,10-77.52,22.28,25.45-2.91,48.43,4.78,70.69,15.35,36.7,17.42,68.91,41.57,99.53,67.86C733.82,178,805.23,258.66,872.92,342.8c6.28,7.8,12.61,15.55,20.78,25.63,32.47-35.05,63.92-69,96.62-104.32C979.74,250.55,967.33,233.91,954.16,217.9Z" style="fill:#025098"/></svg>