<svg xmlns="http://www.w3.org/2000/svg" viewBox="0 0 1024 1024"><path d="M306.41,4V379.66c19.73,5.67,22.36-9.56,28.88-17.68C515.27,110,920,204.69,967.06,513.42c23.16,142.94-59.28,303.43-195.12,359,10.71-48.88,34.28-93,21.08-146.08-55.65-.2-112.15.51-167.93-.09-17.19-.23-25.33,6.57-27.7,24.1-10.67,132.88-235.67,174.27-282,28.91C277.32,674.3,346.1,583.83,436.82,577.42,591,570.56,571.75,690,620.47,699.26c57.12-3.78,118.69,7.28,173.52-6.09,2-160.61-142.86-291.54-282.63-316.28C125.07,312.37-36.37,824.11,265,1024,145.21,988.19,50,879.34,53.13,750.39c2-158.84,1.14-317.71.09-476.56-.17-25.51,6.49-44.58,24.86-62.2C152.62,142.26,221.79,66.88,298.49,0Z" style="fill:#00408a"/></svg>