<svg xmlns="http://www.w3.org/2000/svg" viewBox="0 0 1024 1024"><path d="M0,422.63c1.75-10.42,2.7-21.05,5.37-31.23C26.22,312,73,254.6,153.25,232.24c78.62-21.91,149.89-2.76,210.69,52.31,21.89,19.83,38.91,43.55,52.57,69.7.67,1.29,1.16,2.68,1.34,3.1-16.3-.28-32.7-1.47-49-.65-49.77,2.5-94.23,19.85-133.87,49.88-47.94,36.32-74.92,84.75-82.74,144-1.49,11.3-1.35,22.86-1.36,34.3q-.13,172,0,344c0,6.28-.58,12.29-6,16.57H139.7c-3.93-2.33-8.13-4.31-11.75-7.06q-51.39-39.13-102.6-78.54a106.8,106.8,0,0,1-11.22-9.67c-7.94-8-11.52-18.32-14.13-29ZM879.29,78.52c-6.46,4.5-6.11,11.34-6.11,18q0,167.16,0,334.34c0,10.42,0,20.9-.93,31.26-3.87,41-17.42,78.6-43.62,110.5-45.53,55.43-104.89,84.8-176.41,89-15.25.89-30.65-.64-46.23-1.07a47.59,47.59,0,0,0,2.81,5.76c8.75,13.46,16.55,27.71,26.58,40.15,53.8,66.73,123.92,95.41,208.84,85.45,48.58-5.7,89.2-28.77,121.86-65,38.17-42.33,58.06-92,58-149.41q-.27-183.85-.26-367.72c0-17.8-7.26-32.06-21.3-42.89-21.13-16.3-42.22-32.68-63.51-48.78-17.69-13.38-35.64-26.41-53.48-39.59ZM178.92,662.7c15,35.13,36.66,65.24,67.05,88.63,43.18,33.24,92.66,44.71,146.2,41.17,56.74-3.76,104-28,142-69.39,33.65-36.62,47.48-82.13,53-130.35,3.72-32.27,9.56-63.87,21.83-94.05,14.11-34.69,33.45-66,62.07-90.6,40.3-34.6,88.2-49,140.56-50.13,11.38-.24,22.78.84,34.29,1.32-.33-1.05-.62-2.21-1.06-3.31-13-32.73-32.19-61.22-59.57-83.47-54-43.92-116.43-54.91-183.19-42.28C527.29,244.41,446.92,311.8,437.8,419.1c-3.25,38.32-11.86,75.29-28,110.26-18.17,39.44-42,74.37-79.69,98.17C290,652.9,246.51,665,198.93,661.25c-6.94-.55-13.85-1.52-21.19-2.33C178.22,660.49,178.47,661.64,178.92,662.7Z" style="fill:#003473"/></svg>