<svg xmlns="http://www.w3.org/2000/svg" viewBox="0 0 1024 1024"><path d="M636.35,318.21c-103.72-.07-203,.22-306.16-.19-11.92,0-18.53,1.81-18.47,16.25,2.12,131.06-2.92,262.47,2.18,393.18,292.72-167.24,408.91,147.13,686.75-64.2,7.42-4.35,11.32-10.6,21.31-8.92,4.07,74.17.69,148.9,1.29,223.25-.06,7.28-2.22,17.55-7.25,21.35C895.37,1001.82,768.15,1015,626.85,941c-229.19-106.23-342.26,92.21-384,35.87Q127.6,854.84,13.37,732C5.9,723.87.71,710.32.63,699.27-.26,576.61-.09,454,.44,331.29c0-7.05,4-15.75,9-20.86Q138.89,178.34,269.51,47.36c6.2-6.21,17.21-10.72,26-10.77q182-1,363.93-.07c7.69,0,17.39,3.55,22.71,8.88Q813.53,177.05,943.61,310c5.38,5.49,9.25,15.06,9.3,22.76q.93,145.56-.06,291.14c-.05,7.21-4.76,17.18-10.54,21.13-96.13,65.76-196,60.68-297.14,13.07-5.19-2.45-8.44-14.19-8.48-21.62C636.1,529.93,636.38,425,636.35,318.21Z" style="fill:#d90514"/></svg>