<svg xmlns="http://www.w3.org/2000/svg" viewBox="0 0 1024 1024"><path d="M990.48,686.42C805,1204.78,36,1093.19,1,543-30.38-31.18,765.32-211.9,985.71,319c5.42,13.34,10,27.06,14.4,40.79,3.14,9.78,2.18,10.93-8,11-22.14.18-44.28.05-66.41.05-42.83,0-85.66-.23-128.49.21-9.09.09-13.47-2.87-16.86-11.42-40.91-102.74-80.94-203.07-122.6-305.9C607.1,174.86,564.12,286.36,514.51,408.22c-48.94-118.13-96.57-233.1-144.84-349.58C275.78,274.07,192.83,495.3,102.11,712.54c-3,7.09-2.37,12.23,2.11,18.47q49.67,69.18,98.54,138.91c4.62,6.6,9.77,7.91,16.94,7.87q291.62-.36,583.25.17c12,0,18.93-3.49,25.52-13.68,29.24-45.24,59.27-90,89.55-134.54,12.15-15.3-4.53-27.18-4.72-43.32ZM611.62,363.77,467.18,717.55C418,598.23,324.1,368.83,324.1,368.83s-5.89.56-3,.36-144.31,353-144.31,353l573.87.63,4.45-6.63ZM809.84,393.6c-4.25,0-8.67-.88-14,2,5.52,18.42,5.85,25.85,26.72,24.08,62.5-.25,125,.49,187.51-.3,8.27-.25,1.29-18.74-.84-22.9-2.94-5-8.73-2.77-13.27-2.78Q902.88,393.48,809.84,393.6Zm197.9,48.19c-62.39-.06-124.79-.28-187.17.07-3.44.13-5.12,1.69-4.7,5.42,1.61,14.19,8.66,20.55,23.14,20.55,59.67-2,122.52,4,180.71-2.14,2.43-6.66.1-13.27-1.24-19.73C1017.24,439.9,1011.69,441.81,1007.74,441.79Zm14.94,52.82c-1.33-5.76-7-4-11-4-59.08-.17-117.07,0-176.37-.08-.89,5.36.62,6.93,2.1,11.3,6.89,16.92,4.5,14.65,21.53,14.69,41.78.11,83.56,0,125.34,0,10.09,0,20.17,0,30.25,0C1027.06,519.09,1024.15,502.15,1022.68,494.61Zm-13.95,44.72c-51.47,1.7-104.11-3.65-154.8,2,5.76,16.8,6,26.1,25.59,24q67,0,133.93-.07c2.42,0,4.81-.25,6.42-2.41,1.48-2,2.57-19.6,1.07-21.25C1017.53,537.8,1012.85,539.34,1008.73,539.33ZM875,589.13c-1.69,4.79.68,8.23,2.15,11.59,6.75,15.45,3.83,13.33,19.44,13.38,32.13.1,64.25.22,96.37-.05,22.75-.19,19.88,4.78,23.75-21.29.13-.88-.32-1.85-.66-3.63ZM894.52,638c-1.4,5.19,1.11,9,2.68,12.87,4.79,12,4.85,12,17.53,12,22.06.06,44.12,0,66.18,0,22.19.84,24.31-2.54,24.73-24.94Z" style="fill:#c6162e"/></svg>