<svg xmlns="http://www.w3.org/2000/svg" viewBox="0 0 1024 1024"><path
    d="M303.61,701.88c0-52.51-.29-103.49.57-154.45.06-3.92,7.86-10.51,12.68-11.13,75.67-9.82,151.49-9.75,227.37-2.17,35.95,1.71,95.34,20.6,110.78-23.25,24.74-121.09-277.69-82.72-350.2-88.51V262.9c111.88-7.82,226.2-13,334.35,22.64C764.91,322.3,869.82,472,728.5,563.63c159,44.2,253.89,178.53,129.74,319.26C633.12,1125.53,204.47,1039.2,64.15,746.52-186.69,275.91,410.85-231.61,828.7,113.79,984.26,236.42,1058.69,461,998.55,651c-31-37.41-64.68-69.28-105.7-93-4.2-2.42-5.9-12.53-5.58-18.92C904.8,316.9,709.35,110.73,484.14,137.53,55.23,162.77,23.63,811.72,444.49,884.11c88.4,16.24,183.75,10,259.64-44.47,38.3-32.77,36.86-79.15-7.31-103.21C575.73,675.69,436.5,695.14,303.61,701.88Z"
    style="fill:#fe0000"
  /></svg>
