<svg xmlns="http://www.w3.org/2000/svg" xmlns:xlink="http://www.w3.org/1999/xlink" viewBox="0 0 1024 1024"><defs><linearGradient id="a" x1="512" y1="252.5" x2="512" y2="883.69" gradientUnits="userSpaceOnUse"><stop offset="0" stop-color="#ef8d00"/><stop offset="1" stop-color="#c23b1e"/></linearGradient><linearGradient id="b" x1="401.98" y1="138.21" x2="260.96" y2="279.24" xlink:href="#a"/><linearGradient id="c" x1="605.03" y1="177.07" x2="749.81" y2="321.86" xlink:href="#a"/></defs><path d="M1005.11,431.86,597.82,839.16a121.38,121.38,0,0,1-171.64,0L18.89,431.86a64.43,64.43,0,0,1,0-91.16L151.83,207.76l30.48-30.49a43.09,43.09,0,0,0,0,61L512,567.93,841.69,238.24a43.09,43.09,0,0,0,0-61l30.48,30.49L1005.11,340.7A64.43,64.43,0,0,1,1005.11,431.86Z" style="fill:url(#a)"/><path d="M493.21,227.59,332.44,388.37,182.31,238.24a43.09,43.09,0,0,1,0-61l.52-.52a93.76,93.76,0,0,1,66.29-27.46H414.91Z" style="fill:url(#b)"/><path d="M841.69,238.24,689.48,390.45,585.08,286.06H477.55L613.79,149.82H775.4a93.73,93.73,0,0,1,66.29,27.45h0A43.09,43.09,0,0,1,841.69,238.24Z" style="fill:url(#c)"/></svg>