<svg xmlns="http://www.w3.org/2000/svg" viewBox="0 0 1024 1024"><path d="M5,732.85c-4.9-4.54-7-9.59-2.77-15.73l0,0c10.39-9.55,21.85-26.44,30.68-35.79l-.06.07c9.13-12.32,18.37-22.71,26.48-33.26l0,0c59.4-72.38,114-153.72,159.16-234.14l-.09.12c2.44-2.82,8.91-14.65,8.93-15.57l-.06.09c68.56-117.9,107-214.43,148.83-322.78,37.37,101,80.65,222.59,133.51,327.74,0,0,4.22.73,6.31.92-49.71,87.8-98.31,189.74-160.46,270.22-1.89-7.12-11.69-3.94-11.69-3.94-9.25,1.36-65.84,4.79-76.52,5.54C218,688.13,31.61,696.44,5,732.85Z" style="fill:#c00118"/><path d="M158.61,928.55c-1.19,3.8-7.58,3.69-8.61,8.9-1.95.8-2.47,2.43-2.51,4.33-5.86,2.65-11.53,8.52-17.79,9.28-.3-.43-2.62-8.14-6.52-11.27-.55-1.07-1-4.13-2.29-4.08C85.1,871.45,40.11,798.82,5,732.85c8.53-24.06,98.76-29.55,124.43-36.43,68.4-13.91,147.73-20.16,214.27-25.6,0,0,9.8-3.18,11.69,3.94.14,7.5-7.28,11-9.19,17.41l-2.13,2.12C314.69,736.1,284.94,777.65,253.52,818c-7.92,6.68-15.12,13.89-18.23,24.19a4,4,0,0,0-4,4.25c-2.64.53-4.19,2-4.19,4.83-3.48,1-4.28,4.6-6.7,6.62-5.9,2.84-8.64,8.93-12.51,13.52-9.54,11.28-21.88,20.5-27.55,34.86-6.93.82-15.16,16-15.23,15.63C161.32,922.16,158.75,924.4,158.61,928.55Z" style="fill:#e20323"/><path d="M894,948.25c-7.3,1.33-12.2-1.76-17-7.3-70.27-76.59-160.24-188.29-212.57-270.82,117.61,8,217.33,22.29,341.1,48.19,0,0,8.2-1.23,8.27-6.79,12.44,9.22,12.62,9.73,5.33,22.33C977.09,805.07,937.27,877.89,894,948.25Z" style="fill:#c00118"/><path d="M642.29,84.75c-32.95,104.41-78.67,216.57-126.4,319.8-2.1-.2-6.32-.93-6.32-.93C456.66,298.35,413.48,177,376.06,75.88c3.51-10.72,16.08-5.35,30-6.18,83.78,5.1,132.05.14,238.8,2.34C643.56,76.19,641.39,80.15,642.29,84.75Z" style="fill:#720208"/><path d="M898.44,562c-10.78-3.61-20.1-22.14-20.1-22.14s-26.08-40.3-39.23-60.39c-2.23-3.41-2.52-6.73-2.35-10.42Z" style="fill:#bf0218"/><path d="M644.86,72c-106.65-2.2-155.13,2.76-238.8-2.34,78.06-.12,234.18-.31,234.18-.31s5.37-1.14,6.21,2.61A2.24,2.24,0,0,0,644.86,72Z" style="fill:#720308"/><path d="M836.79,469.06c-7.78-.27-11-12.2-11-12.2L802.39,419.5s-.87-6.36-1.22-9.59C813.93,429.09,825.75,448.84,836.79,469.06Z" style="fill:#bf0218"/><path d="M987.11,678.84c-9.37,0-17-14-17-14s-12.49-15.29-14.27-25.43C966.82,652.1,977.72,664.88,987.11,678.84Z" style="fill:#bf0218"/><path d="M953.85,636.94c-13.29-9.74-24.15-21.33-28.69-37.73A332.38,332.38,0,0,1,953.85,636.94Z" style="fill:#bf0218"/><path d="M1013.92,711.74c-9.27-.52-24.35-23.91-26.91-33C996.82,689.06,1006.79,699.25,1013.92,711.74Z" style="fill:#bf0218"/><path d="M644.86,72c7.68,5.26,10.1,25.32,14.48,34.73-5.43-1.44-6-10.35-6-10.35C648.24,80.79,637,91.1,644.86,72Z" style="fill:#bf0218"/><path d="M916.79,588c-7.41-1.28-9.89-6.08-9.32-13A32.06,32.06,0,0,1,916.79,588Z" style="fill:#bf0218"/><path d="M925.26,599.33c-6.86-.83-9.56-4.8-8.66-11.48C920.77,590.7,923.28,594.82,925.26,599.33Z" style="fill:#bf0218"/><path d="M907.54,575.05c-7.78-1-8.4-7.08-9.08-13.07C902.38,565.72,905.85,569.77,907.54,575.05Z" style="fill:#bf0218"/><path d="M5.12,732.81c8.22-.74,4.59,5.41,5.26,9.06-3-.33-1.58-3-4-4C6.22,736.26,5,734.86,5.12,732.81Z" style="fill:#bf0218"/><path d="M955.78,639.23l-2-2.35Z" style="fill:#bf0218"/><path d="M516.28,402.76c.67-.84,1.34-1.67,2-2.51C517.61,401.08,517,401.92,516.28,402.76Z" style="fill:#bf0218"/><path d="M836.76,469v0l0,0Z" style="fill:#c00118"/><path d="M987.11,678.84c-17.13-13.35-22.21-17.7-33.33-42,.5.53-24.63-21.93-28.52-37.55.28.37-10.34-5.8-8.47-11.31l-9.3-13c-25-30-39-48.77-68.38-95.57-2.18-3.34-2.35-10.12-2.35-10.39-8.88-7.09-28.27-39.78-34.37-49.53-.56-2.31-.63-13.47-4-16.55a2094.55,2094.55,0,0,1-139-296.18c-5.42-1.44-6-10.35-6-10.35s-4-10.9-11-11.67c-32.23,103.25-77.86,212.73-124,315.5-4.16,3.38.08,8-6,9.38a4.23,4.23,0,0,0-2.4,1.86c6.6.89,6.58,7.17,8.7,11.31,22.67,44.22,45.52,88.33,71.62,130.66h0c3.73,6.72,6.47,14.06,12.15,19.56h0a82.44,82.44,0,0,0,13.25,22.07h0a32.88,32.88,0,0,0,8.9,14.11c0,1.61.26,3,2.06,3.54h0a2.59,2.59,0,0,0,2,2.61,13.13,13.13,0,0,0,5,8.31v-.18l.18.29-.16-.09c3.85,8.89,9.43,16.67,15.5,24.14,0-.08,0-.14,0-.22.72,1,1.37,2,2,2.75h0L649.13,648a2.15,2.15,0,0,0,1.8,2.47c.71,2.83,1.91,5.33,4.47,7-.6,4.25,9.44,7.47,1.23,12.47,120.84,7.17,222.3,22.19,348.89,48.45.24.33,8.23-2.07,8.4-6.58C1005.33,712,988.81,686.81,987.11,678.84ZM591.21,553.78l-.81-.26C590.67,553.6,590.94,553.68,591.21,553.78Zm10.38,14.94a39.6,39.6,0,0,1,.85,4.34h0C602.13,571.63,601.87,570.17,601.59,568.72Zm25.85,45.06.65.76Z" style="fill:#e70022"/><path d="M907.47,575l0,0,0,.06Z" style="fill:#c00118"/><path d="M877,941c-72.37-80.19-154-180.24-212.57-270.82-138.61-3.89-159.78-15.37-309,4.63.14,7.5-7.27,11-9.2,17.41C298.6,756.53,298.33,760,253.52,818c-11.15,10.79-11.88,9.83-18.23,24.18a4.06,4.06,0,0,0-4,4.24c-2.61.56-4.2,2-4.19,4.84-3.48,1-4.26,4.6-6.69,6.62-5.9,2.85-12.51,13.52-12.51,13.52s-21.89,20.5-27.56,34.85c-7.37,1.9-12.32,8.84-15.21,15.61-4.78.3-6.8,3.89-6.76,8.4-5.29,2.39-5.38,2.15-8.4,7.2-1.94.8-2.46,2.43-2.5,4.33-4.65,4.41-17,5.79-15.28,13.14,143.51-31.69,378.63-34.42,526.1-30l226.25,28.91s8.28-.34,9.47-5.57C886.73,949.58,877,941,877,941ZM311.65,924s.83.23,1,.31C312.51,924.27,311.65,924,311.65,924Z" style="fill:#730207"/><path d="M344.1,694.29l2.13-2.12Z" style="fill:#bf0218"/></svg>