<svg xmlns="http://www.w3.org/2000/svg"  viewBox="0 0 1024 1024"
    fill="currentColor"><path d="M511,253.5a50.1,50.1,0,0,1-50.1-50.1V50.1a50.1,50.1,0,1,1,100.2,0V203.4A50.1,50.1,0,0,1,511,253.5Zm-62.57,29.8a50.1,50.1,0,0,0-18.34-68.43L297.33,138.22A50.1,50.1,0,1,0,247.23,225L380,301.64a50.08,50.08,0,0,0,68.44-18.34ZM644,301.64,776.77,225a50.1,50.1,0,1,0-50.1-86.77L593.91,214.87A50.1,50.1,0,1,0,644,301.64ZM297.33,496l132.76-76.65A50.1,50.1,0,1,0,380,332.6L247.23,409.25A50.1,50.1,0,1,0,297.33,496Zm497.78-18.34a50.1,50.1,0,0,0-18.34-68.43L644,332.6a50.1,50.1,0,1,0-50.1,86.77L726.67,496a50.08,50.08,0,0,0,68.44-18.34ZM448.43,670.06a50.11,50.11,0,0,0-18.34-68.44L297.33,525a50.1,50.1,0,1,0-50.1,86.78L380,688.4a50.08,50.08,0,0,0,68.44-18.34ZM644,688.4l132.76-76.65A50.1,50.1,0,1,0,726.67,525L593.91,601.62A50.1,50.1,0,1,0,644,688.4ZM297.33,882.78l132.76-76.65A50.1,50.1,0,0,0,380,719.35L247.23,796a50.1,50.1,0,1,0,50.1,86.78Zm497.78-18.34A50.11,50.11,0,0,0,776.77,796L644,719.35a50.1,50.1,0,1,0-50.1,86.78l132.76,76.65a50.08,50.08,0,0,0,68.44-18.34ZM561.1,973.9V820.6a50.1,50.1,0,1,0-100.2,0V973.9a50.1,50.1,0,1,0,100.2,0Z" style="fill:#f5c503"/></svg>
