<svg xmlns="http://www.w3.org/2000/svg" viewBox="0 0 1024 1024"><path d="M497.85,241.23c-6.45,6.94-10.42,11.49-14.68,15.75-38.1,38.09-75.7,76.7-114.71,113.85-13.34,12.7-14.31,19.74-.47,33.3,79.53,77.92,157.61,157.31,237.17,235.19,14.22,13.92,15,20.81.25,35.14-70.16,68.23-139.24,137.58-208,207.25-12.14,12.3-18.73,15.38-32.85,1.13Q188.26,704.9,10,528.91c-13.58-13.42-13-20.31.16-33.29Q188.52,319.77,365.5,142.51c10.69-10.69,16.67-14.51,29-1.32,28.75,30.84,59.35,60,89.37,89.64C487.65,234.6,492.51,237.32,497.85,241.23Z" style="fill:#162e56"/><path d="M954,445.65q-232,0-463.93.16c-9.93,0-16.88-3.66-23.49-10.52-15-15.52-31-30-45.45-46-6.36-7.06-21.21-11.34-14.45-25,6.21-12.55,19.26-10.86,31-10.81,34.17.13,68.35,0,102.52.05,102.52.16,205,.65,307.55.21,15.62-.07,26.87,4.21,37.81,15.47,23.54,24.23,48.6,47,73,70.36Z" style="fill:#bca070"/><path d="M505.51,466.65h96.32c118.74,0,237.49,1.21,356.19-.78,33.75-.56,45.18,24.67,64.45,41.68,1.81,1.6,1.87,6.71.94,9.63-4.54,14.2-43.09,41.54-58.47,41.55q-178.1.1-356.21.08c-10,0-19-.35-27.06-8.47C555.74,524.27,529,499,502.57,473.42Z" style="fill:#bca070"/><path d="M436.28,331.76c32.31-31.47,59.27-57.55,86-83.87,5.61-5.54,12-7,19.47-7q102.32.18,204.63,0c6.54,0,12.08,1.39,17.12,6,28.08,25.82,56.38,51.4,84.6,77.07l-6.49,7.72Z" style="fill:#bca070"/><path d="M643.13,671.86c.4-19.32,28.19-21.84,20-39.07-5.83-12.22-19.43-20.73-29.46-31-5.52-5.66-10.83-11.52-18.83-20H964.92c-33.6,31.66-62,58.31-90.25,85.16-5.17,4.91-11.26,4.94-17.54,4.94C786.22,671.87,715.3,671.86,643.13,671.86Z" style="fill:#bca070"/><path d="M527.79,778.43q40-39.75,79.88-79.55c5.69-5.7,12.63-6,19.93-6,71,0,142,0,220.95,0-33,32.71-61.54,61.17-90.42,89.3-2.18,2.12-6.67,2.63-10.08,2.64q-108.75.21-217.48.11C529.65,782.76,528.72,780.59,527.79,778.43Z" style="fill:#bca070"/><path d="M737.36,218.71H551.55c31-30.85,58.4-58.13,85.77-85.47,6.86-6.85,10.87-1.08,15.3,3.21Z" style="fill:#bca070"/><path d="M549.93,806.52H735c-30.52,30.34-57.23,56.92-84,83.46-5.38,5.34-10.86,5.22-16.28-.12C608.23,863.82,581.74,837.79,549.93,806.52Z" style="fill:#bca070"/></svg>