<svg xmlns="http://www.w3.org/2000/svg"  viewBox="0 0 1024 1024"
    fill="currentColor"><path d="M513.52,0c14.28,7.65,28.58,15.24,42.83,22.94C684.18,92.35,795.19,183.06,886.67,296.36,503.32,155.76,172.53,532.78,481.26,660.07,318.59,708.42,108,679,7.75,529.54c-7.16-11.42-7.61-20.4-1.3-32.73Q173,171.71,498.52,6.62c3.6-1.82,8.3-2.24,10.34-6.62Z" style="fill:#0265fe"/><path d="M138,729.6c148.67,50.64,317.61,38.65,443-62.17C694.38,587.12,687.85,393.72,536.31,365c158.36-49.26,358.89-24.25,467.05,111.38,24,32.21,23.78,33.18,5.16,68.76A1091.27,1091.27,0,0,1,793.83,830.44,1087.23,1087.23,0,0,1,520,1021.64c-5.81,2.85-10.21,3.29-16.11.37C361.81,950.7,236.05,854.9,138,729.6Z" style="fill:#caa633"/></svg>
