<svg xmlns="http://www.w3.org/2000/svg"  viewBox="0 0 1024 1024"
    fill="currentColor"><path d="M190.09,961.45c120.35-91.92,238-202.73,264.06-357.54,19.58-194.19-229-148.18-333.58-77.58-28.41,16.42-55.27,35.53-83.41,53.79-1.24-4-2.83-7-2.22-7.52,90.47-82.94,193.49-140.13,319-142.35,340.68,9,175.75,418.49-18.84,525.22-15.31,11.1-33.44,5.32-50.3,5.76C255.85,962,226.88,961.45,190.09,961.45Zm143.47-365C277.9,615.55,222.11,626.1,165.09,601c-12.55-5.52-18.13,2.62-21.38,14C121.42,692.85,72.88,752.5,12.32,803.83c-5.68,4.83-16.08,9-10.93,18.75s14.61,3.55,21.87,1.77c54.51-13.44,108.24-13.58,160.57,9.08,20.92,9.06,30.38,1.81,37.73-19.12,26-74,61.58-142.89,116.16-200.59,3.89-4.1,9.64-8,7-15.19C341.31,595.33,337.74,595,333.56,596.42Z" style="fill:#095caa"/><path d="M730.43,472.31c5.16-23.41,18.31-32.86,38.69-35C1095.58,396.57,1077.92,716,887.5,882.82c-83.88,84.4-126.69,85.65-241.2,78.32-.56,0-1.1-1.48-2.85-4,94-62.63,181.93-135.71,240.58-233.89C980.79,571.12,923.81,434,730.43,472.31Zm-483-233.85C535.25-15.09,859,90.85,569.15,466.06c-5.32,6.59-17.36,12.61-11.23,22.52,16.46,26.59,23.44,56.51,30.23,87.61,201.2-122.25,312.78-539.52-30.06-515.1-120.44,23.6-234.92,78.8-315,173.11ZM734.77,760.93C740.51,701,752.3,642.83,784,590.32c4.35-7.21,14.74-14.64,5.85-23.68-8.43-8.59-16.94,1-24.62,4.34-117.08,58.31-167.91-3.25-169.53,44.51-6,66.8-27,128.37-64.61,184.19-13.83,13.54-4,27.13,12.87,16.4,53-26.87,109.06-36.29,166.85-29.89C734.66,791.53,733.41,775.08,734.77,760.93ZM303.92,408.31c134.38-34,192.5,49.13,195.74-6.89,7.69-51.78,26-99.6,58.05-141.65,18.17-16.95,8.43-31.45-14.34-23.18-32.1,6.87-64.34,7.76-96.46,1.43-120.68-45.56-17.63,29.16-165.51,170.42C290.85,413.81,297.35,409.68,303.92,408.31Z" style="fill:#099592"/><path d="M247.45,238.46c-8.14,15-23.48,4.3-4.34-4.26Z" style="fill:#099592"/></svg>
