<svg xmlns="http://www.w3.org/2000/svg"  viewBox="0 0 1024 1024"
    fill="currentColor"><path d="M759.3,362.37c-39.81,20.56-81.07,39.59-119.83,61.1C828.4,437.88,1193.6,603.88,930.53,803.62c-200.66,134.25-563.48,132.52-779,32.81C83.13,803.18,6.73,748.93.19,666.77-.42,658,.12,659.54,7,659.55q78.82.11,157.65.27c1.54,0,2.18.67,2.08,2.35.35,26.3,11.06,52.29,26.9,73,37.76,44.39,92.16,72.88,147.48,89.11,463.92,142.25,805.38-306.94,160-348.94-78-33.3-154-77.29-230.6-114.6C351.32,319.94,436,273.25,519,239,598.54,280.72,680.93,319.15,759.3,362.37ZM515,411.25q47-24.19,94.22-48.2c2.49-1.45-.5-3.11-2-3.69q-44.78-22.44-89.36-45.25c-2.08-1.06-3.74-1.29-5.7-.17q-46.22,22.65-92.35,45.5c-2.05,1-2.09,2-.19,3.28C451.51,378.66,482.87,396.32,515,411.25Z" style="fill:#004d97"/><path d="M752.86,662.87c-81.45,39.65-164.9,87.87-248,121-79.09-40.92-160.29-80.72-238.72-122.12,38.48-21.68,80.79-40.3,120.27-61.48-1-2-2.56-1.77-3.85-2-12.13-1.69-24.32-3-36.39-5-98-18.2-198.59-47.66-276.44-112.54C26,447.26-7.2,389.6,6.47,333.58c18.68-74.88,88.42-119.43,153.65-151.3,73.58-32.49,152.19-51.16,232-59.63,190.61-19.89,582.73,3.14,631.84,234.12.15,7.61.33,6.88-6.27,6.62C966,363,914.17,363.22,862.42,363,844.46,260.21,741,208.49,642.15,188.12,511.94,156.77,305.9,171.7,208.24,272.29c-72.55,67.65-42.83,158.38,35.28,205.7,82.54,54.65,185,70.53,282.3,71C602.25,584.21,678,624.63,752.86,662.87Zm-146.18-.46c-28.84-18-61.89-31.84-92-48.71-3.12-1.64-5.61-2.06-9-.22-29.88,17-63.56,30.4-92.07,48.35,28.94,17.07,61.58,31.14,91.62,47.45,2.4,1.23,4.54,1.75,7.08.5C543.31,693.51,576.81,679.92,606.68,662.41Z" style="fill:#28a0a6"/></svg>
