<svg xmlns="http://www.w3.org/2000/svg" xmlns:xlink="http://www.w3.org/1999/xlink" viewBox="0 0 1024 1024"><defs><radialGradient id="a" cx="512" cy="512" r="512" gradientUnits="userSpaceOnUse"><stop offset="0" stop-color="#fae824"/><stop offset="1" stop-color="#fdb34a"/></radialGradient></defs><path d="M1024,512c0,3,0,5.94-.08,8.89A511.62,511.62,0,0,1,707.58,985.33h0A510.58,510.58,0,0,1,512,1024h-3.72A512.46,512.46,0,0,1,79.06,785.45h0A509.41,509.41,0,0,1,.24,527.86Q0,520,0,512A511.54,511.54,0,0,1,508.47,0H512A514.17,514.17,0,0,1,628.71,13.36,511.43,511.43,0,0,1,1024,512Z" style="fill:url(#a)"/><path d="M935.68,652.38a205.23,205.23,0,1,0-228.11,333h0a513.84,513.84,0,0,0,272.79-266.2A205.07,205.07,0,0,0,935.68,652.38Zm-145.12,254a108.91,108.91,0,1,1,108.91-108.9A109,109,0,0,1,790.56,906.41Z" style="fill:#fff;opacity:0.5"/><path d="M796,85.94c-1.81,0-3.63,0-5.45,0a715.41,715.41,0,0,0-130.1,11.83,702,702,0,0,0-93.33,24q-27.09,9-53.57,20.16A709.16,709.16,0,0,0,305.13,277.17h0q-9,8.4-17.74,17.15Q276.76,305,266.61,316h0A709.19,709.19,0,0,0,134.91,520.5q-12.24,28.95-21.82,58.63a705.57,705.57,0,0,0-23.25,93.52A717.07,717.07,0,0,0,79.06,785.44h0A513.89,513.89,0,0,0,184.75,905.76a624.19,624.19,0,0,1,.37-218.6,606.55,606.55,0,0,1,25.53-95.77q6-16.83,13-33.36A612.31,612.31,0,0,1,329.8,389.72a0,0,0,0,0,0,0q12.4-14,25.69-27.27,11.67-11.65,23.84-22.62A612.23,612.23,0,0,1,551.09,230.56q14.4-6.09,29-11.42a609.66,609.66,0,0,1,95.58-26.25,624.05,624.05,0,0,1,238,1.63A513.92,513.92,0,0,0,796,85.94Z" style="fill:#fff;opacity:0.5"/><path d="M1010.7,395.55A458.39,458.39,0,0,0,368.4,975.87q6.87,16.25,14.91,31.82a512.77,512.77,0,0,0,125,16.3,361.59,361.59,0,0,1-15-432.95h0a366.24,366.24,0,0,1,88.57-89.23h0a361.52,361.52,0,0,1,442,19.1c.05-2.95.08-5.92.08-8.89A513.57,513.57,0,0,0,1010.7,395.55Z" style="fill:#fff;opacity:0.5"/><path d="M415.61,192.54A207.55,207.55,0,0,0,356.1,71.72a210.51,210.51,0,0,0-41.52-32.28,511.44,511.44,0,0,0-116.17,67.81c3.26-.29,6.54-.43,9.86-.43a112.68,112.68,0,0,1,96.86,170.35v0A113.39,113.39,0,0,1,266.61,316h0A112.68,112.68,0,0,1,95.54,219.55c0-1.89,0-3.76.13-5.63A510.5,510.5,0,0,0,32.32,332.58a210.86,210.86,0,0,0,28.12,34.8,207.56,207.56,0,0,0,122.37,59.71,212.75,212.75,0,0,0,25.46,1.52A207.48,207.48,0,0,0,329.8,389.72l0,0a212.51,212.51,0,0,0,49.52-49.88,207.53,207.53,0,0,0,38-120.27A212.1,212.1,0,0,0,415.61,192.54Z" style="fill:#fff;opacity:0.5"/><path d="M675.7,192.89a465.11,465.11,0,0,0-15.24-95.15,467.9,467.9,0,0,0-20.82-60.43q-5.14-12.17-10.93-24A514.17,514.17,0,0,0,512,0h-3.53a370,370,0,0,1,42.45,74.82,367.23,367.23,0,0,1,16.21,46.86,371,371,0,0,1,13,97.45v.41A370.5,370.5,0,0,1,512.85,433,376.64,376.64,0,0,1,424,522.52a370.49,370.49,0,0,1-213.34,68.87h-2.38a371.24,371.24,0,0,1-95.18-12.27A365.42,365.42,0,0,1,63.55,562.2,369.76,369.76,0,0,1,.24,527.86,512.06,512.06,0,0,0,18.12,647.48Q22,649.23,26,650.92a463.08,463.08,0,0,0,159.09,36.24q11.53.58,23.15.57A466.61,466.61,0,0,0,351.7,665.36q19.65-6.35,38.82-14.44A465.82,465.82,0,0,0,493.29,591h0a474.46,474.46,0,0,0,88.57-89.23s0,0,0,0a466,466,0,0,0,57.76-100q8.77-20.78,15.49-42.15a466.39,466.39,0,0,0,21.32-140.1Q676.45,206.17,675.7,192.89Z" style="fill:#fff;opacity:0.5"/></svg>