<svg xmlns="http://www.w3.org/2000/svg" viewBox="0 0 1024 1024"><path
    d="M513.79,416.69c-42.92,41.85-82.28,80.24-121.65,118.6C353.5,572.93,314.83,610.55,273.28,651c-24.52-38.67-30-77.45-29.77-116C244.42,355.18,435.78,227,604,291.81c17.16,6.61,25,14.61,24.55,34.25-1.39,56.13-.23,112.31-.83,168.46-.08,7.42-4.6,14.79-7.06,22.19-7.06-3.69-15.58-5.94-21-11.32C571.37,477.05,543.85,447.91,513.79,416.69ZM392,566.08c0,67.39-.46,134.78.75,202.14.11,6.4,9.94,17,16.6,18.18,40.15,7.24,80.95,18.68,121,17C702.88,796.2,820,613.79,758.2,452.64c-2.45-6.38-6.91-12-12.89-22.12l-238,232.14L401.91,559.56ZM285.1,295.71a33.32,33.32,0,0,0,7-4.54C379.8,219,478.46,191.11,590.61,216.32a31,31,0,0,0,18.6-2.09c33.85-15.76,67.17-32.63,101-48.35,14.14-6.56,17.7-15.9,10.82-29.14-5.59-10.74-11.43-21.53-18.53-31.29-53.75-73.9-159.87-109.29-253.61-85C353.52,45.19,281.83,122.4,271,215.51c-3.1,26.63.77,54.06,1.45,81.51C281.53,296.15,283.55,296.43,285.1,295.71Zm407.26-34.47c66.89,46.29,119.51,105.82,135.2,186.14,11.16,57.14,36,100,76.58,139.75,42.85,42,49.94,44.6,82.38-8,49.52-80.29,48.42-164.11,5.82-245.9-42.17-81-112-124.65-203.41-128.14-42.52-1.62-85,5.6-123.76,36.68C676.26,249.73,684.22,255.61,692.36,261.24ZM209.44,669.48C168.86,565.67,173,464.93,228.66,367.08c4.63-8.14,5.7-19.75,4.75-29.38-2.94-29.71-7.88-59.21-11.63-88.85-4.59-36.25-8.59-39.16-44.65-30.69C77.09,241.65.43,343.8,0,454.18-.42,562,74.1,660,175.61,684.24c11.17,2.67,23.24,1.61,36.53,2.37C210.92,678.48,211.07,673.64,209.44,669.48ZM553.6,867.63c-6.55-.32-13.12-.57-19.66-.32-106.36,4.06-196.16-31.6-269.27-109.84-8.58-9.19-23.57-14.14-36.49-17.19-29.08-6.88-59.05-10-88.06-17.16-24-5.89-31.73,3-34.37,25.76C93.48,854.37,163.8,960.68,271.8,998.13c104.37,36.19,222.53-5.21,277-97.45,5.44-9.21,8.53-19.8,12.71-29.75C556.9,869,555.28,867.72,553.6,867.63Zm284.66-267a72,72,0,0,0-5.24,13C805.17,718.52,743.4,795,644.29,841c-10,4.65-19,14.74-24.82,24.49-15.78,26.48-27.93,55.21-44.67,81-15.11,23.27-8.55,34.55,14.45,44.6,39.85,17.39,80.63,21.56,123.48,15.69C893.4,982,984.94,768,875.7,624.35c-8.59-11.29-19.84-20.54-29.56-30.44C840.89,598.3,839,599.18,838.26,600.64Z"
    style="fill:#d8261a"
  /></svg>
