<svg xmlns="http://www.w3.org/2000/svg"  viewBox="0 0 1024 1024"
    fill="currentColor"><path d="M404.08,11.66c.07,108-.13,215.9.06,323.89.44,5.05,2.66,8.74,7.76,10.56,23.19,9.75,48.91,4.24,73.39,5.9,6.08.63,9.53,4.39,9.54,10.59q.09,71.85,0,143.73c-41.55-2.19-83-.17-124.6-1-9.48-.23-22.32-.95-26.52-10.93-7.83-118.21-.45-238.16-2.91-357-20,6.73-37.36,18.72-54.69,30.49-32.16,22.74-65.08,45.62-88.3,78C125.93,331.79,89.57,446.68,103,558.18c2.45,34.65,11.9,67.88,24.58,100.1,9.58,26.81,20.14,53.57,37.29,76.6,64.39,99.67,171.3,169.82,289.36,185.44,3-80.33,1.2-161.62.58-242.26-28.67,0-56.89-.19-85.5.1-8.38-.52-24.41-3.54-26.25-13-5.59-49.82-.62-100.63-2.23-150.8,10.48,5,19.54,10.19,31.05,10,37.25.22,74.5,0,111.75.13,7.85.35,11.22,3.83,11.22,11.7q0,69.72,0,139.52c5.11,2.14,22.56,2.64,33.15,1,3.91-48.75-3.94-99.41,3.16-147.47,1.72-3,4-4.68,7.44-4.7q55.2-.26,110.42,0c12.55.48,22.72-3.88,32.94-10.68,1.09,48.14-.05,96.31.54,144.48,0,5.76-2.57,9.85-5.83,13.69a51.63,51.63,0,0,1-25.44,6.14c-27.27-.14-54.67,0-81.92-.05-2.08,7.13-1.95,236.29,0,242.2,115-14.39,220.7-82.12,285.92-177.4,20.39-34.49,39.69-70.07,50-109,1.84-5.73,3.53-11.54,5.85-17.07,2.73-6.47,3.79-13.22,4.76-20.06,2.47-15.57,5.58-31.11,7.26-46.79,8.81-90.19-15.79-181.35-62.13-258.69C815.73,226.62,756.72,168,682.76,137.35c-1,115.66-.32,231.27-.23,346.94.05,6.71-2.82,11.46-6.4,16.28-4.25,3.92-16.57,4.11-22.42,4.75-41.62.69-83.06-.8-124.67.73-.69-47.53-.33-95.24-.16-142.78,1-8.13,4.53-11.34,12.68-11.37,22.82-1.52,47.24,4.05,68.86-4.94,5.61-2.32,8.76-6.65,8.69-13q0-161,0-321.82c39.29,10.56,80,20.45,116.2,39.55,33.7,15.53,64,36.88,94.56,57.68,27.18,24.33,54.27,49.21,77.88,77.12,27.71,31.81,46.47,70.21,67.51,106.55,15.89,30.94,23.28,65.41,34.18,98.28,6.93,21.33,8,43.7,11.63,65.67,7.42,86.94-1.79,176.21-38,256.33-134.13,315.82-541.27,412.7-801.78,188.43C21.89,771.33-40.86,538,28.61,344.47,64.35,237.6,138.51,148,231,84.89c18-14.66,39.66-22.77,59.91-33.59C326,31.48,365.68,23.13,404.08,11.66Zm153-5.3c0-3-1.64-4.39-4.54-4.63a474.72,474.72,0,0,0-79.45-.13c-6.45.7-6.76.78-6.9,7.09q0,146.48,0,293c-.44,13.61,5.11,25.36,20.45,24.74,17.38-.34,34.78-.05,52.17-.14,12.91-.07,18.33-5.53,18.33-18.24q0-73.9,0-147.82C557.08,108.91,557.26,57.63,557.07,6.36Z" style="fill:#009275"/></svg>
