<svg xmlns="http://www.w3.org/2000/svg"  viewBox="0 0 1024 1024"
    fill="currentColor"><path d="M511.45,781.34q-221.9,0-443.8,0c-12.43,0-24.4-1.35-35.45-7.62-18-10.24-28.61-25.54-31.5-46a98.06,98.06,0,0,1-.65-13.5Q0,513.1,0,312c0-12,.58-23.87,6.35-34.8,10.37-19.62,26.25-31.4,48.55-33.78a165.11,165.11,0,0,1,17.37-.76q440.43-.06,880.85,0c7.39,0,14.91.14,22.14,1.47,26,4.79,46.47,28.1,48.43,54.59.26,3.53.28,7.09.28,10.63q0,202.56,0,405.13c0,9.4-.32,18.71-4.09,27.52-9.87,23-27,36.34-52.1,38.89a142.57,142.57,0,0,1-14.48.42Q732.4,781.35,511.45,781.34Zm-199-77.62c-1.19-2.81-2.39-5.62-3.88-9.12,4.34-.46,7.62-1.66,10.45-1,16.53,4,17.91,4.06,32.57-1.27.84-.3,1.94.18,2.81-.08,1.95-.6,3.82-1.43,5.73-2.16-1.26-2-2.11-4.41-3.83-5.79-5-4-10.66-7.2-15.46-11.39-7.05-6.16-7.27-6.34-13.78.53C322.83,678,319,683.14,312.32,685c-.26-4.43-.49-8.18-.77-12.87-5.29-.21-10-.51-14.77-.56s-7.07,2.41-7.06,7.19c0,19.34,0,38.67,0,58,0,2.6.52,5.94,4,5.14,1.69-.4,3.37-3.42,3.89-5.53.81-3.29.63-6.82.88-10.44,2.12-.18,3.36-.25,4.59-.39,8.85-1.05,11.71-4.49,10.9-13.45-.26-2.87-1-5.7-1.48-8.47,3.27,7.59,6.4,15.25,9.93,22.72.79,1.67,3,2.66,4.57,4,.86-1.83,2.77-3.9,2.41-5.45a105.21,105.21,0,0,0-5.2-16.43C320.91,700.48,320.45,700.48,312.47,703.72ZM695,692.31l.23.24c.37-1.85,1.66-4.61.92-5.37-2.07-2.1-5-3.37-8.27-5.4,0-2.76.36-6-.16-9.11-.24-1.43-2.2-2.58-3.38-3.85-1.24,1.21-3.26,2.24-3.59,3.67-.79,3.37-.78,6.92-1.11,10.64-1.9.47-3.57.58-4.88,1.31s-3.25,2.4-3,3.07a8.51,8.51,0,0,0,3.31,4c1.45,1,3.31,1.4,5,2,.26,7.81,2.59,15.31-6.77,19.5-3.61,1.62-2.4,5.18,2,6.49a31.26,31.26,0,0,0,4.68.65v11.39c-1.91.67-3.85,1-5.39,2-2.29,1.44-2.94,4.19-.62,5.52,2.59,1.47,6.18,2.57,8.9,1.94,2-.47,4.22-3.7,4.87-6.1a28.09,28.09,0,0,0,.43-10.55c-1-8.15,2.15-13.57,8.37-16.06l12.05,19.43c-4.87,1.85-9.67,3.37-14.16,5.53-2,.94-4.88,3.45-4.65,4.8.62,3.78,4.28,3.29,7.06,2.59,4-1,8.31-2,11.84-4,6-3.49,11-2.78,17.06.2,5.06,2.5,11,3.26,16.7,4.26,1.14.2,3.15-1.78,3.86-3.2.34-.66-1.19-2.91-2.35-3.53-2-1-4.32-1.2-6.44-1.94-3.82-1.35-7.58-2.85-11.95-4.5,3.77-5.68,7.32-10.23,10-15.23,5-9.32,2.7-13-7.72-13.2-8.19-.11-16.38,0-24,0l7.39-21.51h13.28c.33,3.11.71,5.59.84,8.09.57,10.53,7,14.87,16.69,10.94a5.3,5.3,0,0,0,2.52-3.47c.16-.74-1.23-2.38-2.21-2.68a80.58,80.58,0,0,0-8.6-1.73c-.19-3.65-.28-6.83-.54-10-.59-7.1-1.84-8.39-8.75-8.69-3.86-.17-7.73-.09-11.59,0-9.9.11-10.32.38-11,10.13C701.34,685.61,700.09,690,695,692.31Zm78.14,39.62-.19-.19a76,76,0,0,0-7.75,3c-1.76.87-3.21,2.37-5.73,4.31,8.28,5.89,15.35,2.16,22,.34,14.19-3.85,18.68-15.36,20.26-29.24l15.5.92v16.67c-6.35,1.45-12.31-6.91-18.36.94,1.52,1.38,2.49,2.75,3.8,3.34,7.63,3.41,15.33,6.65,23,9.91a5.43,5.43,0,0,0,2.75.69c1.15-.2,2.68-.68,3.18-1.54s.51-2.87-.13-3.52a66.13,66.13,0,0,0-6.06-5.1V704.59c1.88,0,2.93.26,3.73-.06,1.88-.74,3.64-1.77,5.45-2.69-1.33-1.54-2.41-3.45-4-4.55-3.07-2.07-6.46-3.68-9.72-5.49l-.24.23c6.9-1.18,9-6.71,10.81-12.29,1.27-4-.8-6.32-4.74-6.55-5.14-.32-10.3-.22-15.45-.27-6.49-.07-13.54,1.55-17.26-7.61l-10,11.93c-5-2-9.38-4-13.82-5.59-3-1.08-7-2.95-8.46,1-1.78,5,3.58,4.79,6.46,6.25,4.06,2,9.33,1.88,12.94,7-6.31,3.57-12.23,6.67-17.85,10.25-1.55,1-3.38,3.67-3,5.06.87,3.42,4,2.49,6.39,1.57s4.64-2.26,7-3.15a14.25,14.25,0,0,1,3.79-.32c-.73,2.25-1.85,3.3-3.15,3.59-4.53,1-6.42,3.85-6.38,8.32,0,5.16-.09,10.32,0,15.47C768.11,729.94,769,732.63,773.14,731.93ZM499.89,710.06l.21.22c1.32-2.5,3.63-4.94,3.78-7.51a237.37,237.37,0,0,0,0-26c-.1-1.95-2.69-5.32-4.26-5.38-9.89-.44-20.21-1.73-29.59.55-5.6,1.36-10.62,2.82-14,2.38l-8.17-6.91a66.36,66.36,0,0,0-4.44,7c-2.92,6-5.74,12.16-8.23,18.39a9.09,9.09,0,0,0,.05,6.09c.24.64,3.34.38,5.1.21a15,15,0,0,0,3.54-1.3c1.16,3.47,1.64,6.21-2.37,7.21-2.65.66-6.83,0-5.91,4.19.4,1.77,4.26,2.77,6.54,4.13l2.76,1.65c0,6.66-.32,14,.1,21.33.34,6.2,3.76,7.89,9.08,4.62,3.72-2.3,7-5.35,10.43-8.06.66.83,1.23,1.24,1.34,1.74,2,9.38,5.26,10.87,12.7,5.22,3.74-2.84,6.9-6.42,10.23-9.57,4.35,2.92,8.51,5.94,12.9,8.57,2.46,1.46,5.85,3,7.38-.67.55-1.31-1.63-4.33-3.24-5.86-2.65-2.53-5.85-4.49-9.38-7.11,2.9-3.25,5.12-5.5,7.06-8C506.72,713.07,506.22,712.17,499.89,710.06Zm11.94-80.63q219,0,438.05,0c5.48,0,11,.23,16.41-.56,5-.72,10.28-1.87,14.72-4.19,16.08-8.39,23.5-22.06,23.48-40.18q-.13-138.28-.06-276.57c0-1.61.07-3.23,0-4.83-1-14-7-25.24-18.73-33.25-8.95-6.1-18.95-7.3-29.49-7.3q-443.85.12-887.71.07c-2.9,0-5.87-.34-8.69.14-4.73.79-9.66,1.44-14,3.33-17.93,7.81-26.12,22-26.12,41.33q0,136.35,0,272.7c0,2.9,0,5.81.13,8.7A42,42,0,0,0,58.31,629c5.77.48,11.59.39,17.39.4ZM246.57,703.74c-.31-.74-.61-1.48-.91-2.22,1.29-1.23,2.45-3.26,3.92-3.51,3.45-.59,7-.36,10.59-.4,4.72-.06,7.15-2.45,7.23-7.13q.09-6.76,0-13.52c-.07-4.7-2.57-7.18-7.23-7.16-12.86.07-25.72.29-38.58.38-2.36,0-4.94.21-7-.65-4.11-1.71-6.32-.17-7.2,3.56a66.46,66.46,0,0,1-10.83,24.54c-2.3,3.14-1.51,6.17,3,7,1.18.22,2.34.49,4.13.87,0,7.06,0,13.79,0,20.53a99.12,99.12,0,0,0,.29,11.57c.19,1.6,1.53,3.8,2.88,4.29,1.06.38,3-1.29,4.38-2.34,1.12-.87,1.69-2.54,2.87-3.22,5.74-3.32,11.64-6.38,17.42-9.64,1.81-1,3.43-2.38,6.37-4.47,0,6-.09,10.41,0,14.84.07,2.67.71,5.72,4.13,5,1.42-.29,3.09-3.08,3.27-4.87.46-4.65.15-9.37.15-16,3.76,2.85,5.64,4.43,7.67,5.8a172.48,172.48,0,0,0,14.62,9.3c1.32.7,3.83-.83,5.8-1.34-.55-1.94-.53-4.5-1.79-5.69-2.05-1.92-5-2.85-7.46-4.35-5.36-3.27-10.78-6.51-15.36-13.41,6.44,0,11.18.12,15.92,0,3-.11,7.51.9,7.38-3.69s-4.65-3.38-7.65-3.53C258.58,704,252.57,703.9,246.57,703.74Zm340.05-5.06c4-.77,6.6-.93,8.91-1.88,1.09-.45,2-2.36,2.15-3.7.09-.84-1.26-2.33-2.25-2.66a18.6,18.6,0,0,0-5.68-.7c-11.57,0-23.13-.14-34.69,0-3.19.06-8.3-1.16-8,4.09.25,4.92,5.21,3.64,8.5,3.73,7.27.21,14.54.13,22.79.18,0,10.86.09,20.4,0,30,0,4-2.62,5.78-6.38,5.42-3.51-.33-7-1.47-10.45-1.58-1.52,0-3.08,1.6-4.62,2.48,1,1.7,1.65,4.22,3.14,4.93,2.83,1.35,6.12,1.82,9.27,2.38,12.91,2.27,17.23-1.28,17.37-14.36C586.7,717.74,586.62,708.48,586.62,698.68Zm-239.52,33c1.55-5.41,3.14-10.24,4.29-15.17a97.51,97.51,0,0,0,2.39-14.17c.11-1.35-1.87-2.88-2.89-4.32-1.43,1-3.11,1.83-4.22,3.12-.74.87-.69,2.42-1,3.66-2.19,9-4.37,17.91-6.8,27.87-7.53,0-14.84-.22-22.12.18-1.62.09-3.11,2.4-4.66,3.69,1.61,1.2,3.2,3.41,4.85,3.45,12.49.31,25,.19,37.49.18a2.83,2.83,0,0,0,1.83-.42c1-1.06,2.57-2.34,2.53-3.48a4.61,4.61,0,0,0-2.74-3.27C353.39,732.22,350.5,732.14,347.1,731.69ZM532,714.94c0,5.86-.23,11.63.09,17.36.21,3.73-1.91,9.87,4.3,9.75,5.33-.1,3.4-5.87,3.74-9.4,1.28-13-2.64-26.32,2.88-39,.51-1.17-.67-4.1-1.82-4.66s-3.91.36-4.78,1.52c-4.22,5.66-8.2,11.51-11.94,17.5-2.4,3.84-1,5.77,4.15,6.59C529.49,714.69,530.41,714.76,532,714.94Zm40.82-35.78v0c5.75,0,11.51.21,17.24-.14,1.48-.09,2.85-2,4.26-3-1.43-1.4-2.82-4-4.3-4q-17.7-.54-35.42-.1c-1.59,0-3.13,2.39-4.69,3.67,1.57,1.2,3.07,3.32,4.71,3.44C560.63,679.41,566.72,679.16,572.79,679.16ZM543.87,674c-1.56-2.27-2.17-4.12-3.3-4.52s-3.48.08-4.19,1c-4,5.35-7.93,10.84-11.47,16.54-.7,1.13-.14,3.68.75,4.93.51.72,3.62.8,4.22.07C534.71,686.17,539.21,680.07,543.87,674ZM339.61,718.32c-.88-4.08-1.9-10.08-3.59-15.88-.48-1.66-3-4-4.35-3.89-3.26.34-3.21,3.39-2.71,6,.64,3.45,1.43,6.88,2.13,10.32.58,2.81.77,5.77,1.82,8.4.55,1.39,2.56,2.2,3.92,3.27.92-1.47,1.92-2.9,2.73-4.43C339.83,721.64,339.61,720.88,339.61,718.32Zm302.32-13c-3.33-2.69-5.09-5.09-7.34-5.7-3.15-.86-5.52,1.18-6,4.59-.5,3.25,2.45,7.09,5.46,6.39C636.36,710.07,638.32,707.83,641.93,705.32Zm-243-6c-5.12.55-6.83,2.57-6.68,6s2.2,5.29,5.52,5.5,6.42-3.09,5.34-6.34C402.39,702.21,400,700.53,399,699.31ZM224.19,489v28c-8.86,2.81-16.88,1.88-24.75,1.12-1.52-.14-3.54-3.46-3.88-5.55-.67-4.09-.23-8.34-.4-12.52-.13-3.46-.47-6.9-.78-11.11-4.26-.19-7.72-.46-11.18-.47-14.49-.07-29,.06-43.46-.1-15-.16-21.86-6.94-22-21.88q-.24-29,0-57.94c.12-14.34,7.1-21.29,21.46-21.46s29,0,43.45,0H194c.75-6.84,1.39-12.74,2.08-19.15,9.09-2.53,17.87-1.32,27.45-.77.52,6.63,1,12.54,1.51,19.22,4.09.26,7.52.65,11,.67,14.48.07,29,.38,43.45-.08,12-.39,23.08,6.41,22.57,22.57-.61,19,0,38-.19,57-.12,14.85-7,21.66-22.05,21.85-14.81.18-29.61,0-44.42.07C232.23,488.47,229.09,488.76,224.19,489Zm-79.1-21.73c16.66.57,32.78,1.4,50.12-.52-.5-20,1-39-1.1-59.08-14.46,0-27.93-.11-41.38,0-8.09.09-8.69.71-8.78,9-.13,14.15-.07,28.3,0,42.45C144,461.61,144.63,464.07,145.09,467.28Zm79.85.5c14.81,0,28.28.1,41.75,0,8.21-.09,8.76-.65,8.82-8.85.11-14.49.07-29,0-43.48,0-2.14-.66-4.28-1.16-7.3-16.58-.53-32.74-1.15-49.38.45Zm194.12,46.76c-22.22,0-44.44.1-66.67,0-16.43-.09-22.92-6.54-23-22.8-.1-32.53.38-65.07-.27-97.59-.25-12.77,8.5-22.92,22.59-22.73,45.73.6,91.47.17,137.2.26,14.39,0,21.38,7,21.44,21.34q.19,49.76,0,99.52c-.05,15.25-6.66,21.94-21.76,22-23.19.13-46.38,0-69.57,0Zm66.57-20.14c-.07-35.23.51-69.42-.4-103.92H356c-2.35,8.38-2.43,94.84-.09,103.92Zm274.84-51H730.3V424l29.8-1c.7-5.1,1.3-9.44,2-14.42h22.74c.7,4.52,1.37,8.82,2.26,14.51,21.79.7,43.43.39,65.58.18.73-5.26,1.33-9.58,2-14.63H877.6c.84,4.5,1.69,9.07,2.74,14.74h28.78a39.86,39.86,0,0,1,1.46,5.61c1.16,14,.51,14.68-13.71,14.65H879.81c-1.34,10.37-.14,21.13-8.27,27.77-7.31,6-15.86,10.42-24.86,16.18,18.72,11.17,39.28,5.09,59,8.19v18.16c-24.54,1.55-48.09,1.81-70.57-8.46-18.34-8.37-12.91-7.87-29.49-.25-22.54,10.36-46.13,10.17-71,8.77V495.56c3.43-.25,7.12-.57,10.82-.77,11.23-.61,22.49-.85,33.67-1.92,4.57-.44,9-2.65,15.07-4.57-3.09-2.44-4.57-4-6.36-4.95-3.95-2.16-8.16-3.85-12.06-6.09-9.38-5.36-14.62-13.29-14.58-24.37C761.15,450.36,760.8,447.83,760.47,443.38Zm26.67.89c-1.51,12.48.22,16.35,9.27,21.06,6,3.12,12.25,5.73,18.29,8.78,3.41,1.72,6.58,2.06,10.1.28,6.61-3.35,13.47-6.21,20-9.74,8.54-4.64,10.33-10.19,7-20.38Zm-82.41-50.63V375c-4.89-.26-9-.65-13.11-.65q-69.55-.06-139.11,0c-15.21,0-15.92.85-14.12,15.93.11.86.85,1.65,1.64,3.11,22.06,1.45,44.5-.82,67.23,1.29V466.5c-4,.3-7.47.76-10.91.77-17.71.08-35.42,0-53.13.1-3.4,0-6.78.6-10.27.93v19.22l74.4.55c.42,10.63.8,20.07,1.19,30h26.78c.42-10.09.81-19.54,1.23-29.62,4.4-.23,7.88-.56,11.37-.57,17.06-.07,34.13,0,51.2-.11,3.7,0,7.4-.65,11.42-1V468.06c-24.91-2-49.31.61-74-1.62v-72.8Zm45.37,13.21c1-4.39,1.87-8,2.64-11.37,12-1.89,127.48-1.4,134.78.51.71,3.54,1.44,7.2,2.16,10.84H908c4.49-21.35-1.93-29.73-22.08-29.81C872,377,858.2,377,844.37,377c-3.14,0-6.27-.35-9.46-.55l-2.77-10.08H807.88L804.38,377H792.55c-14.8,0-29.61-.16-44.41.16-10,.21-16.34,5.59-17.51,14.6-.6,4.66-.1,9.46-.1,15.09ZM596.81,452.37c-7-14.06-13.89-28.13-21-42.09-.78-1.54-2.74-3.39-4.26-3.48-8.1-.5-16.3-1.49-25.57.95,7.78,15.07,15,29.3,22.55,43.4a6.49,6.49,0,0,0,4.46,3.14c7.86.32,15.73.15,23.2.15C596.63,453,596.91,452.58,596.81,452.37Zm76.86-45.74c-2.33.19-5.32,2.51-6.5,4.67-6.9,12.71-13.38,25.65-19.89,38.56-.52,1-.23,2.43-.41,4.95,6.75,0,13.12-.2,19.48.06,5.26.21,8.36-2.28,10.55-6.74,4-8.08,8.12-16.06,12.17-24.1,2.57-5.1,5.09-10.23,8.76-17.62C688.23,406.41,680.91,406,673.67,406.63ZM460.24,689.43a4.47,4.47,0,0,1,2.71,3.3c0,1.09-1.47,2.77-2.67,3.23-2,.77-4.27.76-7.13,1.19.27,2.84.48,5.16.72,7.74l11.38.57V682.67c-14.15-.89-14.15-.89-16.38,5.26A114.51,114.51,0,0,1,460.24,689.43Zm-6.87,40,12.14-5V711.88l-12.14,2Zm24.23-35.26a5.19,5.19,0,0,0-3.73,3.16c-.66,2.75,1.35,3.9,4,3.89,4.78,0,9.56,0,14.34-.06,3.75-.07,5.11-2,3.62-7.14C489.58,694,483.58,693.83,477.6,694.18Zm15.09-15.54c-4.8-.27-9.63-.12-14.45,0-2.53.06-4.73,1.24-4,4a5.39,5.39,0,0,0,3.89,3.11c5.71.35,11.46.15,18,.15C495.78,679.13,495.79,678.81,492.69,678.64Zm-17.52,31.1c-2.43,8.91-2.45,14.7-.14,21.73l10.8-7.37C480.31,720.25,482.14,712.21,475.17,709.74Zm24.91.52c-3.9-2-7.74-1.86-12.67.3l4,7.38,8.49-7.88ZM225.36,689.44h33.83V677.73H224.82C225,682.26,225.2,685.87,225.36,689.44Zm2.51,8.26c-10.19-.36-11.05-1.15-11.3-10.93-.06-2.57,0-5.15,0-9.83-5.52,10.43-5.79,19-4.32,27.26,5.13,0,9.65.44,14-.14,3.89-.51,9.87,2.79,11.32-5.72C234,698.11,231,697.81,227.87,697.7Zm-16.13,14.19c.47,5.76-1.54,11.12,1.52,16.46,8-3.88,14.91-8.09,21.05-16.46ZM773,731.77c12.84.8,20.53-7.7,18.6-21.56L776,711c0,5.13.34,9.29-.12,13.35-.29,2.6-1.76,5.06-2.71,7.59ZM805.6,692l-14.29,10.41h28.32Zm-21.48,2.76c7.28-1.94,13.1-5.07,16.37-13.23C790.4,680.42,785.22,684.7,784.12,694.73ZM820.65,692c-.17-3.48-.34-7-.54-11.11-2.92-.45-6.74-1.66-10.7,1.36,3,4.85,5.71,9,11.49,9.51ZM728,707.75c-7.54-1-14.53-1.71-23,.6l11.43,13.7C722.89,718,726.92,714.37,728,707.75Zm-32.75-15.21c-7.86.14-8.49,1.31-5.09,11.63L695,692.31ZM299.07,680.4c-.34,11.46-.63,22.92-.54,34.38,0,.88,2.75,2.3,4.3,2.42,1,.07,2.43-1.69,3-2.93a4.73,4.73,0,0,0-.17-3.74c-5.14-9.33-4.08-19.1-2.41-29,.08-.47-.58-1.06-1.36-2.4C300.61,679.71,299.08,680,299.07,680.4Zm46,7.4-11.28-9.87-8.41,9.87Zm24.2-221.28v13.62c10.85,2.26,93.37,1.84,101.25-.58.42-6.95,2-14.13-1.28-21.41-2.86-.16-5.42-.42-8-.42-2.23,0-4.46.28-6.48.42-4.9,8.08-8.23,8.93-21.35,5.68-4-15.29-2.74-17,12.44-17.06,4.18,0,8.38.11,12.56-.09a59.9,59.9,0,0,0,6.84-1.08V432.7l-33-1.19c.25-4.7.44-8.24.67-12.61H470.4v-16H369.31v16.47h38.15c-.24,4.7-.43,8.24-.6,11.64-11.39,2.83-22.21-.81-32.2,2.38v12.84l32.41,1.12v16.94C394.06,467,381.39,463.51,369.24,466.52Z" style="fill:#ff3203"/></svg>
