<svg xmlns="http://www.w3.org/2000/svg" viewBox="0 0 1024 1024"><path d="M1018.23,197.44a213.33,213.33,0,0,0-391-51.52l-299,518.56A215.92,215.92,0,0,0,309.8,706l-57.94-99.86L89,325.54A145.47,145.47,0,1,1,340.88,179.88l90.44,153.8,39.21-68L399.78,145.92a213.37,213.37,0,0,0-370.59,1.59,213.72,213.72,0,0,0,1,212.08L314.56,849.73a213.32,213.32,0,0,0,383.33,28.35l299-518.56A212.47,212.47,0,0,0,1018.23,197.44ZM639,844.11a145.28,145.28,0,0,1-198.6,53.3c-69.45-40.15-93.33-129.41-53.23-199L488.83,522.13l251.86,145.6ZM774.66,608.82,522.79,463.23l27.71-48.05L802.37,560.77ZM934.33,314.23a34,34,0,1,1-48.08-48.09,37.37,37.37,0,0,0,0-52.86l-3.07-3.07a34,34,0,0,1,48.08-48.08l3.07,3.07a105.37,105.37,0,0,1,0,149Z" style="fill:#00cfcd"/></svg>