<svg xmlns="http://www.w3.org/2000/svg" viewBox="0 0 1024 1024"><path d="M1017.21,351c.22-.33.43-.66.63-1s.42-.75.62-1.13.27-.47.4-.72l.11-.24c.19-.39.37-.8.55-1.2s.3-.65.43-1,.3-.78.45-1.17.26-.7.38-1.06.23-.75.34-1.13.22-.76.32-1.14.17-.73.25-1.1.18-.8.25-1.2.11-.72.17-1.08.12-.82.17-1.23.06-.73.09-1.1.07-.81.09-1.22,0-.76,0-1.14,0-.78,0-1.18,0-.78-.06-1.17,0-.77-.08-1.15-.09-.79-.14-1.18-.1-.76-.16-1.14-.14-.77-.22-1.16-.15-.76-.24-1.14-.19-.75-.29-1.12-.21-.78-.33-1.16-.24-.71-.36-1.06-.28-.8-.43-1.19-.28-.67-.42-1-.34-.8-.53-1.2l-.17-.39c-.1-.2-.22-.39-.32-.59-.19-.38-.39-.75-.6-1.13s-.39-.67-.59-1-.42-.68-.64-1-.46-.69-.7-1-.24-.37-.37-.55L810.38,34.92a34,34,0,0,0-25.61-16.68h-.08c-.44-.05-.87-.09-1.31-.12-.88-.07-1.77-.12-2.66-.12H240.14c-1.07,0-2.14.07-3.19.17l-.37,0-1.12.14-.87.13-.8.14c-.44.08-.88.18-1.32.28l-.39.09c-.72.17-1.43.36-2.14.58a33.84,33.84,0,0,0-18.7,14.36L6.11,312.7c-.12.17-.23.35-.36.52-.23.34-.47.68-.69,1s-.43.68-.64,1-.4.66-.59,1l-.6,1.13c-.1.19-.21.38-.3.57s-.12.27-.18.41c-.19.39-.36.79-.53,1.19s-.29.67-.42,1-.29.79-.43,1.19-.24.7-.35,1.06S.8,323.59.69,324s-.2.75-.29,1.12-.16.77-.24,1.15S0,327-.06,327.41s-.1.76-.15,1.14-.1.78-.14,1.17-.06.78-.08,1.17,0,.77,0,1.15,0,.8,0,1.2,0,.75,0,1.12.05.83.09,1.24,0,.72.09,1.08.12.83.18,1.25.1.71.17,1.06.16.82.26,1.23.15.71.24,1.07.22.78.33,1.16.22.74.34,1.11.25.72.39,1.08.28.77.44,1.15.29.66.44,1,.35.78.54,1.17l.11.23c.13.26.28.5.41.76s.4.74.61,1.1.43.7.65,1,.4.64.62,1,.53.74.8,1.1.31.45.48.66L485.56,965a34,34,0,0,0,26.76,13h0a34,34,0,0,0,26.77-13.11l476.18-611.18c.17-.22.32-.45.48-.67s.53-.71.78-1.07S1017,351.34,1017.21,351ZM510.94,811.88l-137.84-445H648.27ZM352,298.85,286.11,86H734.93L669.25,298.85Zm441.54-172.3,127.47,172.3H740.41Zm-566.09,0,53.36,172.29H100.72Zm74.42,240.28L431.75,786.05,103.33,366.84Zm286.7,424L719.43,366.84H918.91Z" style="fill:#08dee3"/></svg>