<svg xmlns="http://www.w3.org/2000/svg" viewBox="0 0 1024 1024"><path
    d="M357.83,772.7c45.63-27,84-62.68,64.06-106.76-1.44.06-2.88.07-4.29.07-31.67.14-62.46-10.26-88.27-28.52C297.46,614.91,227.49,556.37,231.91,464a46.93,46.93,0,0,1,.7-6.18c.42-2.36.87-4.73,1.36-7.07,4.68-22.45,23.41-39.79,46.35-40.92.84,0,1.7-.07,2.56-.07A50.74,50.74,0,0,1,309.14,417c26.64,16.08,48.77,23.28,79.65,19.32a150.94,150.94,0,0,1,19.38-1.24c75.89-5,46.1,54.47,84.54,68.7.11-.23,12.38-68.7,105.58-68.7a150.78,150.78,0,0,1,19.37,1.24c30.88,4,70.53-3.24,97.17-19.32a50.75,50.75,0,0,1,26.27-7.29c.86,0,1.71,0,2.56.07,22.93,1.13,41.66,18.47,46.35,40.92.48,2.33.92,4.66,1.34,7a54,54,0,0,1,.72,6.3c5.17,110.21-81.41,164.31-106.23,179.65a148.12,148.12,0,0,1-19.13,10.13c-19.71,8.51-45.09,0-64.62,12.17-51.17,31.86,6.7,176-51.16,254-13.16,1.27-33.71,1.92-47.21,1.92a409,409,0,0,1-251-85.54"
    style="fill:none;stroke:#3264c8;stroke-linecap:round;stroke-linejoin:round;stroke-width:68px"
  /><path
    d="M553.25,919.8l-1.26.13q-19.74,1.91-40,1.92A410.22,410.22,0,0,1,101.5,512c0-226.36,183.79-409.85,410.5-409.85S922.5,285.64,922.5,512c0,147.74-78.3,277.23-195.73,349.35"
    style="fill:none;stroke:#3264c8;stroke-linecap:round;stroke-linejoin:round;stroke-width:68px"
  /></svg>
